{
.appVersion = "3180";
DisplayStrings = (
"/laam-adlam.init/yhe-adlam.fina",
"/dottedCircle",
"/aliflengthencomb-adlam.case"
);
classes = (
{
automatic = 1;

glyphs = (
{
glyphname = .notdef;
layers = (
{
layerId = "B0FCDF77-85CD-41D2-A2A0-D0893F1A1A59";
paths = (
{
closed = 1;
nodes = (
"479 0 LINE",
"479 714 LINE",
"94 714 LINE",
"94 0 LINE"
);
},
{
closed = 1;
nodes = (
"118 690 LINE",
"455 690 LINE",
"455 24 LINE",
"118 24 LINE"
);
}
);
vertWidth = 0;
width = 574;
},
{
layerId = "6CB8ADAF-854D-4ED0-880B-EED1FC4797A7";
paths = (
{
closed = 1;
nodes = (
"505 0 LINE",
"505 714 LINE",
"94 714 LINE",
"94 0 LINE"
);
},
{
closed = 1;
nodes = (
"145 663 LINE",
"454 663 LINE",
"454 51 LINE",
"145 51 LINE"
);
}
);
vertWidth = 0;
width = 600;
}
);
},
{
glyphname = "Alif-adlam";
production = u1E900;
layers = (
{
anchors = (
{
name = gemconsonanttop;
position = "{365, 663}";
},
{
name = top;
position = "{351, 663}";
},
{
name = topAlif;
position = "{320, 745}";
}
);
layerId = "B0FCDF77-85CD-41D2-A2A0-D0893F1A1A59";
paths = (
{
closed = 1;
nodes = (
"541 -10 OFFCURVE",
"640 89 OFFCURVE",
"640 213 CURVE SMOOTH",
"640 311 OFFCURVE",
"591 352 OFFCURVE",
"566 366 CURVE",
"566 370 LINE",
"584 373 OFFCURVE",
"623 385 OFFCURVE",
"640 398 CURVE",
"613 471 LINE",
"591 458 OFFCURVE",
"519 433 OFFCURVE",
"434 433 CURVE SMOOTH",
"371 433 OFFCURVE",
"322 442 OFFCURVE",
"299 453 CURVE",
"278 376 LINE",
"297 366 OFFCURVE",
"352 358 OFFCURVE",
"418 352 CURVE SMOOTH",
"496 345 OFFCURVE",
"547 306 OFFCURVE",
"547 213 CURVE SMOOTH",
"547 119 OFFCURVE",
"471 69 OFFCURVE",
"360 69 CURVE SMOOTH",
"253 69 OFFCURVE",
"200 108 OFFCURVE",
"200 249 CURVE SMOOTH",
"200 577 LINE SMOOTH",
"200 619 OFFCURVE",
"209 635 OFFCURVE",
"249 635 CURVE SMOOTH",
"540 635 LINE",
"543 639 LINE",
"497 714 LINE",
"222 714 LINE SMOOTH",
"128 714 OFFCURVE",
"110 682 OFFCURVE",
"110 596 CURVE SMOOTH",
"110 249 LINE SMOOTH",
"110 56 OFFCURVE",
"180 -10 OFFCURVE",
"358 -10 CURVE SMOOTH"
);
}
);
vertWidth = 0;
width = 715;
},
{
anchors = (
{
name = gemconsonanttop;
position = "{405, 663}";
},
{
name = top;
position = "{391, 663}";
},
{
name = topAlif;
position = "{345, 739}";
}
);
layerId = "6CB8ADAF-854D-4ED0-880B-EED1FC4797A7";
paths = (
{
closed = 1;
nodes = (
"602 -10 OFFCURVE",
"676 102 OFFCURVE",
"676 225 CURVE SMOOTH",
"676 297 OFFCURVE",
"647 331 OFFCURVE",
"625 346 CURVE",
"625 351 LINE",
"650 355 OFFCURVE",
"695 371 OFFCURVE",
"710 382 CURVE",
"673 491 LINE",
"647 475 OFFCURVE",
"555 453 OFFCURVE",
"462 453 CURVE SMOOTH",
"384 453 OFFCURVE",
"335 464 OFFCURVE",
"318 471 CURVE",
"299 348 LINE",
"311 343 OFFCURVE",
"363 333 OFFCURVE",
"416 328 CURVE SMOOTH",
"474 323 OFFCURVE",
"520 302 OFFCURVE",
"520 225 CURVE SMOOTH",
"520 154 OFFCURVE",
"474 115 OFFCURVE",
"384 115 CURVE SMOOTH",
"292 115 OFFCURVE",
"241 154 OFFCURVE",
"241 277 CURVE SMOOTH",
"241 531 LINE SMOOTH",
"241 573 OFFCURVE",
"250 589 OFFCURVE",
"290 589 CURVE SMOOTH",
"568 589 LINE",
"572 594 LINE",
"500 714 LINE",
"202 714 LINE SMOOTH",
"108 714 OFFCURVE",
"90 682 OFFCURVE",
"90 596 CURVE SMOOTH",
"90 277 LINE SMOOTH",
"90 72 OFFCURVE",
"170 -10 OFFCURVE",
"384 -10 CURVE SMOOTH"
);
}
);
vertWidth = 0;
width = 765;
}
);
unicode = 1E900;
},
{
glyphname = "Alif-adlam.fina";
production = u1E900.fina;
layers = (
{
anchors = (
{
name = gemconsonanttop;
position = "{365, 663}";
},
{
name = top;
position = "{351, 663}";
},
{
name = topAlif;
position = "{320, 745}";
}
);
layerId = "B0FCDF77-85CD-41D2-A2A0-D0893F1A1A59";
paths = (
{
closed = 1;
nodes = (
"444 -10 OFFCURVE",
"511 12 OFFCURVE",
"559 48 CURVE",
"565 48 LINE",
"576 12 OFFCURVE",
"603 0 OFFCURVE",
"663 0 CURVE SMOOTH",
"714 0 LINE SMOOTH",
"744 0 OFFCURVE",
"754 12 OFFCURVE",
"754 48 CURVE SMOOTH",
"754 74 LINE",
"690 74 LINE SMOOTH",
"649 74 OFFCURVE",
"640 90 OFFCURVE",
"640 132 CURVE SMOOTH",
"640 219 LINE SMOOTH",
"638 313 OFFCURVE",
"590 352 OFFCURVE",
"566 366 CURVE",
"566 370 LINE",
"584 373 OFFCURVE",
"623 385 OFFCURVE",
"640 398 CURVE",
"613 471 LINE",
"591 458 OFFCURVE",
"519 433 OFFCURVE",
"434 433 CURVE SMOOTH",
"371 433 OFFCURVE",
"322 442 OFFCURVE",
"299 453 CURVE",
"278 376 LINE",
"297 366 OFFCURVE",
"352 358 OFFCURVE",
"418 352 CURVE SMOOTH",
"496 345 OFFCURVE",
"547 306 OFFCURVE",
"547 213 CURVE SMOOTH",
"547 119 OFFCURVE",
"471 69 OFFCURVE",
"360 69 CURVE SMOOTH",
"253 69 OFFCURVE",
"200 108 OFFCURVE",
"200 249 CURVE SMOOTH",
"200 577 LINE SMOOTH",
"200 619 OFFCURVE",
"209 635 OFFCURVE",
"249 635 CURVE SMOOTH",
"540 635 LINE",
"543 639 LINE",
"497 714 LINE",
"222 714 LINE SMOOTH",
"128 714 OFFCURVE",
"110 682 OFFCURVE",
"110 596 CURVE SMOOTH",
"110 249 LINE SMOOTH",
"110 56 OFFCURVE",
"180 -10 OFFCURVE",
"358 -10 CURVE SMOOTH"
);
}
);
vertWidth = 0;
width = 714;
},
{
anchors = (
{
name = gemconsonanttop;
position = "{405, 663}";
},
{
name = top;
position = "{391, 663}";
},
{
name = topAlif;
position = "{345, 739}";
}
);
layerId = "6CB8ADAF-854D-4ED0-880B-EED1FC4797A7";
paths = (
{
closed = 1;
nodes = (
"496 -10 OFFCURVE",
"556 20 OFFCURVE",
"585 40 CURVE",
"591 40 LINE",
"598 12 OFFCURVE",
"618 0 OFFCURVE",
"661 0 CURVE SMOOTH",
"765 0 LINE SMOOTH",
"790 0 OFFCURVE",
"805 7 OFFCURVE",
"805 38 CURVE SMOOTH",
"805 120 LINE",
"726 120 LINE SMOOTH",
"685 120 OFFCURVE",
"676 136 OFFCURVE",
"676 178 CURVE SMOOTH",
"676 225 LINE SMOOTH",
"676 297 OFFCURVE",
"647 331 OFFCURVE",
"625 346 CURVE",
"625 351 LINE",
"650 355 OFFCURVE",
"695 371 OFFCURVE",
"710 382 CURVE",
"673 491 LINE",
"647 475 OFFCURVE",
"555 453 OFFCURVE",
"462 453 CURVE SMOOTH",
"384 453 OFFCURVE",
"335 464 OFFCURVE",
"318 471 CURVE",
"299 348 LINE",
"311 343 OFFCURVE",
"363 333 OFFCURVE",
"416 328 CURVE SMOOTH",
"474 323 OFFCURVE",
"520 302 OFFCURVE",
"520 225 CURVE SMOOTH",
"520 154 OFFCURVE",
"474 115 OFFCURVE",
"384 115 CURVE SMOOTH",
"292 115 OFFCURVE",
"241 154 OFFCURVE",
"241 277 CURVE SMOOTH",
"241 531 LINE SMOOTH",
"241 573 OFFCURVE",
"250 589 OFFCURVE",
"290 589 CURVE SMOOTH",
"568 589 LINE",
"572 594 LINE",
"500 714 LINE",
"202 714 LINE SMOOTH",
"108 714 OFFCURVE",
"90 682 OFFCURVE",
"90 596 CURVE SMOOTH",
"90 277 LINE SMOOTH",
"90 72 OFFCURVE",
"170 -10 OFFCURVE",
"384 -10 CURVE SMOOTH"
);
}
);
vertWidth = 0;
width = 765;
}
);
},
{
glyphname = "Alif-adlam.init";
production = u1E900.init;
layers = (
{
anchors = (
{
name = gemconsonanttop;
position = "{365, 663}";
},
{
name = top;
position = "{351, 663}";
},
{
name = topAlif;
position = "{320, 745}";
}
);
layerId = "B0FCDF77-85CD-41D2-A2A0-D0893F1A1A59";
paths = (
{
closed = 1;
nodes = (
"541 -10 OFFCURVE",
"640 89 OFFCURVE",
"640 213 CURVE SMOOTH",
"640 311 OFFCURVE",
"591 352 OFFCURVE",
"566 366 CURVE",
"566 370 LINE",
"584 373 OFFCURVE",
"623 385 OFFCURVE",
"640 398 CURVE",
"613 471 LINE",
"591 458 OFFCURVE",
"519 433 OFFCURVE",
"434 433 CURVE SMOOTH",
"371 433 OFFCURVE",
"322 442 OFFCURVE",
"299 453 CURVE",
"278 376 LINE",
"297 366 OFFCURVE",
"352 358 OFFCURVE",
"418 352 CURVE SMOOTH",
"496 345 OFFCURVE",
"547 306 OFFCURVE",
"547 213 CURVE SMOOTH",
"547 119 OFFCURVE",
"471 69 OFFCURVE",
"360 69 CURVE SMOOTH",
"253 69 OFFCURVE",
"200 108 OFFCURVE",
"200 249 CURVE SMOOTH",
"200 577 LINE SMOOTH",
"200 619 OFFCURVE",
"209 635 OFFCURVE",
"249 635 CURVE SMOOTH",
"540 635 LINE",
"543 639 LINE",
"497 714 LINE",
"222 714 LINE SMOOTH",
"128 714 OFFCURVE",
"110 682 OFFCURVE",
"110 596 CURVE SMOOTH",
"110 132 LINE SMOOTH",
"110 90 OFFCURVE",
"101 74 OFFCURVE",
"60 74 CURVE SMOOTH",
"-40 74 LINE",
"-40 48 LINE SMOOTH",
"-40 12 OFFCURVE",
"-30 0 OFFCURVE",
"0 0 CURVE SMOOTH",
"81 0 LINE SMOOTH",
"135 0 OFFCURVE",
"163 18 OFFCURVE",
"172 37 CURVE",
"178 37 LINE",
"217 7 OFFCURVE",
"266 -10 OFFCURVE",
"358 -10 CURVE SMOOTH"
);
}
);
vertWidth = 0;
width = 715;
},
{
anchors = (
{
name = gemconsonanttop;
position = "{405, 663}";
},
{
name = top;
position = "{391, 663}";
},
{
name = topAlif;
position = "{345, 739}";
}
);
layerId = "6CB8ADAF-854D-4ED0-880B-EED1FC4797A7";
paths = (
{
closed = 1;
nodes = (
"602 -10 OFFCURVE",
"676 102 OFFCURVE",
"676 225 CURVE SMOOTH",
"676 297 OFFCURVE",
"647 331 OFFCURVE",
"625 346 CURVE",
"625 351 LINE",
"650 355 OFFCURVE",
"695 371 OFFCURVE",
"710 382 CURVE",
"673 491 LINE",
"647 475 OFFCURVE",
"555 453 OFFCURVE",
"462 453 CURVE SMOOTH",
"384 453 OFFCURVE",
"335 464 OFFCURVE",
"318 471 CURVE",
"299 348 LINE",
"311 343 OFFCURVE",
"363 333 OFFCURVE",
"416 328 CURVE SMOOTH",
"474 323 OFFCURVE",
"520 302 OFFCURVE",
"520 225 CURVE SMOOTH",
"520 154 OFFCURVE",
"474 115 OFFCURVE",
"384 115 CURVE SMOOTH",
"292 115 OFFCURVE",
"241 154 OFFCURVE",
"241 277 CURVE SMOOTH",
"241 531 LINE SMOOTH",
"241 573 OFFCURVE",
"250 589 OFFCURVE",
"290 589 CURVE SMOOTH",
"568 589 LINE",
"572 594 LINE",
"500 714 LINE",
"202 714 LINE SMOOTH",
"108 714 OFFCURVE",
"90 682 OFFCURVE",
"90 596 CURVE SMOOTH",
"90 178 LINE SMOOTH",
"90 136 OFFCURVE",
"81 120 OFFCURVE",
"40 120 CURVE SMOOTH",
"-40 120 LINE",
"-40 38 LINE SMOOTH",
"-40 7 OFFCURVE",
"-25 0 OFFCURVE",
"0 0 CURVE SMOOTH",
"92 0 LINE SMOOTH",
"140 0 OFFCURVE",
"162 12 OFFCURVE",
"169 40 CURVE",
"175 40 LINE",
"218 9 OFFCURVE",
"284 -10 OFFCURVE",
"384 -10 CURVE SMOOTH"
);
}
);
vertWidth = 0;
width = 765;
}
);
},
{
export = 0;
glyphname = "Alif-adlam.isol";
production = u1E900.isol;
layers = (
{
anchors = (
{
name = gemconsonanttop;
position = "{365, 663}";
},
{
name = top;
position = "{351, 663}";
},
{
name = topAlif;
position = "{320, 745}";
}
);
layerId = "B0FCDF77-85CD-41D2-A2A0-D0893F1A1A59";
paths = (
{
closed = 1;
nodes = (
"541 -10 OFFCURVE",
"640 89 OFFCURVE",
"640 213 CURVE SMOOTH",
"640 311 OFFCURVE",
"591 352 OFFCURVE",
"566 366 CURVE",
"566 370 LINE",
"584 373 OFFCURVE",
"623 385 OFFCURVE",
"640 398 CURVE",
"613 471 LINE",
"591 458 OFFCURVE",
"519 433 OFFCURVE",
"434 433 CURVE SMOOTH",
"371 433 OFFCURVE",
"322 442 OFFCURVE",
"299 453 CURVE",
"278 376 LINE",
"297 366 OFFCURVE",
"352 358 OFFCURVE",
"418 352 CURVE SMOOTH",
"496 345 OFFCURVE",
"547 306 OFFCURVE",
"547 213 CURVE SMOOTH",
"547 119 OFFCURVE",
"471 69 OFFCURVE",
"360 69 CURVE SMOOTH",
"253 69 OFFCURVE",
"200 108 OFFCURVE",
"200 249 CURVE SMOOTH",
"200 577 LINE SMOOTH",
"200 619 OFFCURVE",
"209 635 OFFCURVE",
"249 635 CURVE SMOOTH",
"540 635 LINE",
"543 639 LINE",
"497 714 LINE",
"222 714 LINE SMOOTH",
"128 714 OFFCURVE",
"110 682 OFFCURVE",
"110 596 CURVE SMOOTH",
"110 249 LINE SMOOTH",
"110 56 OFFCURVE",
"180 -10 OFFCURVE",
"358 -10 CURVE SMOOTH"
);
}
);
vertWidth = 0;
width = 715;
},
{
anchors = (
{
name = gemconsonanttop;
position = "{405, 663}";
},
{
name = top;
position = "{391, 663}";
},
{
name = topAlif;
position = "{345, 739}";
}
);
layerId = "6CB8ADAF-854D-4ED0-880B-EED1FC4797A7";
paths = (
{
closed = 1;
nodes = (
"602 -10 OFFCURVE",
"676 102 OFFCURVE",
"676 225 CURVE SMOOTH",
"676 297 OFFCURVE",
"647 331 OFFCURVE",
"625 346 CURVE",
"625 351 LINE",
"650 355 OFFCURVE",
"695 371 OFFCURVE",
"710 382 CURVE",
"673 491 LINE",
"647 475 OFFCURVE",
"555 453 OFFCURVE",
"462 453 CURVE SMOOTH",
"384 453 OFFCURVE",
"335 464 OFFCURVE",
"318 471 CURVE",
"299 348 LINE",
"311 343 OFFCURVE",
"363 333 OFFCURVE",
"416 328 CURVE SMOOTH",
"474 323 OFFCURVE",
"520 302 OFFCURVE",
"520 225 CURVE SMOOTH",
"520 154 OFFCURVE",
"474 115 OFFCURVE",
"384 115 CURVE SMOOTH",
"292 115 OFFCURVE",
"241 154 OFFCURVE",
"241 277 CURVE SMOOTH",
"241 531 LINE SMOOTH",
"241 573 OFFCURVE",
"250 589 OFFCURVE",
"290 589 CURVE SMOOTH",
"568 589 LINE",
"572 594 LINE",
"500 714 LINE",
"202 714 LINE SMOOTH",
"108 714 OFFCURVE",
"90 682 OFFCURVE",
"90 596 CURVE SMOOTH",
"90 277 LINE SMOOTH",
"90 72 OFFCURVE",
"170 -10 OFFCURVE",
"384 -10 CURVE SMOOTH"
);
}
);
vertWidth = 0;
width = 765;
}
);
},
{
glyphname = "Alif-adlam.medi";
production = u1E900.medi;
layers = (
{
anchors = (
{
name = gemconsonanttop;
position = "{365, 663}";
},
{
name = top;
position = "{351, 663}";
},
{
name = topAlif;
position = "{320, 745}";
}
);
layerId = "B0FCDF77-85CD-41D2-A2A0-D0893F1A1A59";
paths = (
{
closed = 1;
nodes = (
"444 -10 OFFCURVE",
"511 12 OFFCURVE",
"559 48 CURVE",
"565 48 LINE",
"576 12 OFFCURVE",
"603 0 OFFCURVE",
"663 0 CURVE SMOOTH",
"714 0 LINE SMOOTH",
"744 0 OFFCURVE",
"754 12 OFFCURVE",
"754 48 CURVE SMOOTH",
"754 74 LINE",
"690 74 LINE SMOOTH",
"649 74 OFFCURVE",
"640 90 OFFCURVE",
"640 132 CURVE SMOOTH",
"640 219 LINE",
"638 313 OFFCURVE",
"590 352 OFFCURVE",
"566 366 CURVE",
"566 370 LINE",
"584 373 OFFCURVE",
"623 385 OFFCURVE",
"640 398 CURVE",
"613 471 LINE",
"591 458 OFFCURVE",
"519 433 OFFCURVE",
"434 433 CURVE SMOOTH",
"371 433 OFFCURVE",
"322 442 OFFCURVE",
"299 453 CURVE",
"278 376 LINE",
"297 366 OFFCURVE",
"352 358 OFFCURVE",
"418 352 CURVE SMOOTH",
"496 345 OFFCURVE",
"547 306 OFFCURVE",
"547 213 CURVE SMOOTH",
"547 119 OFFCURVE",
"471 69 OFFCURVE",
"360 69 CURVE SMOOTH",
"253 69 OFFCURVE",
"200 108 OFFCURVE",
"200 249 CURVE SMOOTH",
"200 577 LINE SMOOTH",
"200 619 OFFCURVE",
"209 635 OFFCURVE",
"249 635 CURVE SMOOTH",
"540 635 LINE",
"543 639 LINE",
"497 714 LINE",
"222 714 LINE SMOOTH",
"128 714 OFFCURVE",
"110 682 OFFCURVE",
"110 596 CURVE SMOOTH",
"110 132 LINE SMOOTH",
"110 90 OFFCURVE",
"101 74 OFFCURVE",
"60 74 CURVE SMOOTH",
"-40 74 LINE",
"-40 48 LINE SMOOTH",
"-40 12 OFFCURVE",
"-30 0 OFFCURVE",
"0 0 CURVE SMOOTH",
"81 0 LINE SMOOTH",
"135 0 OFFCURVE",
"163 18 OFFCURVE",
"172 37 CURVE",
"178 37 LINE",
"217 7 OFFCURVE",
"266 -10 OFFCURVE",
"358 -10 CURVE SMOOTH"
);
}
);
vertWidth = 0;
width = 714;
},
{
anchors = (
{
name = gemconsonanttop;
position = "{405, 663}";
},
{
name = top;
position = "{391, 663}";
},
{
name = topAlif;
position = "{345, 739}";
}
);
layerId = "6CB8ADAF-854D-4ED0-880B-EED1FC4797A7";
paths = (
{
closed = 1;
nodes = (
"496 -10 OFFCURVE",
"556 20 OFFCURVE",
"585 40 CURVE",
"591 40 LINE",
"598 12 OFFCURVE",
"618 0 OFFCURVE",
"661 0 CURVE SMOOTH",
"765 0 LINE SMOOTH",
"790 0 OFFCURVE",
"805 7 OFFCURVE",
"805 38 CURVE SMOOTH",
"805 120 LINE",
"726 120 LINE SMOOTH",
"685 120 OFFCURVE",
"676 136 OFFCURVE",
"676 178 CURVE SMOOTH",
"676 225 LINE SMOOTH",
"676 297 OFFCURVE",
"647 331 OFFCURVE",
"625 346 CURVE",
"625 351 LINE",
"650 355 OFFCURVE",
"695 371 OFFCURVE",
"710 382 CURVE",
"673 491 LINE",
"647 475 OFFCURVE",
"555 453 OFFCURVE",
"462 453 CURVE SMOOTH",
"384 453 OFFCURVE",
"335 464 OFFCURVE",
"318 471 CURVE",
"299 348 LINE",
"311 343 OFFCURVE",
"363 333 OFFCURVE",
"416 328 CURVE SMOOTH",
"474 323 OFFCURVE",
"520 302 OFFCURVE",
"520 225 CURVE SMOOTH",
"520 154 OFFCURVE",
"474 115 OFFCURVE",
"384 115 CURVE SMOOTH",
"292 115 OFFCURVE",
"241 154 OFFCURVE",
"241 277 CURVE SMOOTH",
"241 531 LINE SMOOTH",
"241 573 OFFCURVE",
"250 589 OFFCURVE",
"290 589 CURVE SMOOTH",
"568 589 LINE",
"572 594 LINE",
"500 714 LINE",
"202 714 LINE SMOOTH",
"108 714 OFFCURVE",
"90 682 OFFCURVE",
"90 596 CURVE SMOOTH",
"90 178 LINE SMOOTH",
"90 136 OFFCURVE",
"81 120 OFFCURVE",
"40 120 CURVE SMOOTH",
"-40 120 LINE",
"-40 38 LINE SMOOTH",
"-40 7 OFFCURVE",
"-25 0 OFFCURVE",
"0 0 CURVE SMOOTH",
"92 0 LINE SMOOTH",
"140 0 OFFCURVE",
"162 12 OFFCURVE",
"169 40 CURVE",
"175 40 LINE",
"218 9 OFFCURVE",
"284 -10 OFFCURVE",
"384 -10 CURVE SMOOTH"
);
}
);
vertWidth = 0;
width = 765;
}
);
},
{
glyphname = "Ba-adlam";
production = u1E904;
layers = (
{
anchors = (
{
name = top;
position = "{375, 663}";
}
);
layerId = "B0FCDF77-85CD-41D2-A2A0-D0893F1A1A59";
paths = (
{
closed = 1;
nodes = (
"200 0 LINE",
"200 272 LINE",
"230 262 OFFCURVE",
"308 253 OFFCURVE",
"351 253 CURVE",
"351 118 LINE SMOOTH",
"351 32 OFFCURVE",
"369 0 OFFCURVE",
"464 0 CURVE SMOOTH",
"713 0 LINE",
"713 79 LINE",
"491 79 LINE SMOOTH",
"450 79 OFFCURVE",
"441 95 OFFCURVE",
"441 137 CURVE SMOOTH",
"441 253 LINE",
"625 267 OFFCURVE",
"718 355 OFFCURVE",
"718 512 CURVE SMOOTH",
"718 665 OFFCURVE",
"629 724 OFFCURVE",
"501 724 CURVE SMOOTH",
"425 724 OFFCURVE",
"371 707 OFFCURVE",
"351 694 CURVE",
"351 332 LINE",
"305 333 OFFCURVE",
"227 346 OFFCURVE",
"200 357 CURVE",
"200 714 LINE",
"110 714 LINE",
"110 0 LINE"
);
},
{
closed = 1;
nodes = (
"441 636 LINE",
"451 641 OFFCURVE",
"473 645 OFFCURVE",
"501 645 CURVE SMOOTH",
"568 645 OFFCURVE",
"625 608 OFFCURVE",
"625 506 CURVE SMOOTH",
"625 393 OFFCURVE",
"563 343 OFFCURVE",
"441 332 CURVE"
);
}
);
vertWidth = 0;
width = 768;
},
{
anchors = (
{
name = top;
position = "{416, 663}";
}
);
layerId = "6CB8ADAF-854D-4ED0-880B-EED1FC4797A7";
paths = (
{
closed = 1;
nodes = (
"241 0 LINE",
"241 259 LINE",
"264 251 OFFCURVE",
"318 242 OFFCURVE",
"357 240 CURVE",
"357 118 LINE SMOOTH",
"357 32 OFFCURVE",
"375 0 OFFCURVE",
"470 0 CURVE SMOOTH",
"754 0 LINE",
"754 125 LINE",
"557 125 LINE SMOOTH",
"517 125 OFFCURVE",
"508 141 OFFCURVE",
"508 183 CURVE SMOOTH",
"508 240 LINE",
"707 253 OFFCURVE",
"795 349 OFFCURVE",
"795 501 CURVE SMOOTH",
"795 654 OFFCURVE",
"702 724 OFFCURVE",
"542 724 CURVE SMOOTH",
"444 724 OFFCURVE",
"377 707 OFFCURVE",
"357 694 CURVE",
"357 365 LINE",
"321 368 OFFCURVE",
"265 379 OFFCURVE",
"241 389 CURVE",
"241 714 LINE",
"90 714 LINE",
"90 0 LINE"
);
},
{
closed = 1;
nodes = (
"508 594 LINE",
"515 597 OFFCURVE",
"526 599 OFFCURVE",
"542 599 CURVE SMOOTH",
"591 599 OFFCURVE",
"639 571 OFFCURVE",
"639 490 CURVE SMOOTH",
"639 411 OFFCURVE",
"603 372 OFFCURVE",
"508 365 CURVE"
);
}
);
vertWidth = 0;
width = 840;
}
);
unicode = 1E904;
},
{
glyphname = "Ba-adlam.fina";
production = u1E904.fina;
layers = (
{
anchors = (
{
name = top;
position = "{375, 663}";
}
);
layerId = "B0FCDF77-85CD-41D2-A2A0-D0893F1A1A59";
paths = (
{
closed = 1;
nodes = (
"200 0 LINE",
"200 272 LINE",
"230 262 OFFCURVE",
"308 253 OFFCURVE",
"351 253 CURVE",
"351 118 LINE SMOOTH",
"351 32 OFFCURVE",
"369 0 OFFCURVE",
"464 0 CURVE SMOOTH",
"768 0 LINE SMOOTH",
"798 0 OFFCURVE",
"808 12 OFFCURVE",
"808 48 CURVE SMOOTH",
"808 74 LINE",
"491 74 LINE SMOOTH",
"450 74 OFFCURVE",
"441 90 OFFCURVE",
"441 132 CURVE SMOOTH",
"441 253 LINE",
"625 267 OFFCURVE",
"718 355 OFFCURVE",
"718 512 CURVE SMOOTH",
"718 665 OFFCURVE",
"629 724 OFFCURVE",
"501 724 CURVE SMOOTH",
"425 724 OFFCURVE",
"371 707 OFFCURVE",
"351 694 CURVE",
"351 332 LINE",
"305 333 OFFCURVE",
"227 346 OFFCURVE",
"200 357 CURVE",
"200 714 LINE",
"110 714 LINE",
"110 0 LINE"
);
},
{
closed = 1;
nodes = (
"441 636 LINE",
"451 641 OFFCURVE",
"473 645 OFFCURVE",
"501 645 CURVE SMOOTH",
"568 645 OFFCURVE",
"625 608 OFFCURVE",
"625 506 CURVE SMOOTH",
"625 393 OFFCURVE",
"563 343 OFFCURVE",
"441 332 CURVE"
);
}
);
vertWidth = 0;
width = 768;
},
{
anchors = (
{
name = top;
position = "{416, 663}";
}
);
layerId = "6CB8ADAF-854D-4ED0-880B-EED1FC4797A7";
paths = (
{
closed = 1;
nodes = (
"241 0 LINE",
"241 259 LINE",
"264 251 OFFCURVE",
"318 242 OFFCURVE",
"357 240 CURVE",
"357 118 LINE SMOOTH",
"357 32 OFFCURVE",
"375 0 OFFCURVE",
"470 0 CURVE SMOOTH",
"840 0 LINE SMOOTH",
"865 0 OFFCURVE",
"880 7 OFFCURVE",
"880 38 CURVE SMOOTH",
"880 120 LINE",
"557 120 LINE SMOOTH",
"517 120 OFFCURVE",
"508 136 OFFCURVE",
"508 178 CURVE SMOOTH",
"508 240 LINE",
"707 253 OFFCURVE",
"795 349 OFFCURVE",
"795 501 CURVE SMOOTH",
"795 654 OFFCURVE",
"702 724 OFFCURVE",
"542 724 CURVE SMOOTH",
"444 724 OFFCURVE",
"377 707 OFFCURVE",
"357 694 CURVE",
"357 365 LINE",
"321 368 OFFCURVE",
"265 379 OFFCURVE",
"241 389 CURVE",
"241 714 LINE",
"90 714 LINE",
"90 0 LINE"
);
},
{
closed = 1;
nodes = (
"508 594 LINE",
"515 597 OFFCURVE",
"526 599 OFFCURVE",
"542 599 CURVE SMOOTH",
"591 599 OFFCURVE",
"639 571 OFFCURVE",
"639 490 CURVE SMOOTH",
"639 411 OFFCURVE",
"603 372 OFFCURVE",
"508 365 CURVE"
);
}
);
vertWidth = 0;
width = 840;
}
);
},
{
glyphname = "Ba-adlam.init";
production = u1E904.init;
layers = (
{
anchors = (
{
name = top;
position = "{375, 663}";
}
);
layerId = "B0FCDF77-85CD-41D2-A2A0-D0893F1A1A59";
paths = (
{
closed = 1;
nodes = (
"87 0 LINE SMOOTH",
"182 0 OFFCURVE",
"200 32 OFFCURVE",
"200 118 CURVE SMOOTH",
"200 272 LINE",
"230 262 OFFCURVE",
"308 253 OFFCURVE",
"351 253 CURVE",
"351 118 LINE SMOOTH",
"351 32 OFFCURVE",
"369 0 OFFCURVE",
"464 0 CURVE SMOOTH",
"713 0 LINE",
"713 74 LINE",
"491 74 LINE SMOOTH",
"450 74 OFFCURVE",
"441 90 OFFCURVE",
"441 132 CURVE SMOOTH",
"441 253 LINE",
"625 267 OFFCURVE",
"718 355 OFFCURVE",
"718 512 CURVE SMOOTH",
"718 665 OFFCURVE",
"629 724 OFFCURVE",
"501 724 CURVE SMOOTH",
"425 724 OFFCURVE",
"371 707 OFFCURVE",
"351 694 CURVE",
"351 332 LINE",
"305 333 OFFCURVE",
"227 346 OFFCURVE",
"200 357 CURVE",
"200 714 LINE",
"110 714 LINE",
"110 132 LINE SMOOTH",
"110 90 OFFCURVE",
"101 74 OFFCURVE",
"60 74 CURVE SMOOTH",
"-40 74 LINE",
"-40 48 LINE SMOOTH",
"-40 12 OFFCURVE",
"-30 0 OFFCURVE",
"0 0 CURVE SMOOTH"
);
},
{
closed = 1;
nodes = (
"441 636 LINE",
"451 641 OFFCURVE",
"473 645 OFFCURVE",
"501 645 CURVE SMOOTH",
"568 645 OFFCURVE",
"625 608 OFFCURVE",
"625 506 CURVE SMOOTH",
"625 393 OFFCURVE",
"563 343 OFFCURVE",
"441 332 CURVE"
);
}
);
vertWidth = 0;
width = 768;
},
{
anchors = (
{
name = top;
position = "{416, 663}";
}
);
background = {
anchors = (
{
name = top;
position = "{416, 663}";
}
);
};
layerId = "6CB8ADAF-854D-4ED0-880B-EED1FC4797A7";
paths = (
{
closed = 1;
nodes = (
"127 0 LINE SMOOTH",
"222 0 OFFCURVE",
"241 32 OFFCURVE",
"241 118 CURVE SMOOTH",
"241 259 LINE",
"264 251 OFFCURVE",
"318 242 OFFCURVE",
"357 240 CURVE",
"357 118 LINE SMOOTH",
"357 32 OFFCURVE",
"375 0 OFFCURVE",
"470 0 CURVE SMOOTH",
"754 0 LINE",
"754 120 LINE",
"557 120 LINE SMOOTH",
"517 120 OFFCURVE",
"508 136 OFFCURVE",
"508 178 CURVE SMOOTH",
"508 240 LINE",
"707 253 OFFCURVE",
"795 349 OFFCURVE",
"795 501 CURVE SMOOTH",
"795 654 OFFCURVE",
"702 724 OFFCURVE",
"542 724 CURVE SMOOTH",
"444 724 OFFCURVE",
"377 707 OFFCURVE",
"357 694 CURVE",
"357 365 LINE",
"321 368 OFFCURVE",
"265 379 OFFCURVE",
"241 389 CURVE",
"241 714 LINE",
"90 714 LINE",
"90 178 LINE SMOOTH",
"90 136 OFFCURVE",
"81 120 OFFCURVE",
"40 120 CURVE SMOOTH",
"-40 120 LINE",
"-40 38 LINE SMOOTH",
"-40 7 OFFCURVE",
"-25 0 OFFCURVE",
"0 0 CURVE SMOOTH"
);
},
{
closed = 1;
nodes = (
"508 594 LINE",
"515 597 OFFCURVE",
"526 599 OFFCURVE",
"542 599 CURVE SMOOTH",
"591 599 OFFCURVE",
"639 571 OFFCURVE",
"639 490 CURVE SMOOTH",
"639 411 OFFCURVE",
"603 372 OFFCURVE",
"508 365 CURVE"
);
}
);
vertWidth = 0;
width = 840;
}
);
},
{
export = 0;
glyphname = "Ba-adlam.isol";
production = u1E904.isol;
layers = (
{
anchors = (
{
name = top;
position = "{375, 663}";
}
);
layerId = "B0FCDF77-85CD-41D2-A2A0-D0893F1A1A59";
paths = (
{
closed = 1;
nodes = (
"200 0 LINE",
"200 272 LINE",
"230 262 OFFCURVE",
"308 253 OFFCURVE",
"351 253 CURVE",
"351 118 LINE SMOOTH",
"351 32 OFFCURVE",
"369 0 OFFCURVE",
"464 0 CURVE SMOOTH",
"713 0 LINE",
"713 79 LINE",
"491 79 LINE SMOOTH",
"450 79 OFFCURVE",
"441 95 OFFCURVE",
"441 137 CURVE SMOOTH",
"441 253 LINE",
"625 267 OFFCURVE",
"718 355 OFFCURVE",
"718 512 CURVE SMOOTH",
"718 665 OFFCURVE",
"629 724 OFFCURVE",
"501 724 CURVE SMOOTH",
"425 724 OFFCURVE",
"371 707 OFFCURVE",
"351 694 CURVE",
"351 332 LINE",
"305 333 OFFCURVE",
"227 346 OFFCURVE",
"200 357 CURVE",
"200 714 LINE",
"110 714 LINE",
"110 0 LINE"
);
},
{
closed = 1;
nodes = (
"441 636 LINE",
"451 641 OFFCURVE",
"473 645 OFFCURVE",
"501 645 CURVE SMOOTH",
"568 645 OFFCURVE",
"625 608 OFFCURVE",
"625 506 CURVE SMOOTH",
"625 393 OFFCURVE",
"563 343 OFFCURVE",
"441 332 CURVE"
);
}
);
vertWidth = 0;
width = 768;
},
{
anchors = (
{
name = top;
position = "{416, 663}";
}
);
layerId = "6CB8ADAF-854D-4ED0-880B-EED1FC4797A7";
paths = (
{
closed = 1;
nodes = (
"241 0 LINE",
"241 259 LINE",
"264 251 OFFCURVE",
"318 242 OFFCURVE",
"357 240 CURVE",
"357 118 LINE SMOOTH",
"357 32 OFFCURVE",
"375 0 OFFCURVE",
"470 0 CURVE SMOOTH",
"754 0 LINE",
"754 125 LINE",
"557 125 LINE SMOOTH",
"517 125 OFFCURVE",
"508 141 OFFCURVE",
"508 183 CURVE SMOOTH",
"508 240 LINE",
"707 253 OFFCURVE",
"795 349 OFFCURVE",
"795 501 CURVE SMOOTH",
"795 654 OFFCURVE",
"702 724 OFFCURVE",
"542 724 CURVE SMOOTH",
"444 724 OFFCURVE",
"377 707 OFFCURVE",
"357 694 CURVE",
"357 365 LINE",
"321 368 OFFCURVE",
"265 379 OFFCURVE",
"241 389 CURVE",
"241 714 LINE",
"90 714 LINE",
"90 0 LINE"
);
},
{
closed = 1;
nodes = (
"508 594 LINE",
"515 597 OFFCURVE",
"526 599 OFFCURVE",
"542 599 CURVE SMOOTH",
"591 599 OFFCURVE",
"639 571 OFFCURVE",
"639 490 CURVE SMOOTH",
"639 411 OFFCURVE",
"603 372 OFFCURVE",
"508 365 CURVE"
);
}
);
vertWidth = 0;
width = 840;
}
);
},
{
glyphname = "Ba-adlam.medi";
production = u1E904.medi;
layers = (
{
anchors = (
{
name = top;
position = "{375, 663}";
}
);
layerId = "B0FCDF77-85CD-41D2-A2A0-D0893F1A1A59";
paths = (
{
closed = 1;
nodes = (
"87 0 LINE SMOOTH",
"182 0 OFFCURVE",
"200 32 OFFCURVE",
"200 118 CURVE SMOOTH",
"200 272 LINE",
"230 262 OFFCURVE",
"308 253 OFFCURVE",
"351 253 CURVE",
"351 118 LINE SMOOTH",
"351 32 OFFCURVE",
"369 0 OFFCURVE",
"464 0 CURVE SMOOTH",
"768 0 LINE SMOOTH",
"798 0 OFFCURVE",
"808 12 OFFCURVE",
"808 48 CURVE SMOOTH",
"808 74 LINE",
"491 74 LINE SMOOTH",
"450 74 OFFCURVE",
"441 90 OFFCURVE",
"441 132 CURVE SMOOTH",
"441 253 LINE",
"625 267 OFFCURVE",
"718 355 OFFCURVE",
"718 512 CURVE SMOOTH",
"718 665 OFFCURVE",
"629 724 OFFCURVE",
"501 724 CURVE SMOOTH",
"425 724 OFFCURVE",
"371 707 OFFCURVE",
"351 694 CURVE",
"351 332 LINE",
"305 333 OFFCURVE",
"227 346 OFFCURVE",
"200 357 CURVE",
"200 714 LINE",
"110 714 LINE",
"110 132 LINE SMOOTH",
"110 90 OFFCURVE",
"101 74 OFFCURVE",
"60 74 CURVE SMOOTH",
"-40 74 LINE",
"-40 48 LINE SMOOTH",
"-40 12 OFFCURVE",
"-30 0 OFFCURVE",
"0 0 CURVE SMOOTH"
);
},
{
closed = 1;
nodes = (
"441 636 LINE",
"451 641 OFFCURVE",
"473 645 OFFCURVE",
"501 645 CURVE SMOOTH",
"568 645 OFFCURVE",
"625 608 OFFCURVE",
"625 506 CURVE SMOOTH",
"625 393 OFFCURVE",
"563 343 OFFCURVE",
"441 332 CURVE"
);
}
);
vertWidth = 0;
width = 768;
},
{
anchors = (
{
name = top;
position = "{416, 663}";
}
);
layerId = "6CB8ADAF-854D-4ED0-880B-EED1FC4797A7";
paths = (
{
closed = 1;
nodes = (
"127 0 LINE SMOOTH",
"222 0 OFFCURVE",
"241 32 OFFCURVE",
"241 118 CURVE SMOOTH",
"241 259 LINE",
"264 251 OFFCURVE",
"318 242 OFFCURVE",
"357 240 CURVE",
"357 118 LINE SMOOTH",
"357 32 OFFCURVE",
"375 0 OFFCURVE",
"470 0 CURVE SMOOTH",
"840 0 LINE SMOOTH",
"865 0 OFFCURVE",
"880 7 OFFCURVE",
"880 38 CURVE SMOOTH",
"880 120 LINE",
"557 120 LINE SMOOTH",
"517 120 OFFCURVE",
"508 136 OFFCURVE",
"508 178 CURVE SMOOTH",
"508 240 LINE",
"707 253 OFFCURVE",
"795 349 OFFCURVE",
"795 501 CURVE SMOOTH",
"795 654 OFFCURVE",
"702 724 OFFCURVE",
"542 724 CURVE SMOOTH",
"444 724 OFFCURVE",
"377 707 OFFCURVE",
"357 694 CURVE",
"357 365 LINE",
"321 368 OFFCURVE",
"265 379 OFFCURVE",
"241 389 CURVE",
"241 714 LINE",
"90 714 LINE",
"90 178 LINE SMOOTH",
"90 136 OFFCURVE",
"81 120 OFFCURVE",
"40 120 CURVE SMOOTH",
"-40 120 LINE",
"-40 38 LINE SMOOTH",
"-40 7 OFFCURVE",
"-25 0 OFFCURVE",
"0 0 CURVE SMOOTH"
);
},
{
closed = 1;
nodes = (
"508 594 LINE",
"515 597 OFFCURVE",
"526 599 OFFCURVE",
"542 599 CURVE SMOOTH",
"591 599 OFFCURVE",
"639 571 OFFCURVE",
"639 490 CURVE SMOOTH",
"639 411 OFFCURVE",
"603 372 OFFCURVE",
"508 365 CURVE"
);
}
);
vertWidth = 0;
width = 840;
}
);
},
{
glyphname = "Bhe-adlam";
production = u1E907;
layers = (
{
anchors = (
{
name = top;
position = "{339, 663}";
}
);
layerId = "B0FCDF77-85CD-41D2-A2A0-D0893F1A1A59";
paths = (
{
closed = 1;
nodes = (
"247 0 LINE SMOOTH",
"285 0 OFFCURVE",
"301 0 OFFCURVE",
"322 9 CURVE SMOOTH",
"364 27 OFFCURVE",
"392 67 OFFCURVE",
"392 168 CURVE",
"403 196 OFFCURVE",
"443 233 OFFCURVE",
"466 244 CURVE",
"471 242 LINE",
"471 0 LINE",
"561 0 LINE",
"561 532 LINE",
"471 532 LINE",
"471 340 LINE",
"444 328 OFFCURVE",
"389 291 OFFCURVE",
"372 260 CURVE",
"369 260 LINE",
"352 304 OFFCURVE",
"319 339 OFFCURVE",
"248 386 CURVE SMOOTH",
"179 433 OFFCURVE",
"148 477 OFFCURVE",
"148 537 CURVE SMOOTH",
"148 602 OFFCURVE",
"194 635 OFFCURVE",
"294 635 CURVE SMOOTH",
"561 635 LINE",
"561 714 LINE",
"294 714 LINE SMOOTH",
"155 714 OFFCURVE",
"55 683 OFFCURVE",
"55 538 CURVE SMOOTH",
"55 446 OFFCURVE",
"100 380 OFFCURVE",
"187 324 CURVE SMOOTH",
"257 278 OFFCURVE",
"303 228 OFFCURVE",
"303 141 CURVE SMOOTH",
"303 92 OFFCURVE",
"280 79 OFFCURVE",
"239 79 CURVE SMOOTH",
"59 79 LINE",
"59 0 LINE"
);
}
);
vertWidth = 0;
width = 671;
},
{
anchors = (
{
name = top;
position = "{365, 663}";
}
);
layerId = "6CB8ADAF-854D-4ED0-880B-EED1FC4797A7";
paths = (
{
closed = 1;
nodes = (
"245 0 LINE SMOOTH",
"276 0 OFFCURVE",
"303 0 OFFCURVE",
"340 14 CURVE SMOOTH",
"385 31 OFFCURVE",
"421 81 OFFCURVE",
"421 178 CURVE",
"429 198 OFFCURVE",
"456 226 OFFCURVE",
"472 233 CURVE",
"477 231 LINE",
"477 0 LINE",
"628 0 LINE",
"628 516 LINE",
"477 516 LINE",
"477 341 LINE",
"456 333 OFFCURVE",
"418 306 OFFCURVE",
"404 281 CURVE",
"399 281 LINE",
"390 310 OFFCURVE",
"358 350 OFFCURVE",
"300 402 CURVE SMOOTH",
"246 450 OFFCURVE",
"216 477 OFFCURVE",
"216 529 CURVE SMOOTH",
"216 570 OFFCURVE",
"247 589 OFFCURVE",
"309 589 CURVE SMOOTH",
"628 589 LINE",
"628 714 LINE",
"309 714 LINE SMOOTH",
"136 714 OFFCURVE",
"60 656 OFFCURVE",
"60 527 CURVE SMOOTH",
"60 419 OFFCURVE",
"109 379 OFFCURVE",
"173 321 CURVE SMOOTH",
"250 252 OFFCURVE",
"268 229 OFFCURVE",
"268 181 CURVE SMOOTH",
"268 134 OFFCURVE",
"244 125 OFFCURVE",
"199 125 CURVE SMOOTH",
"65 125 LINE",
"65 0 LINE"
);
}
);
vertWidth = 0;
width = 718;
}
);
unicode = 1E907;
},
{
glyphname = "Bhe-adlam.fina";
production = u1E907.fina;
layers = (
{
anchors = (
{
name = top;
position = "{339, 663}";
}
);
layerId = "B0FCDF77-85CD-41D2-A2A0-D0893F1A1A59";
paths = (
{
closed = 1;
nodes = (
"247 0 LINE SMOOTH",
"285 0 OFFCURVE",
"301 0 OFFCURVE",
"322 9 CURVE SMOOTH",
"364 27 OFFCURVE",
"392 67 OFFCURVE",
"392 168 CURVE",
"403 196 OFFCURVE",
"443 233 OFFCURVE",
"466 244 CURVE",
"471 242 LINE",
"471 118 LINE SMOOTH",
"471 32 OFFCURVE",
"489 0 OFFCURVE",
"584 0 CURVE SMOOTH",
"671 0 LINE SMOOTH",
"701 0 OFFCURVE",
"711 12 OFFCURVE",
"711 48 CURVE SMOOTH",
"711 74 LINE",
"611 74 LINE SMOOTH",
"570 74 OFFCURVE",
"561 90 OFFCURVE",
"561 132 CURVE SMOOTH",
"561 532 LINE",
"471 532 LINE",
"471 340 LINE",
"444 328 OFFCURVE",
"389 291 OFFCURVE",
"372 260 CURVE",
"369 260 LINE",
"352 304 OFFCURVE",
"319 339 OFFCURVE",
"248 386 CURVE SMOOTH",
"179 433 OFFCURVE",
"148 477 OFFCURVE",
"148 537 CURVE SMOOTH",
"148 602 OFFCURVE",
"194 635 OFFCURVE",
"294 635 CURVE SMOOTH",
"561 635 LINE",
"561 714 LINE",
"294 714 LINE SMOOTH",
"155 714 OFFCURVE",
"55 683 OFFCURVE",
"55 538 CURVE SMOOTH",
"55 446 OFFCURVE",
"100 380 OFFCURVE",
"187 324 CURVE SMOOTH",
"257 278 OFFCURVE",
"303 228 OFFCURVE",
"303 141 CURVE SMOOTH",
"303 87 OFFCURVE",
"280 74 OFFCURVE",
"239 74 CURVE SMOOTH",
"59 74 LINE",
"59 0 LINE"
);
}
);
vertWidth = 0;
width = 671;
},
{
anchors = (
{
name = top;
position = "{365, 663}";
}
);
layerId = "6CB8ADAF-854D-4ED0-880B-EED1FC4797A7";
paths = (
{
closed = 1;
nodes = (
"245 0 LINE SMOOTH",
"276 0 OFFCURVE",
"303 0 OFFCURVE",
"340 14 CURVE SMOOTH",
"385 31 OFFCURVE",
"421 81 OFFCURVE",
"421 178 CURVE",
"429 198 OFFCURVE",
"456 226 OFFCURVE",
"472 233 CURVE",
"477 231 LINE",
"477 118 LINE SMOOTH",
"477 32 OFFCURVE",
"496 0 OFFCURVE",
"591 0 CURVE SMOOTH",
"718 0 LINE SMOOTH",
"743 0 OFFCURVE",
"758 7 OFFCURVE",
"758 38 CURVE SMOOTH",
"758 120 LINE",
"678 120 LINE SMOOTH",
"637 120 OFFCURVE",
"628 136 OFFCURVE",
"628 178 CURVE SMOOTH",
"628 516 LINE",
"477 516 LINE",
"477 341 LINE",
"456 333 OFFCURVE",
"418 306 OFFCURVE",
"404 281 CURVE",
"399 281 LINE",
"390 310 OFFCURVE",
"358 350 OFFCURVE",
"300 402 CURVE SMOOTH",
"246 450 OFFCURVE",
"216 477 OFFCURVE",
"216 529 CURVE SMOOTH",
"216 570 OFFCURVE",
"247 589 OFFCURVE",
"309 589 CURVE SMOOTH",
"628 589 LINE",
"628 714 LINE",
"309 714 LINE SMOOTH",
"136 714 OFFCURVE",
"60 656 OFFCURVE",
"60 527 CURVE SMOOTH",
"60 419 OFFCURVE",
"109 379 OFFCURVE",
"173 321 CURVE SMOOTH",
"250 252 OFFCURVE",
"268 229 OFFCURVE",
"268 181 CURVE SMOOTH",
"268 129 OFFCURVE",
"244 120 OFFCURVE",
"199 120 CURVE SMOOTH",
"65 120 LINE",
"65 0 LINE"
);
}
);
vertWidth = 0;
width = 718;
}
);
},
{
glyphname = "Bhe-adlam.init";
production = u1E907.init;
layers = (
{
anchors = (
{
name = top;
position = "{339, 663}";
}
);
layerId = "B0FCDF77-85CD-41D2-A2A0-D0893F1A1A59";
paths = (
{
closed = 1;
nodes = (
"247 0 LINE SMOOTH",
"285 0 OFFCURVE",
"301 0 OFFCURVE",
"322 9 CURVE SMOOTH",
"364 27 OFFCURVE",
"392 67 OFFCURVE",
"392 168 CURVE",
"403 196 OFFCURVE",
"443 233 OFFCURVE",
"466 244 CURVE",
"471 242 LINE",
"471 0 LINE",
"561 0 LINE",
"561 532 LINE",
"471 532 LINE",
"471 340 LINE",
"444 328 OFFCURVE",
"389 291 OFFCURVE",
"372 260 CURVE",
"369 260 LINE",
"352 304 OFFCURVE",
"319 339 OFFCURVE",
"248 386 CURVE SMOOTH",
"179 433 OFFCURVE",
"148 477 OFFCURVE",
"148 537 CURVE SMOOTH",
"148 602 OFFCURVE",
"194 635 OFFCURVE",
"294 635 CURVE SMOOTH",
"561 635 LINE",
"561 714 LINE",
"294 714 LINE SMOOTH",
"155 714 OFFCURVE",
"55 683 OFFCURVE",
"55 538 CURVE SMOOTH",
"55 446 OFFCURVE",
"100 380 OFFCURVE",
"187 324 CURVE SMOOTH",
"257 278 OFFCURVE",
"303 228 OFFCURVE",
"303 141 CURVE SMOOTH",
"303 87 OFFCURVE",
"280 74 OFFCURVE",
"239 74 CURVE SMOOTH",
"-40 74 LINE",
"-40 48 LINE SMOOTH",
"-40 12 OFFCURVE",
"-30 0 OFFCURVE",
"0 0 CURVE SMOOTH"
);
}
);
vertWidth = 0;
width = 671;
},
{
anchors = (
{
name = top;
position = "{365, 663}";
}
);
layerId = "6CB8ADAF-854D-4ED0-880B-EED1FC4797A7";
paths = (
{
closed = 1;
nodes = (
"245 0 LINE SMOOTH",
"276 0 OFFCURVE",
"303 0 OFFCURVE",
"340 14 CURVE SMOOTH",
"385 31 OFFCURVE",
"421 81 OFFCURVE",
"421 178 CURVE",
"429 198 OFFCURVE",
"456 226 OFFCURVE",
"472 233 CURVE",
"477 231 LINE",
"477 0 LINE",
"628 0 LINE",
"628 516 LINE",
"477 516 LINE",
"477 341 LINE",
"456 333 OFFCURVE",
"418 306 OFFCURVE",
"404 281 CURVE",
"399 281 LINE",
"390 310 OFFCURVE",
"358 350 OFFCURVE",
"300 402 CURVE SMOOTH",
"246 450 OFFCURVE",
"216 477 OFFCURVE",
"216 529 CURVE SMOOTH",
"216 570 OFFCURVE",
"247 589 OFFCURVE",
"309 589 CURVE SMOOTH",
"628 589 LINE",
"628 714 LINE",
"309 714 LINE SMOOTH",
"136 714 OFFCURVE",
"60 656 OFFCURVE",
"60 527 CURVE SMOOTH",
"60 419 OFFCURVE",
"109 379 OFFCURVE",
"173 321 CURVE SMOOTH",
"250 252 OFFCURVE",
"268 229 OFFCURVE",
"268 181 CURVE SMOOTH",
"268 129 OFFCURVE",
"244 120 OFFCURVE",
"199 120 CURVE SMOOTH",
"-40 120 LINE",
"-40 38 LINE SMOOTH",
"-40 7 OFFCURVE",
"-25 0 OFFCURVE",
"0 0 CURVE SMOOTH"
);
}
);
vertWidth = 0;
width = 718;
}
);
},
{
export = 0;
glyphname = "Bhe-adlam.isol";
production = u1E907.isol;
layers = (
{
anchors = (
{
name = top;
position = "{339, 663}";
}
);
layerId = "B0FCDF77-85CD-41D2-A2A0-D0893F1A1A59";
paths = (
{
closed = 1;
nodes = (
"247 0 LINE SMOOTH",
"285 0 OFFCURVE",
"301 0 OFFCURVE",
"322 9 CURVE SMOOTH",
"364 27 OFFCURVE",
"392 67 OFFCURVE",
"392 168 CURVE",
"403 196 OFFCURVE",
"443 233 OFFCURVE",
"466 244 CURVE",
"471 242 LINE",
"471 0 LINE",
"561 0 LINE",
"561 532 LINE",
"471 532 LINE",
"471 340 LINE",
"444 328 OFFCURVE",
"389 291 OFFCURVE",
"372 260 CURVE",
"369 260 LINE",
"352 304 OFFCURVE",
"319 339 OFFCURVE",
"248 386 CURVE SMOOTH",
"179 433 OFFCURVE",
"148 477 OFFCURVE",
"148 537 CURVE SMOOTH",
"148 602 OFFCURVE",
"194 635 OFFCURVE",
"294 635 CURVE SMOOTH",
"561 635 LINE",
"561 714 LINE",
"294 714 LINE SMOOTH",
"155 714 OFFCURVE",
"55 683 OFFCURVE",
"55 538 CURVE SMOOTH",
"55 446 OFFCURVE",
"100 380 OFFCURVE",
"187 324 CURVE SMOOTH",
"257 278 OFFCURVE",
"303 228 OFFCURVE",
"303 141 CURVE SMOOTH",
"303 92 OFFCURVE",
"280 79 OFFCURVE",
"239 79 CURVE SMOOTH",
"59 79 LINE",
"59 0 LINE"
);
}
);
vertWidth = 0;
width = 671;
},
{
anchors = (
{
name = top;
position = "{365, 663}";
}
);
layerId = "6CB8ADAF-854D-4ED0-880B-EED1FC4797A7";
paths = (
{
closed = 1;
nodes = (
"245 0 LINE SMOOTH",
"276 0 OFFCURVE",
"303 0 OFFCURVE",
"340 14 CURVE SMOOTH",
"385 31 OFFCURVE",
"421 81 OFFCURVE",
"421 178 CURVE",
"429 198 OFFCURVE",
"456 226 OFFCURVE",
"472 233 CURVE",
"477 231 LINE",
"477 0 LINE",
"628 0 LINE",
"628 516 LINE",
"477 516 LINE",
"477 341 LINE",
"456 333 OFFCURVE",
"418 306 OFFCURVE",
"404 281 CURVE",
"399 281 LINE",
"390 310 OFFCURVE",
"358 350 OFFCURVE",
"300 402 CURVE SMOOTH",
"246 450 OFFCURVE",
"216 477 OFFCURVE",
"216 529 CURVE SMOOTH",
"216 570 OFFCURVE",
"247 589 OFFCURVE",
"309 589 CURVE SMOOTH",
"628 589 LINE",
"628 714 LINE",
"309 714 LINE SMOOTH",
"136 714 OFFCURVE",
"60 656 OFFCURVE",
"60 527 CURVE SMOOTH",
"60 419 OFFCURVE",
"109 379 OFFCURVE",
"173 321 CURVE SMOOTH",
"250 252 OFFCURVE",
"268 229 OFFCURVE",
"268 181 CURVE SMOOTH",
"268 134 OFFCURVE",
"244 125 OFFCURVE",
"199 125 CURVE SMOOTH",
"65 125 LINE",
"65 0 LINE"
);
}
);
vertWidth = 0;
width = 718;
}
);
},
{
glyphname = "Bhe-adlam.medi";
production = u1E907.medi;
layers = (
{
anchors = (
{
name = top;
position = "{339, 663}";
}
);
layerId = "B0FCDF77-85CD-41D2-A2A0-D0893F1A1A59";
paths = (
{
closed = 1;
nodes = (
"247 0 LINE SMOOTH",
"285 0 OFFCURVE",
"301 0 OFFCURVE",
"322 9 CURVE SMOOTH",
"364 27 OFFCURVE",
"392 67 OFFCURVE",
"392 168 CURVE",
"403 196 OFFCURVE",
"443 233 OFFCURVE",
"466 244 CURVE",
"471 242 LINE",
"471 118 LINE SMOOTH",
"471 32 OFFCURVE",
"489 0 OFFCURVE",
"584 0 CURVE SMOOTH",
"671 0 LINE SMOOTH",
"701 0 OFFCURVE",
"711 12 OFFCURVE",
"711 48 CURVE SMOOTH",
"711 74 LINE",
"611 74 LINE SMOOTH",
"570 74 OFFCURVE",
"561 90 OFFCURVE",
"561 132 CURVE SMOOTH",
"561 532 LINE",
"471 532 LINE",
"471 340 LINE",
"444 328 OFFCURVE",
"389 291 OFFCURVE",
"372 260 CURVE",
"369 260 LINE",
"352 304 OFFCURVE",
"319 339 OFFCURVE",
"248 386 CURVE SMOOTH",
"179 433 OFFCURVE",
"148 477 OFFCURVE",
"148 537 CURVE SMOOTH",
"148 602 OFFCURVE",
"194 635 OFFCURVE",
"294 635 CURVE SMOOTH",
"561 635 LINE",
"561 714 LINE",
"294 714 LINE SMOOTH",
"155 714 OFFCURVE",
"55 683 OFFCURVE",
"55 538 CURVE SMOOTH",
"55 446 OFFCURVE",
"100 380 OFFCURVE",
"187 324 CURVE SMOOTH",
"257 278 OFFCURVE",
"303 228 OFFCURVE",
"303 141 CURVE SMOOTH",
"303 87 OFFCURVE",
"280 74 OFFCURVE",
"239 74 CURVE SMOOTH",
"-40 74 LINE",
"-40 48 LINE SMOOTH",
"-40 12 OFFCURVE",
"-30 0 OFFCURVE",
"0 0 CURVE SMOOTH"
);
}
);
vertWidth = 0;
width = 671;
},
{
anchors = (
{
name = top;
position = "{365, 663}";
}
);
layerId = "6CB8ADAF-854D-4ED0-880B-EED1FC4797A7";
paths = (
{
closed = 1;
nodes = (
"245 0 LINE SMOOTH",
"276 0 OFFCURVE",
"303 0 OFFCURVE",
"340 14 CURVE SMOOTH",
"385 31 OFFCURVE",
"421 81 OFFCURVE",
"421 178 CURVE",
"429 198 OFFCURVE",
"456 226 OFFCURVE",
"472 233 CURVE",
"477 231 LINE",
"477 118 LINE SMOOTH",
"477 32 OFFCURVE",
"496 0 OFFCURVE",
"591 0 CURVE SMOOTH",
"718 0 LINE SMOOTH",
"743 0 OFFCURVE",
"758 7 OFFCURVE",
"758 38 CURVE SMOOTH",
"758 120 LINE",
"678 120 LINE SMOOTH",
"637 120 OFFCURVE",
"628 136 OFFCURVE",
"628 178 CURVE SMOOTH",
"628 516 LINE",
"477 516 LINE",
"477 341 LINE",
"456 333 OFFCURVE",
"418 306 OFFCURVE",
"404 281 CURVE",
"399 281 LINE",
"390 310 OFFCURVE",
"358 350 OFFCURVE",
"300 402 CURVE SMOOTH",
"246 450 OFFCURVE",
"216 477 OFFCURVE",
"216 529 CURVE SMOOTH",
"216 570 OFFCURVE",
"247 589 OFFCURVE",
"309 589 CURVE SMOOTH",
"628 589 LINE",
"628 714 LINE",
"309 714 LINE SMOOTH",
"136 714 OFFCURVE",
"60 656 OFFCURVE",
"60 527 CURVE SMOOTH",
"60 419 OFFCURVE",
"109 379 OFFCURVE",
"173 321 CURVE SMOOTH",
"250 252 OFFCURVE",
"268 229 OFFCURVE",
"268 181 CURVE SMOOTH",
"268 129 OFFCURVE",
"244 120 OFFCURVE",
"199 120 CURVE SMOOTH",
"-40 120 LINE",
"-40 38 LINE SMOOTH",
"-40 7 OFFCURVE",
"-25 0 OFFCURVE",
"0 0 CURVE SMOOTH"
);
}
);
vertWidth = 0;
width = 718;
}
);
},
{
glyphname = "Chi-adlam";
production = u1E915;
layers = (
{
anchors = (
{
name = top;
position = "{362, 663}";
}
);
layerId = "B0FCDF77-85CD-41D2-A2A0-D0893F1A1A59";
paths = (
{
closed = 1;
nodes = (
"459 0 LINE",
"459 79 LINE",
"327 79 LINE SMOOTH",
"243 79 OFFCURVE",
"174 105 OFFCURVE",
"174 209 CURVE SMOOTH",
"174 336 OFFCURVE",
"250 397 OFFCURVE",
"362 397 CURVE SMOOTH",
"465 397 OFFCURVE",
"512 352 OFFCURVE",
"530 326 CURVE",
"530 0 LINE",
"620 0 LINE",
"620 597 LINE SMOOTH",
"620 683 OFFCURVE",
"602 714 OFFCURVE",
"508 714 CURVE SMOOTH",
"316 714 LINE",
"316 635 LINE",
"481 635 LINE SMOOTH",
"521 635 OFFCURVE",
"530 619 OFFCURVE",
"530 579 CURVE SMOOTH",
"530 429 LINE",
"526 427 LINE",
"508 447 OFFCURVE",
"467 466 OFFCURVE",
"359 479 CURVE SMOOTH",
"244 493 OFFCURVE",
"188 514 OFFCURVE",
"188 635 CURVE SMOOTH",
"188 743 LINE",
"98 743 LINE",
"98 636 LINE SMOOTH",
"98 489 OFFCURVE",
"155 448 OFFCURVE",
"239 437 CURVE",
"239 432 LINE",
"158 413 OFFCURVE",
"80 350 OFFCURVE",
"80 209 CURVE SMOOTH",
"80 54 OFFCURVE",
"158 0 OFFCURVE",
"326 0 CURVE SMOOTH"
);
}
);
vertWidth = 0;
width = 730;
},
{
anchors = (
{
name = top;
position = "{392, 663}";
}
);
layerId = "6CB8ADAF-854D-4ED0-880B-EED1FC4797A7";
paths = (
{
closed = 1;
nodes = (
"458 0 LINE",
"458 125 LINE",
"369 125 LINE SMOOTH",
"273 125 OFFCURVE",
"235 156 OFFCURVE",
"235 231 CURVE SMOOTH",
"235 300 OFFCURVE",
"280 354 OFFCURVE",
"386 354 CURVE SMOOTH",
"473 354 OFFCURVE",
"511 314 OFFCURVE",
"529 291 CURVE",
"529 0 LINE",
"680 0 LINE",
"680 597 LINE SMOOTH",
"680 683 OFFCURVE",
"662 714 OFFCURVE",
"568 714 CURVE SMOOTH",
"346 714 LINE",
"346 589 LINE",
"480 589 LINE SMOOTH",
"520 589 OFFCURVE",
"529 573 OFFCURVE",
"529 533 CURVE SMOOTH",
"529 438 LINE",
"525 436 LINE",
"504 454 OFFCURVE",
"481 471 OFFCURVE",
"377 483 CURVE SMOOTH",
"274 495 OFFCURVE",
"249 517 OFFCURVE",
"249 638 CURVE SMOOTH",
"249 743 LINE",
"98 743 LINE",
"98 616 LINE SMOOTH",
"98 469 OFFCURVE",
"155 428 OFFCURVE",
"239 417 CURVE",
"239 411 LINE",
"158 392 OFFCURVE",
"80 330 OFFCURVE",
"80 213 CURVE SMOOTH",
"80 52 OFFCURVE",
"170 0 OFFCURVE",
"369 0 CURVE SMOOTH"
);
}
);
vertWidth = 0;
width = 770;
}
);
unicode = 1E915;
},
{
glyphname = "Chi-adlam.fina";
production = u1E915.fina;
layers = (
{
anchors = (
{
name = top;
position = "{362, 663}";
}
);
layerId = "B0FCDF77-85CD-41D2-A2A0-D0893F1A1A59";
paths = (
{
closed = 1;
nodes = (
"459 0 LINE",
"459 74 LINE",
"327 74 LINE SMOOTH",
"243 74 OFFCURVE",
"174 105 OFFCURVE",
"174 209 CURVE SMOOTH",
"174 336 OFFCURVE",
"250 397 OFFCURVE",
"362 397 CURVE SMOOTH",
"465 397 OFFCURVE",
"512 352 OFFCURVE",
"530 326 CURVE",
"530 118 LINE SMOOTH",
"530 32 OFFCURVE",
"548 0 OFFCURVE",
"643 0 CURVE SMOOTH",
"730 0 LINE SMOOTH",
"760 0 OFFCURVE",
"770 12 OFFCURVE",
"770 48 CURVE SMOOTH",
"770 74 LINE",
"670 74 LINE SMOOTH",
"629 74 OFFCURVE",
"620 90 OFFCURVE",
"620 132 CURVE SMOOTH",
"620 597 LINE SMOOTH",
"620 683 OFFCURVE",
"602 714 OFFCURVE",
"508 714 CURVE SMOOTH",
"316 714 LINE",
"316 635 LINE",
"481 635 LINE SMOOTH",
"521 635 OFFCURVE",
"530 619 OFFCURVE",
"530 579 CURVE SMOOTH",
"530 429 LINE",
"526 427 LINE",
"508 447 OFFCURVE",
"467 466 OFFCURVE",
"359 479 CURVE SMOOTH",
"244 493 OFFCURVE",
"188 514 OFFCURVE",
"188 635 CURVE SMOOTH",
"188 743 LINE",
"98 743 LINE",
"98 636 LINE SMOOTH",
"98 489 OFFCURVE",
"155 448 OFFCURVE",
"239 437 CURVE",
"239 432 LINE",
"158 413 OFFCURVE",
"80 350 OFFCURVE",
"80 209 CURVE SMOOTH",
"80 54 OFFCURVE",
"158 0 OFFCURVE",
"326 0 CURVE SMOOTH"
);
}
);
vertWidth = 0;
width = 730;
},
{
anchors = (
{
name = top;
position = "{392, 663}";
}
);
layerId = "6CB8ADAF-854D-4ED0-880B-EED1FC4797A7";
paths = (
{
closed = 1;
nodes = (
"458 0 LINE",
"458 120 LINE",
"369 120 LINE SMOOTH",
"273 120 OFFCURVE",
"235 156 OFFCURVE",
"235 231 CURVE SMOOTH",
"235 300 OFFCURVE",
"280 354 OFFCURVE",
"386 354 CURVE SMOOTH",
"473 354 OFFCURVE",
"511 314 OFFCURVE",
"529 291 CURVE",
"529 118 LINE SMOOTH",
"529 32 OFFCURVE",
"548 0 OFFCURVE",
"643 0 CURVE SMOOTH",
"770 0 LINE SMOOTH",
"795 0 OFFCURVE",
"810 7 OFFCURVE",
"810 38 CURVE SMOOTH",
"810 120 LINE",
"730 120 LINE SMOOTH",
"689 120 OFFCURVE",
"680 136 OFFCURVE",
"680 178 CURVE SMOOTH",
"680 597 LINE SMOOTH",
"680 683 OFFCURVE",
"662 714 OFFCURVE",
"568 714 CURVE SMOOTH",
"346 714 LINE",
"346 589 LINE",
"480 589 LINE SMOOTH",
"520 589 OFFCURVE",
"529 573 OFFCURVE",
"529 533 CURVE SMOOTH",
"529 438 LINE",
"525 436 LINE",
"504 454 OFFCURVE",
"481 471 OFFCURVE",
"377 483 CURVE SMOOTH",
"274 495 OFFCURVE",
"249 517 OFFCURVE",
"249 638 CURVE SMOOTH",
"249 743 LINE",
"98 743 LINE",
"98 616 LINE SMOOTH",
"98 469 OFFCURVE",
"155 428 OFFCURVE",
"239 417 CURVE",
"239 411 LINE",
"158 392 OFFCURVE",
"80 330 OFFCURVE",
"80 213 CURVE SMOOTH",
"80 52 OFFCURVE",
"170 0 OFFCURVE",
"369 0 CURVE SMOOTH"
);
}
);
vertWidth = 0;
width = 770;
}
);
},
{
glyphname = "Chi-adlam.init";
production = u1E915.init;
layers = (
{
anchors = (
{
name = top;
position = "{362, 663}";
}
);
layerId = "B0FCDF77-85CD-41D2-A2A0-D0893F1A1A59";
paths = (
{
closed = 1;
nodes = (
"459 0 LINE",
"459 74 LINE",
"327 74 LINE SMOOTH",
"243 74 OFFCURVE",
"174 105 OFFCURVE",
"174 209 CURVE SMOOTH",
"174 336 OFFCURVE",
"250 397 OFFCURVE",
"362 397 CURVE SMOOTH",
"465 397 OFFCURVE",
"512 352 OFFCURVE",
"530 326 CURVE",
"530 0 LINE",
"620 0 LINE",
"620 597 LINE SMOOTH",
"620 683 OFFCURVE",
"602 714 OFFCURVE",
"508 714 CURVE SMOOTH",
"316 714 LINE",
"316 635 LINE",
"481 635 LINE SMOOTH",
"521 635 OFFCURVE",
"530 619 OFFCURVE",
"530 579 CURVE SMOOTH",
"530 429 LINE",
"526 427 LINE",
"508 447 OFFCURVE",
"467 466 OFFCURVE",
"359 479 CURVE SMOOTH",
"244 493 OFFCURVE",
"188 514 OFFCURVE",
"188 635 CURVE SMOOTH",
"188 743 LINE",
"98 743 LINE",
"98 636 LINE SMOOTH",
"98 489 OFFCURVE",
"155 448 OFFCURVE",
"239 437 CURVE",
"239 432 LINE",
"158 413 OFFCURVE",
"80 350 OFFCURVE",
"80 209 CURVE SMOOTH",
"80 150 OFFCURVE",
"91 106 OFFCURVE",
"114 74 CURVE",
"-40 74 LINE",
"-40 48 LINE SMOOTH",
"-40 12 OFFCURVE",
"-30 0 OFFCURVE",
"0 0 CURVE SMOOTH"
);
}
);
vertWidth = 0;
width = 730;
},
{
anchors = (
{
name = top;
position = "{392, 663}";
}
);
layerId = "6CB8ADAF-854D-4ED0-880B-EED1FC4797A7";
paths = (
{
closed = 1;
nodes = (
"458 0 LINE",
"458 120 LINE",
"369 120 LINE SMOOTH",
"273 120 OFFCURVE",
"235 156 OFFCURVE",
"235 231 CURVE SMOOTH",
"235 300 OFFCURVE",
"280 354 OFFCURVE",
"386 354 CURVE SMOOTH",
"473 354 OFFCURVE",
"511 314 OFFCURVE",
"529 291 CURVE",
"529 0 LINE",
"680 0 LINE",
"680 597 LINE SMOOTH",
"680 683 OFFCURVE",
"662 714 OFFCURVE",
"568 714 CURVE SMOOTH",
"346 714 LINE",
"346 589 LINE",
"480 589 LINE SMOOTH",
"520 589 OFFCURVE",
"529 573 OFFCURVE",
"529 533 CURVE SMOOTH",
"529 438 LINE",
"525 436 LINE",
"504 454 OFFCURVE",
"481 471 OFFCURVE",
"377 483 CURVE SMOOTH",
"274 495 OFFCURVE",
"249 517 OFFCURVE",
"249 638 CURVE SMOOTH",
"249 743 LINE",
"98 743 LINE",
"98 616 LINE SMOOTH",
"98 469 OFFCURVE",
"155 428 OFFCURVE",
"239 417 CURVE",
"239 411 LINE",
"158 392 OFFCURVE",
"80 330 OFFCURVE",
"80 213 CURVE SMOOTH",
"80 177 OFFCURVE",
"85 146 OFFCURVE",
"94 120 CURVE",
"-40 120 LINE",
"-40 38 LINE SMOOTH",
"-40 7 OFFCURVE",
"-25 0 OFFCURVE",
"0 0 CURVE SMOOTH"
);
}
);
vertWidth = 0;
width = 770;
}
);
},
{
export = 0;
glyphname = "Chi-adlam.isol";
production = u1E915.isol;
layers = (
{
anchors = (
{
name = top;
position = "{362, 663}";
}
);
layerId = "B0FCDF77-85CD-41D2-A2A0-D0893F1A1A59";
paths = (
{
closed = 1;
nodes = (
"459 0 LINE",
"459 79 LINE",
"327 79 LINE SMOOTH",
"243 79 OFFCURVE",
"174 105 OFFCURVE",
"174 209 CURVE SMOOTH",
"174 336 OFFCURVE",
"250 397 OFFCURVE",
"362 397 CURVE SMOOTH",
"465 397 OFFCURVE",
"512 352 OFFCURVE",
"530 326 CURVE",
"530 0 LINE",
"620 0 LINE",
"620 597 LINE SMOOTH",
"620 683 OFFCURVE",
"602 714 OFFCURVE",
"508 714 CURVE SMOOTH",
"316 714 LINE",
"316 635 LINE",
"481 635 LINE SMOOTH",
"521 635 OFFCURVE",
"530 619 OFFCURVE",
"530 579 CURVE SMOOTH",
"530 429 LINE",
"526 427 LINE",
"508 447 OFFCURVE",
"467 466 OFFCURVE",
"359 479 CURVE SMOOTH",
"244 493 OFFCURVE",
"188 514 OFFCURVE",
"188 635 CURVE SMOOTH",
"188 743 LINE",
"98 743 LINE",
"98 636 LINE SMOOTH",
"98 489 OFFCURVE",
"155 448 OFFCURVE",
"239 437 CURVE",
"239 432 LINE",
"158 413 OFFCURVE",
"80 350 OFFCURVE",
"80 209 CURVE SMOOTH",
"80 54 OFFCURVE",
"158 0 OFFCURVE",
"326 0 CURVE SMOOTH"
);
}
);
vertWidth = 0;
width = 730;
},
{
anchors = (
{
name = top;
position = "{392, 663}";
}
);
layerId = "6CB8ADAF-854D-4ED0-880B-EED1FC4797A7";
paths = (
{
closed = 1;
nodes = (
"458 0 LINE",
"458 125 LINE",
"369 125 LINE SMOOTH",
"273 125 OFFCURVE",
"235 156 OFFCURVE",
"235 231 CURVE SMOOTH",
"235 300 OFFCURVE",
"280 354 OFFCURVE",
"386 354 CURVE SMOOTH",
"473 354 OFFCURVE",
"511 314 OFFCURVE",
"529 291 CURVE",
"529 0 LINE",
"680 0 LINE",
"680 597 LINE SMOOTH",
"680 683 OFFCURVE",
"662 714 OFFCURVE",
"568 714 CURVE SMOOTH",
"346 714 LINE",
"346 589 LINE",
"480 589 LINE SMOOTH",
"520 589 OFFCURVE",
"529 573 OFFCURVE",
"529 533 CURVE SMOOTH",
"529 438 LINE",
"525 436 LINE",
"504 454 OFFCURVE",
"481 471 OFFCURVE",
"377 483 CURVE SMOOTH",
"274 495 OFFCURVE",
"249 517 OFFCURVE",
"249 638 CURVE SMOOTH",
"249 743 LINE",
"98 743 LINE",
"98 616 LINE SMOOTH",
"98 469 OFFCURVE",
"155 428 OFFCURVE",
"239 417 CURVE",
"239 411 LINE",
"158 392 OFFCURVE",
"80 330 OFFCURVE",
"80 213 CURVE SMOOTH",
"80 52 OFFCURVE",
"170 0 OFFCURVE",
"369 0 CURVE SMOOTH"
);
}
);
vertWidth = 0;
width = 770;
}
);
},
{
glyphname = "Chi-adlam.medi";
production = u1E915.medi;
layers = (
{
anchors = (
{
name = top;
position = "{362, 663}";
}
);
layerId = "B0FCDF77-85CD-41D2-A2A0-D0893F1A1A59";
paths = (
{
closed = 1;
nodes = (
"459 0 LINE",
"459 74 LINE",
"327 74 LINE SMOOTH",
"243 74 OFFCURVE",
"174 105 OFFCURVE",
"174 209 CURVE SMOOTH",
"174 336 OFFCURVE",
"250 397 OFFCURVE",
"362 397 CURVE SMOOTH",
"465 397 OFFCURVE",
"512 352 OFFCURVE",
"530 326 CURVE",
"530 118 LINE SMOOTH",
"530 32 OFFCURVE",
"548 0 OFFCURVE",
"643 0 CURVE SMOOTH",
"730 0 LINE SMOOTH",
"760 0 OFFCURVE",
"770 12 OFFCURVE",
"770 48 CURVE SMOOTH",
"770 74 LINE",
"670 74 LINE SMOOTH",
"629 74 OFFCURVE",
"620 90 OFFCURVE",
"620 132 CURVE SMOOTH",
"620 597 LINE SMOOTH",
"620 683 OFFCURVE",
"602 714 OFFCURVE",
"508 714 CURVE SMOOTH",
"316 714 LINE",
"316 635 LINE",
"481 635 LINE SMOOTH",
"521 635 OFFCURVE",
"530 619 OFFCURVE",
"530 579 CURVE SMOOTH",
"530 429 LINE",
"526 427 LINE",
"508 447 OFFCURVE",
"467 466 OFFCURVE",
"359 479 CURVE SMOOTH",
"244 493 OFFCURVE",
"188 514 OFFCURVE",
"188 635 CURVE SMOOTH",
"188 743 LINE",
"98 743 LINE",
"98 636 LINE SMOOTH",
"98 489 OFFCURVE",
"155 448 OFFCURVE",
"239 437 CURVE",
"239 432 LINE",
"158 413 OFFCURVE",
"80 350 OFFCURVE",
"80 209 CURVE SMOOTH",
"80 150 OFFCURVE",
"91 106 OFFCURVE",
"114 74 CURVE",
"-40 74 LINE",
"-40 48 LINE SMOOTH",
"-40 12 OFFCURVE",
"-30 0 OFFCURVE",
"0 0 CURVE SMOOTH"
);
}
);
vertWidth = 0;
width = 730;
},
{
anchors = (
{
name = top;
position = "{392, 663}";
}
);
layerId = "6CB8ADAF-854D-4ED0-880B-EED1FC4797A7";
paths = (
{
closed = 1;
nodes = (
"458 0 LINE",
"458 120 LINE",
"369 120 LINE SMOOTH",
"273 120 OFFCURVE",
"235 156 OFFCURVE",
"235 231 CURVE SMOOTH",
"235 300 OFFCURVE",
"280 354 OFFCURVE",
"386 354 CURVE SMOOTH",
"473 354 OFFCURVE",
"511 314 OFFCURVE",
"529 291 CURVE",
"529 118 LINE SMOOTH",
"529 32 OFFCURVE",
"548 0 OFFCURVE",
"643 0 CURVE SMOOTH",
"770 0 LINE SMOOTH",
"795 0 OFFCURVE",
"810 7 OFFCURVE",
"810 38 CURVE SMOOTH",
"810 120 LINE",
"730 120 LINE SMOOTH",
"689 120 OFFCURVE",
"680 136 OFFCURVE",
"680 178 CURVE SMOOTH",
"680 597 LINE SMOOTH",
"680 683 OFFCURVE",
"662 714 OFFCURVE",
"568 714 CURVE SMOOTH",
"346 714 LINE",
"346 589 LINE",
"480 589 LINE SMOOTH",
"520 589 OFFCURVE",
"529 573 OFFCURVE",
"529 533 CURVE SMOOTH",
"529 438 LINE",
"525 436 LINE",
"504 454 OFFCURVE",
"481 471 OFFCURVE",
"377 483 CURVE SMOOTH",
"274 495 OFFCURVE",
"249 517 OFFCURVE",
"249 638 CURVE SMOOTH",
"249 743 LINE",
"98 743 LINE",
"98 616 LINE SMOOTH",
"98 469 OFFCURVE",
"155 428 OFFCURVE",
"239 417 CURVE",
"239 411 LINE",
"158 392 OFFCURVE",
"80 330 OFFCURVE",
"80 213 CURVE SMOOTH",
"80 177 OFFCURVE",
"85 146 OFFCURVE",
"94 120 CURVE",
"-40 120 LINE",
"-40 38 LINE SMOOTH",
"-40 7 OFFCURVE",
"-25 0 OFFCURVE",
"0 0 CURVE SMOOTH"
);
}
);
vertWidth = 0;
width = 770;
}
);
},
{
glyphname = "Daali-adlam";
production = u1E901;
layers = (
{
anchors = (
{
name = gemconsonanttop;
position = "{309, 663}";
},
{
name = top;
position = "{304, 663}";
}
);
layerId = "B0FCDF77-85CD-41D2-A2A0-D0893F1A1A59";
paths = (
{
closed = 1;
nodes = (
"414 0 LINE SMOOTH",
"508 0 OFFCURVE",
"526 32 OFFCURVE",
"526 118 CURVE SMOOTH",
"526 714 LINE",
"436 714 LINE",
"436 304 LINE",
"433 302 LINE",
"421 313 OFFCURVE",
"387 329 OFFCURVE",
"287 350 CURVE SMOOTH",
"190 370 OFFCURVE",
"171 388 OFFCURVE",
"171 464 CURVE SMOOTH",
"171 714 LINE",
"81 714 LINE",
"81 454 LINE SMOOTH",
"81 321 OFFCURVE",
"132 296 OFFCURVE",
"257 272 CURVE SMOOTH",
"389 247 OFFCURVE",
"436 219 OFFCURVE",
"436 156 CURVE SMOOTH",
"436 137 LINE SMOOTH",
"436 95 OFFCURVE",
"427 79 OFFCURVE",
"387 79 CURVE SMOOTH",
"75 79 LINE",
"75 0 LINE"
);
}
);
vertWidth = 0;
width = 636;
},
{
anchors = (
{
name = gemconsonanttop;
position = "{319, 663}";
},
{
name = top;
position = "{315, 663}";
}
);
layerId = "6CB8ADAF-854D-4ED0-880B-EED1FC4797A7";
paths = (
{
closed = 1;
nodes = (
"456 0 LINE SMOOTH",
"550 0 OFFCURVE",
"568 32 OFFCURVE",
"568 118 CURVE SMOOTH",
"568 714 LINE",
"417 714 LINE",
"417 333 LINE",
"412 331 LINE",
"400 342 OFFCURVE",
"380 349 OFFCURVE",
"309 366 CURVE SMOOTH",
"231 385 OFFCURVE",
"212 398 OFFCURVE",
"212 483 CURVE SMOOTH",
"212 714 LINE",
"61 714 LINE",
"61 453 LINE SMOOTH",
"61 321 OFFCURVE",
"98 294 OFFCURVE",
"244 258 CURVE SMOOTH",
"406 219 OFFCURVE",
"417 204 OFFCURVE",
"417 168 CURVE SMOOTH",
"417 162 LINE SMOOTH",
"417 126 OFFCURVE",
"408 125 OFFCURVE",
"368 125 CURVE SMOOTH",
"55 125 LINE",
"55 0 LINE"
);
}
);
vertWidth = 0;
width = 658;
}
);
unicode = 1E901;
},
{
glyphname = "Daali-adlam.fina";
production = u1E901.fina;
layers = (
{
anchors = (
{
name = gemconsonanttop;
position = "{309, 663}";
},
{
name = top;
position = "{304, 663}";
}
);
layerId = "B0FCDF77-85CD-41D2-A2A0-D0893F1A1A59";
paths = (
{
closed = 1;
nodes = (
"419 0 LINE SMOOTH",
"475 0 OFFCURVE",
"494 12 OFFCURVE",
"505 37 CURVE",
"511 37 LINE",
"521 12 OFFCURVE",
"535 0 OFFCURVE",
"576 0 CURVE SMOOTH",
"636 0 LINE SMOOTH",
"666 0 OFFCURVE",
"676 12 OFFCURVE",
"676 48 CURVE SMOOTH",
"676 74 LINE",
"576 74 LINE SMOOTH",
"535 74 OFFCURVE",
"526 90 OFFCURVE",
"526 132 CURVE SMOOTH",
"526 714 LINE",
"436 714 LINE",
"436 304 LINE",
"433 302 LINE",
"421 313 OFFCURVE",
"387 329 OFFCURVE",
"287 350 CURVE SMOOTH",
"190 370 OFFCURVE",
"171 388 OFFCURVE",
"171 464 CURVE SMOOTH",
"171 714 LINE",
"81 714 LINE",
"81 454 LINE SMOOTH",
"81 321 OFFCURVE",
"132 296 OFFCURVE",
"257 272 CURVE SMOOTH",
"389 247 OFFCURVE",
"436 219 OFFCURVE",
"436 156 CURVE SMOOTH",
"436 132 LINE SMOOTH",
"436 90 OFFCURVE",
"427 74 OFFCURVE",
"386 74 CURVE SMOOTH",
"75 74 LINE",
"75 0 LINE"
);
}
);
vertWidth = 0;
width = 636;
},
{
anchors = (
{
name = gemconsonanttop;
position = "{319, 663}";
},
{
name = top;
position = "{315, 663}";
}
);
layerId = "6CB8ADAF-854D-4ED0-880B-EED1FC4797A7";
paths = (
{
closed = 1;
nodes = (
"455 0 LINE SMOOTH",
"513 0 OFFCURVE",
"543 12 OFFCURVE",
"557 40 CURVE",
"563 40 LINE",
"572 12 OFFCURVE",
"595 0 OFFCURVE",
"618 0 CURVE SMOOTH",
"658 0 LINE SMOOTH",
"683 0 OFFCURVE",
"698 7 OFFCURVE",
"698 38 CURVE SMOOTH",
"698 120 LINE",
"618 120 LINE SMOOTH",
"577 120 OFFCURVE",
"568 136 OFFCURVE",
"568 178 CURVE SMOOTH",
"568 714 LINE",
"417 714 LINE",
"417 333 LINE",
"412 331 LINE",
"400 342 OFFCURVE",
"380 349 OFFCURVE",
"309 366 CURVE SMOOTH",
"231 385 OFFCURVE",
"212 398 OFFCURVE",
"212 483 CURVE SMOOTH",
"212 714 LINE",
"61 714 LINE",
"61 453 LINE SMOOTH",
"61 321 OFFCURVE",
"98 294 OFFCURVE",
"244 258 CURVE SMOOTH",
"406 219 OFFCURVE",
"417 204 OFFCURVE",
"417 168 CURVE SMOOTH",
"417 157 LINE SMOOTH",
"417 121 OFFCURVE",
"408 120 OFFCURVE",
"367 120 CURVE SMOOTH",
"55 120 LINE",
"55 0 LINE"
);
}
);
vertWidth = 0;
width = 658;
}
);
},
{
glyphname = "Daali-adlam.init";
production = u1E901.init;
layers = (
{
anchors = (
{
name = gemconsonanttop;
position = "{309, 663}";
},
{
name = top;
position = "{304, 663}";
}
);
layerId = "B0FCDF77-85CD-41D2-A2A0-D0893F1A1A59";
paths = (
{
closed = 1;
nodes = (
"414 0 LINE SMOOTH",
"508 0 OFFCURVE",
"526 32 OFFCURVE",
"526 118 CURVE SMOOTH",
"526 714 LINE",
"436 714 LINE",
"436 304 LINE",
"433 302 LINE",
"421 313 OFFCURVE",
"387 329 OFFCURVE",
"287 350 CURVE SMOOTH",
"190 370 OFFCURVE",
"171 388 OFFCURVE",
"171 464 CURVE SMOOTH",
"171 714 LINE",
"81 714 LINE",
"81 454 LINE SMOOTH",
"81 321 OFFCURVE",
"132 296 OFFCURVE",
"257 272 CURVE SMOOTH",
"389 247 OFFCURVE",
"436 219 OFFCURVE",
"436 156 CURVE SMOOTH",
"436 132 LINE SMOOTH",
"436 90 OFFCURVE",
"427 74 OFFCURVE",
"387 74 CURVE SMOOTH",
"-40 74 LINE",
"-40 48 LINE SMOOTH",
"-40 12 OFFCURVE",
"-30 0 OFFCURVE",
"0 0 CURVE SMOOTH"
);
}
);
vertWidth = 0;
width = 636;
},
{
anchors = (
{
name = gemconsonanttop;
position = "{319, 663}";
},
{
name = top;
position = "{315, 663}";
}
);
layerId = "6CB8ADAF-854D-4ED0-880B-EED1FC4797A7";
paths = (
{
closed = 1;
nodes = (
"456 0 LINE SMOOTH",
"550 0 OFFCURVE",
"568 32 OFFCURVE",
"568 118 CURVE SMOOTH",
"568 714 LINE",
"417 714 LINE",
"417 333 LINE",
"412 331 LINE",
"400 342 OFFCURVE",
"380 349 OFFCURVE",
"309 366 CURVE SMOOTH",
"231 385 OFFCURVE",
"212 398 OFFCURVE",
"212 483 CURVE SMOOTH",
"212 714 LINE",
"61 714 LINE",
"61 453 LINE SMOOTH",
"61 321 OFFCURVE",
"98 294 OFFCURVE",
"244 258 CURVE SMOOTH",
"406 219 OFFCURVE",
"417 204 OFFCURVE",
"417 168 CURVE SMOOTH",
"417 157 LINE SMOOTH",
"417 121 OFFCURVE",
"408 120 OFFCURVE",
"368 120 CURVE SMOOTH",
"-40 120 LINE",
"-40 38 LINE SMOOTH",
"-40 7 OFFCURVE",
"-25 0 OFFCURVE",
"0 0 CURVE SMOOTH"
);
}
);
vertWidth = 0;
width = 658;
}
);
},
{
export = 0;
glyphname = "Daali-adlam.isol";
production = u1E901.isol;
layers = (
{
anchors = (
{
name = gemconsonanttop;
position = "{309, 663}";
},
{
name = top;
position = "{304, 663}";
}
);
layerId = "B0FCDF77-85CD-41D2-A2A0-D0893F1A1A59";
paths = (
{
closed = 1;
nodes = (
"414 0 LINE SMOOTH",
"508 0 OFFCURVE",
"526 32 OFFCURVE",
"526 118 CURVE SMOOTH",
"526 714 LINE",
"436 714 LINE",
"436 304 LINE",
"433 302 LINE",
"421 313 OFFCURVE",
"387 329 OFFCURVE",
"287 350 CURVE SMOOTH",
"190 370 OFFCURVE",
"171 388 OFFCURVE",
"171 464 CURVE SMOOTH",
"171 714 LINE",
"81 714 LINE",
"81 454 LINE SMOOTH",
"81 321 OFFCURVE",
"132 296 OFFCURVE",
"257 272 CURVE SMOOTH",
"389 247 OFFCURVE",
"436 219 OFFCURVE",
"436 156 CURVE SMOOTH",
"436 137 LINE SMOOTH",
"436 95 OFFCURVE",
"427 79 OFFCURVE",
"387 79 CURVE SMOOTH",
"75 79 LINE",
"75 0 LINE"
);
}
);
vertWidth = 0;
width = 636;
},
{
anchors = (
{
name = gemconsonanttop;
position = "{319, 663}";
},
{
name = top;
position = "{315, 663}";
}
);
layerId = "6CB8ADAF-854D-4ED0-880B-EED1FC4797A7";
paths = (
{
closed = 1;
nodes = (
"456 0 LINE SMOOTH",
"550 0 OFFCURVE",
"568 32 OFFCURVE",
"568 118 CURVE SMOOTH",
"568 714 LINE",
"417 714 LINE",
"417 333 LINE",
"412 331 LINE",
"400 342 OFFCURVE",
"380 349 OFFCURVE",
"309 366 CURVE SMOOTH",
"231 385 OFFCURVE",
"212 398 OFFCURVE",
"212 483 CURVE SMOOTH",
"212 714 LINE",
"61 714 LINE",
"61 453 LINE SMOOTH",
"61 321 OFFCURVE",
"98 294 OFFCURVE",
"244 258 CURVE SMOOTH",
"406 219 OFFCURVE",
"417 204 OFFCURVE",
"417 168 CURVE SMOOTH",
"417 162 LINE SMOOTH",
"417 126 OFFCURVE",
"408 125 OFFCURVE",
"368 125 CURVE SMOOTH",
"55 125 LINE",
"55 0 LINE"
);
}
);
vertWidth = 0;
width = 658;
}
);
},
{
glyphname = "Daali-adlam.medi";
production = u1E901.medi;
layers = (
{
anchors = (
{
name = gemconsonanttop;
position = "{309, 663}";
},
{
name = top;
position = "{304, 663}";
}
);
layerId = "B0FCDF77-85CD-41D2-A2A0-D0893F1A1A59";
paths = (
{
closed = 1;
nodes = (
"419 0 LINE SMOOTH",
"475 0 OFFCURVE",
"494 12 OFFCURVE",
"505 37 CURVE",
"511 37 LINE",
"521 12 OFFCURVE",
"535 0 OFFCURVE",
"576 0 CURVE SMOOTH",
"636 0 LINE SMOOTH",
"666 0 OFFCURVE",
"676 12 OFFCURVE",
"676 48 CURVE SMOOTH",
"676 74 LINE",
"576 74 LINE SMOOTH",
"535 74 OFFCURVE",
"526 90 OFFCURVE",
"526 132 CURVE SMOOTH",
"526 714 LINE",
"436 714 LINE",
"436 304 LINE",
"433 302 LINE",
"421 313 OFFCURVE",
"387 329 OFFCURVE",
"287 350 CURVE SMOOTH",
"190 370 OFFCURVE",
"171 388 OFFCURVE",
"171 464 CURVE SMOOTH",
"171 714 LINE",
"81 714 LINE",
"81 454 LINE SMOOTH",
"81 321 OFFCURVE",
"132 296 OFFCURVE",
"257 272 CURVE SMOOTH",
"389 247 OFFCURVE",
"436 219 OFFCURVE",
"436 156 CURVE SMOOTH",
"436 132 LINE SMOOTH",
"436 90 OFFCURVE",
"427 74 OFFCURVE",
"386 74 CURVE SMOOTH",
"-40 74 LINE",
"-40 48 LINE SMOOTH",
"-40 12 OFFCURVE",
"-30 0 OFFCURVE",
"0 0 CURVE SMOOTH"
);
}
);
vertWidth = 0;
width = 636;
},
{
anchors = (
{
name = gemconsonanttop;
position = "{319, 663}";
},
{
name = top;
position = "{315, 663}";
}
);
layerId = "6CB8ADAF-854D-4ED0-880B-EED1FC4797A7";
paths = (
{
closed = 1;
nodes = (
"455 0 LINE SMOOTH",
"513 0 OFFCURVE",
"543 12 OFFCURVE",
"557 40 CURVE",
"563 40 LINE",
"572 12 OFFCURVE",
"595 0 OFFCURVE",
"618 0 CURVE SMOOTH",
"658 0 LINE SMOOTH",
"683 0 OFFCURVE",
"698 7 OFFCURVE",
"698 38 CURVE SMOOTH",
"698 120 LINE",
"618 120 LINE SMOOTH",
"577 120 OFFCURVE",
"568 136 OFFCURVE",
"568 178 CURVE SMOOTH",
"568 714 LINE",
"417 714 LINE",
"417 333 LINE",
"412 331 LINE",
"400 342 OFFCURVE",
"380 349 OFFCURVE",
"309 366 CURVE SMOOTH",
"231 385 OFFCURVE",
"212 398 OFFCURVE",
"212 483 CURVE SMOOTH",
"212 714 LINE",
"61 714 LINE",
"61 453 LINE SMOOTH",
"61 321 OFFCURVE",
"98 294 OFFCURVE",
"244 258 CURVE SMOOTH",
"406 219 OFFCURVE",
"417 204 OFFCURVE",
"417 168 CURVE SMOOTH",
"417 157 LINE SMOOTH",
"417 121 OFFCURVE",
"408 120 OFFCURVE",
"367 120 CURVE SMOOTH",
"-40 120 LINE",
"-40 38 LINE SMOOTH",
"-40 7 OFFCURVE",
"-25 0 OFFCURVE",
"0 0 CURVE SMOOTH"
);
}
);
vertWidth = 0;
width = 658;
}
);
},
{
glyphname = "Dha-adlam";
production = u1E90D;
layers = (
{
anchors = (
{
name = top;
position = "{352, 663}";
}
);
layerId = "B0FCDF77-85CD-41D2-A2A0-D0893F1A1A59";
paths = (
{
closed = 1;
nodes = (
"452 -15 OFFCURVE",
"501 36 OFFCURVE",
"519 62 CURVE",
"524 61 LINE",
"524 0 LINE",
"614 0 LINE",
"614 597 LINE SMOOTH",
"614 683 OFFCURVE",
"596 714 OFFCURVE",
"502 714 CURVE SMOOTH",
"304 714 LINE",
"304 635 LINE",
"475 635 LINE SMOOTH",
"515 635 OFFCURVE",
"524 619 OFFCURVE",
"524 576 CURVE SMOOTH",
"524 441 LINE",
"520 439 LINE",
"492 476 OFFCURVE",
"443 501 OFFCURVE",
"358 501 CURVE SMOOTH",
"269 501 OFFCURVE",
"209 468 OFFCURVE",
"184 439 CURVE",
"180 440 LINE",
"180 714 LINE",
"90 714 LINE",
"90 255 LINE SMOOTH",
"90 66 OFFCURVE",
"180 -15 OFFCURVE",
"336 -15 CURVE SMOOTH"
);
},
{
closed = 1;
nodes = (
"235 64 OFFCURVE",
"180 133 OFFCURVE",
"180 259 CURVE SMOOTH",
"180 338 LINE",
"200 372 OFFCURVE",
"253 422 OFFCURVE",
"357 422 CURVE SMOOTH",
"454 422 OFFCURVE",
"510 372 OFFCURVE",
"524 300 CURVE",
"524 179 LINE",
"506 131 OFFCURVE",
"467 64 OFFCURVE",
"347 64 CURVE SMOOTH"
);
}
);
vertWidth = 0;
width = 724;
},
{
anchors = (
{
name = top;
position = "{382, 663}";
}
);
layerId = "6CB8ADAF-854D-4ED0-880B-EED1FC4797A7";
paths = (
{
closed = 1;
nodes = (
"451 -15 OFFCURVE",
"500 36 OFFCURVE",
"518 62 CURVE",
"523 61 LINE",
"523 0 LINE",
"674 0 LINE",
"674 605 LINE SMOOTH",
"674 683 OFFCURVE",
"656 714 OFFCURVE",
"572 714 CURVE SMOOTH",
"334 714 LINE",
"334 589 LINE",
"474 589 LINE SMOOTH",
"514 589 OFFCURVE",
"523 573 OFFCURVE",
"523 530 CURVE SMOOTH",
"523 431 LINE",
"518 429 LINE",
"505 450 OFFCURVE",
"468 491 OFFCURVE",
"382 491 CURVE SMOOTH",
"299 491 OFFCURVE",
"264 457 OFFCURVE",
"246 436 CURVE",
"241 437 LINE",
"241 714 LINE",
"90 714 LINE",
"90 255 LINE SMOOTH",
"90 66 OFFCURVE",
"180 -15 OFFCURVE",
"323 -15 CURVE SMOOTH"
);
},
{
closed = 1;
nodes = (
"296 110 OFFCURVE",
"241 158 OFFCURVE",
"241 255 CURVE SMOOTH",
"241 288 LINE",
"261 322 OFFCURVE",
"302 366 OFFCURVE",
"387 366 CURVE SMOOTH",
"478 366 OFFCURVE",
"515 321 OFFCURVE",
"523 272 CURVE",
"523 190 LINE",
"509 161 OFFCURVE",
"466 110 OFFCURVE",
"382 110 CURVE SMOOTH"
);
}
);
vertWidth = 0;
width = 764;
}
);
unicode = 1E90D;
},
{
glyphname = "Dha-adlam.fina";
production = u1E90D.fina;
layers = (
{
anchors = (
{
name = top;
position = "{352, 663}";
}
);
layerId = "B0FCDF77-85CD-41D2-A2A0-D0893F1A1A59";
paths = (
{
closed = 1;
nodes = (
"452 -15 OFFCURVE",
"504 37 OFFCURVE",
"522 63 CURVE",
"529 62 LINE",
"538 18 OFFCURVE",
"566 0 OFFCURVE",
"637 0 CURVE SMOOTH",
"724 0 LINE SMOOTH",
"754 0 OFFCURVE",
"764 12 OFFCURVE",
"764 48 CURVE SMOOTH",
"764 74 LINE",
"664 74 LINE SMOOTH",
"623 74 OFFCURVE",
"614 90 OFFCURVE",
"614 132 CURVE SMOOTH",
"614 597 LINE SMOOTH",
"614 683 OFFCURVE",
"596 714 OFFCURVE",
"502 714 CURVE SMOOTH",
"304 714 LINE",
"304 635 LINE",
"475 635 LINE SMOOTH",
"515 635 OFFCURVE",
"524 619 OFFCURVE",
"524 576 CURVE SMOOTH",
"524 441 LINE",
"520 439 LINE",
"492 476 OFFCURVE",
"443 501 OFFCURVE",
"358 501 CURVE SMOOTH",
"269 501 OFFCURVE",
"209 468 OFFCURVE",
"184 439 CURVE",
"180 440 LINE",
"180 714 LINE",
"90 714 LINE",
"90 255 LINE SMOOTH",
"90 66 OFFCURVE",
"180 -15 OFFCURVE",
"336 -15 CURVE SMOOTH"
);
},
{
closed = 1;
nodes = (
"235 64 OFFCURVE",
"180 133 OFFCURVE",
"180 259 CURVE SMOOTH",
"180 338 LINE",
"200 372 OFFCURVE",
"253 422 OFFCURVE",
"357 422 CURVE SMOOTH",
"454 422 OFFCURVE",
"510 372 OFFCURVE",
"524 300 CURVE",
"524 179 LINE",
"506 131 OFFCURVE",
"467 64 OFFCURVE",
"347 64 CURVE SMOOTH"
);
}
);
vertWidth = 0;
width = 724;
},
{
anchors = (
{
name = top;
position = "{382, 663}";
}
);
layerId = "6CB8ADAF-854D-4ED0-880B-EED1FC4797A7";
paths = (
{
closed = 1;
nodes = (
"451 -15 OFFCURVE",
"502 36 OFFCURVE",
"520 62 CURVE",
"528 61 LINE",
"538 17 OFFCURVE",
"567 0 OFFCURVE",
"637 0 CURVE SMOOTH",
"764 0 LINE SMOOTH",
"789 0 OFFCURVE",
"804 7 OFFCURVE",
"804 38 CURVE SMOOTH",
"804 120 LINE",
"724 120 LINE SMOOTH",
"683 120 OFFCURVE",
"674 136 OFFCURVE",
"674 178 CURVE SMOOTH",
"674 605 LINE SMOOTH",
"674 683 OFFCURVE",
"656 714 OFFCURVE",
"572 714 CURVE SMOOTH",
"334 714 LINE",
"334 589 LINE",
"474 589 LINE SMOOTH",
"514 589 OFFCURVE",
"523 573 OFFCURVE",
"523 530 CURVE SMOOTH",
"523 431 LINE",
"518 429 LINE",
"505 450 OFFCURVE",
"468 491 OFFCURVE",
"382 491 CURVE SMOOTH",
"299 491 OFFCURVE",
"264 457 OFFCURVE",
"246 436 CURVE",
"241 437 LINE",
"241 714 LINE",
"90 714 LINE",
"90 255 LINE SMOOTH",
"90 66 OFFCURVE",
"180 -15 OFFCURVE",
"323 -15 CURVE SMOOTH"
);
},
{
closed = 1;
nodes = (
"296 110 OFFCURVE",
"241 158 OFFCURVE",
"241 255 CURVE SMOOTH",
"241 288 LINE",
"261 322 OFFCURVE",
"302 366 OFFCURVE",
"387 366 CURVE SMOOTH",
"478 366 OFFCURVE",
"515 321 OFFCURVE",
"523 272 CURVE",
"523 190 LINE",
"509 161 OFFCURVE",
"466 110 OFFCURVE",
"382 110 CURVE SMOOTH"
);
}
);
vertWidth = 0;
width = 764;
}
);
},
{
glyphname = "Dha-adlam.init";
production = u1E90D.init;
layers = (
{
anchors = (
{
name = top;
position = "{352, 663}";
}
);
layerId = "B0FCDF77-85CD-41D2-A2A0-D0893F1A1A59";
paths = (
{
closed = 1;
nodes = (
"452 -15 OFFCURVE",
"501 36 OFFCURVE",
"519 62 CURVE",
"524 61 LINE",
"524 0 LINE",
"614 0 LINE",
"614 597 LINE SMOOTH",
"614 683 OFFCURVE",
"596 714 OFFCURVE",
"502 714 CURVE SMOOTH",
"304 714 LINE",
"304 635 LINE",
"475 635 LINE SMOOTH",
"515 635 OFFCURVE",
"524 619 OFFCURVE",
"524 576 CURVE SMOOTH",
"524 441 LINE",
"520 439 LINE",
"492 476 OFFCURVE",
"443 501 OFFCURVE",
"358 501 CURVE SMOOTH",
"269 501 OFFCURVE",
"209 468 OFFCURVE",
"184 439 CURVE",
"180 440 LINE",
"180 714 LINE",
"90 714 LINE",
"90 132 LINE SMOOTH",
"90 90 OFFCURVE",
"81 74 OFFCURVE",
"40 74 CURVE SMOOTH",
"-40 74 LINE",
"-40 48 LINE SMOOTH",
"-40 12 OFFCURVE",
"-30 0 OFFCURVE",
"0 0 CURVE SMOOTH",
"67 0 LINE SMOOTH",
"128 0 OFFCURVE",
"153 14 OFFCURVE",
"162 38 CURVE",
"167 38 LINE",
"182 20 OFFCURVE",
"239 -15 OFFCURVE",
"336 -15 CURVE SMOOTH"
);
},
{
closed = 1;
nodes = (
"235 64 OFFCURVE",
"180 133 OFFCURVE",
"180 259 CURVE SMOOTH",
"180 338 LINE",
"200 372 OFFCURVE",
"253 422 OFFCURVE",
"357 422 CURVE SMOOTH",
"454 422 OFFCURVE",
"510 372 OFFCURVE",
"524 300 CURVE",
"524 179 LINE",
"506 131 OFFCURVE",
"467 64 OFFCURVE",
"347 64 CURVE SMOOTH"
);
}
);
vertWidth = 0;
width = 724;
},
{
anchors = (
{
name = top;
position = "{382, 663}";
}
);
layerId = "6CB8ADAF-854D-4ED0-880B-EED1FC4797A7";
paths = (
{
closed = 1;
nodes = (
"451 -15 OFFCURVE",
"500 36 OFFCURVE",
"518 62 CURVE",
"523 61 LINE",
"523 0 LINE",
"674 0 LINE",
"674 605 LINE SMOOTH",
"674 683 OFFCURVE",
"656 714 OFFCURVE",
"572 714 CURVE SMOOTH",
"344 714 LINE",
"344 589 LINE",
"474 589 LINE SMOOTH",
"514 589 OFFCURVE",
"523 573 OFFCURVE",
"523 530 CURVE SMOOTH",
"523 431 LINE",
"518 429 LINE",
"505 450 OFFCURVE",
"468 491 OFFCURVE",
"382 491 CURVE SMOOTH",
"299 491 OFFCURVE",
"264 457 OFFCURVE",
"246 436 CURVE",
"241 437 LINE",
"241 714 LINE",
"90 714 LINE",
"90 178 LINE SMOOTH",
"90 136 OFFCURVE",
"81 120 OFFCURVE",
"40 120 CURVE SMOOTH",
"-40 120 LINE",
"-40 38 LINE SMOOTH",
"-40 7 OFFCURVE",
"-25 0 OFFCURVE",
"0 0 CURVE SMOOTH",
"77 0 LINE SMOOTH",
"129 0 OFFCURVE",
"149 17 OFFCURVE",
"157 40 CURVE",
"163 40 LINE",
"173 26 OFFCURVE",
"224 -15 OFFCURVE",
"323 -15 CURVE SMOOTH"
);
},
{
closed = 1;
nodes = (
"296 110 OFFCURVE",
"241 158 OFFCURVE",
"241 255 CURVE SMOOTH",
"241 288 LINE",
"261 322 OFFCURVE",
"302 366 OFFCURVE",
"387 366 CURVE SMOOTH",
"478 366 OFFCURVE",
"515 321 OFFCURVE",
"523 272 CURVE",
"523 190 LINE",
"509 161 OFFCURVE",
"466 110 OFFCURVE",
"382 110 CURVE SMOOTH"
);
}
);
vertWidth = 0;
width = 764;
}
);
},
{
export = 0;
glyphname = "Dha-adlam.isol";
production = u1E90D.isol;
layers = (
{
anchors = (
{
name = top;
position = "{352, 663}";
}
);
layerId = "B0FCDF77-85CD-41D2-A2A0-D0893F1A1A59";
paths = (
{
closed = 1;
nodes = (
"452 -15 OFFCURVE",
"501 36 OFFCURVE",
"519 62 CURVE",
"524 61 LINE",
"524 0 LINE",
"614 0 LINE",
"614 597 LINE SMOOTH",
"614 683 OFFCURVE",
"596 714 OFFCURVE",
"502 714 CURVE SMOOTH",
"304 714 LINE",
"304 635 LINE",
"475 635 LINE SMOOTH",
"515 635 OFFCURVE",
"524 619 OFFCURVE",
"524 576 CURVE SMOOTH",
"524 441 LINE",
"520 439 LINE",
"492 476 OFFCURVE",
"443 501 OFFCURVE",
"358 501 CURVE SMOOTH",
"269 501 OFFCURVE",
"209 468 OFFCURVE",
"184 439 CURVE",
"180 440 LINE",
"180 714 LINE",
"90 714 LINE",
"90 255 LINE SMOOTH",
"90 66 OFFCURVE",
"180 -15 OFFCURVE",
"336 -15 CURVE SMOOTH"
);
},
{
closed = 1;
nodes = (
"235 64 OFFCURVE",
"180 133 OFFCURVE",
"180 259 CURVE SMOOTH",
"180 338 LINE",
"200 372 OFFCURVE",
"253 422 OFFCURVE",
"357 422 CURVE SMOOTH",
"454 422 OFFCURVE",
"510 372 OFFCURVE",
"524 300 CURVE",
"524 179 LINE",
"506 131 OFFCURVE",
"467 64 OFFCURVE",
"347 64 CURVE SMOOTH"
);
}
);
vertWidth = 0;
width = 724;
},
{
anchors = (
{
name = top;
position = "{382, 663}";
}
);
layerId = "6CB8ADAF-854D-4ED0-880B-EED1FC4797A7";
paths = (
{
closed = 1;
nodes = (
"451 -15 OFFCURVE",
"500 36 OFFCURVE",
"518 62 CURVE",
"523 61 LINE",
"523 0 LINE",
"674 0 LINE",
"674 605 LINE SMOOTH",
"674 683 OFFCURVE",
"656 714 OFFCURVE",
"572 714 CURVE SMOOTH",
"334 714 LINE",
"334 589 LINE",
"474 589 LINE SMOOTH",
"514 589 OFFCURVE",
"523 573 OFFCURVE",
"523 530 CURVE SMOOTH",
"523 431 LINE",
"518 429 LINE",
"505 450 OFFCURVE",
"468 491 OFFCURVE",
"382 491 CURVE SMOOTH",
"299 491 OFFCURVE",
"264 457 OFFCURVE",
"246 436 CURVE",
"241 437 LINE",
"241 714 LINE",
"90 714 LINE",
"90 255 LINE SMOOTH",
"90 66 OFFCURVE",
"180 -15 OFFCURVE",
"323 -15 CURVE SMOOTH"
);
},
{
closed = 1;
nodes = (
"296 110 OFFCURVE",
"241 158 OFFCURVE",
"241 255 CURVE SMOOTH",
"241 288 LINE",
"261 322 OFFCURVE",
"302 366 OFFCURVE",
"387 366 CURVE SMOOTH",
"478 366 OFFCURVE",
"515 321 OFFCURVE",
"523 272 CURVE",
"523 190 LINE",
"509 161 OFFCURVE",
"466 110 OFFCURVE",
"382 110 CURVE SMOOTH"
);
}
);
vertWidth = 0;
width = 764;
}
);
},
{
glyphname = "Dha-adlam.medi";
production = u1E90D.medi;
layers = (
{
anchors = (
{
name = top;
position = "{352, 663}";
}
);
layerId = "B0FCDF77-85CD-41D2-A2A0-D0893F1A1A59";
paths = (
{
closed = 1;
nodes = (
"452 -15 OFFCURVE",
"504 37 OFFCURVE",
"522 63 CURVE",
"529 62 LINE",
"538 18 OFFCURVE",
"566 0 OFFCURVE",
"637 0 CURVE SMOOTH",
"724 0 LINE SMOOTH",
"754 0 OFFCURVE",
"764 12 OFFCURVE",
"764 48 CURVE SMOOTH",
"764 74 LINE",
"664 74 LINE SMOOTH",
"623 74 OFFCURVE",
"614 90 OFFCURVE",
"614 132 CURVE SMOOTH",
"614 597 LINE SMOOTH",
"614 683 OFFCURVE",
"596 714 OFFCURVE",
"502 714 CURVE SMOOTH",
"304 714 LINE",
"304 635 LINE",
"475 635 LINE SMOOTH",
"515 635 OFFCURVE",
"524 619 OFFCURVE",
"524 576 CURVE SMOOTH",
"524 441 LINE",
"520 439 LINE",
"492 476 OFFCURVE",
"443 501 OFFCURVE",
"358 501 CURVE SMOOTH",
"269 501 OFFCURVE",
"209 468 OFFCURVE",
"184 439 CURVE",
"180 440 LINE",
"180 714 LINE",
"90 714 LINE",
"90 132 LINE SMOOTH",
"90 90 OFFCURVE",
"81 74 OFFCURVE",
"40 74 CURVE SMOOTH",
"-40 74 LINE",
"-40 48 LINE SMOOTH",
"-40 12 OFFCURVE",
"-30 0 OFFCURVE",
"0 0 CURVE SMOOTH",
"67 0 LINE SMOOTH",
"128 0 OFFCURVE",
"153 14 OFFCURVE",
"162 38 CURVE",
"167 38 LINE",
"182 20 OFFCURVE",
"239 -15 OFFCURVE",
"336 -15 CURVE SMOOTH"
);
},
{
closed = 1;
nodes = (
"235 64 OFFCURVE",
"180 133 OFFCURVE",
"180 259 CURVE SMOOTH",
"180 338 LINE",
"200 372 OFFCURVE",
"253 422 OFFCURVE",
"357 422 CURVE SMOOTH",
"454 422 OFFCURVE",
"510 372 OFFCURVE",
"524 300 CURVE",
"524 179 LINE",
"506 131 OFFCURVE",
"467 64 OFFCURVE",
"347 64 CURVE SMOOTH"
);
}
);
vertWidth = 0;
width = 724;
},
{
anchors = (
{
name = top;
position = "{382, 663}";
}
);
layerId = "6CB8ADAF-854D-4ED0-880B-EED1FC4797A7";
paths = (
{
closed = 1;
nodes = (
"451 -15 OFFCURVE",
"502 36 OFFCURVE",
"520 62 CURVE",
"528 61 LINE",
"538 17 OFFCURVE",
"567 0 OFFCURVE",
"637 0 CURVE SMOOTH",
"764 0 LINE SMOOTH",
"789 0 OFFCURVE",
"804 7 OFFCURVE",
"804 38 CURVE SMOOTH",
"804 120 LINE",
"724 120 LINE SMOOTH",
"683 120 OFFCURVE",
"674 136 OFFCURVE",
"674 178 CURVE SMOOTH",
"674 605 LINE SMOOTH",
"674 683 OFFCURVE",
"656 714 OFFCURVE",
"572 714 CURVE SMOOTH",
"334 714 LINE",
"334 589 LINE",
"474 589 LINE SMOOTH",
"514 589 OFFCURVE",
"523 573 OFFCURVE",
"523 530 CURVE SMOOTH",
"523 431 LINE",
"518 429 LINE",
"505 450 OFFCURVE",
"468 491 OFFCURVE",
"382 491 CURVE SMOOTH",
"299 491 OFFCURVE",
"264 457 OFFCURVE",
"246 436 CURVE",
"241 437 LINE",
"241 714 LINE",
"90 714 LINE",
"90 178 LINE SMOOTH",
"90 136 OFFCURVE",
"81 120 OFFCURVE",
"40 120 CURVE SMOOTH",
"-40 120 LINE",
"-40 38 LINE SMOOTH",
"-40 7 OFFCURVE",
"-25 0 OFFCURVE",
"0 0 CURVE SMOOTH",
"77 0 LINE SMOOTH",
"129 0 OFFCURVE",
"149 17 OFFCURVE",
"157 40 CURVE",
"163 40 LINE",
"173 26 OFFCURVE",
"224 -15 OFFCURVE",
"323 -15 CURVE SMOOTH"
);
},
{
closed = 1;
nodes = (
"296 110 OFFCURVE",
"241 158 OFFCURVE",
"241 255 CURVE SMOOTH",
"241 288 LINE",
"261 322 OFFCURVE",
"302 366 OFFCURVE",
"387 366 CURVE SMOOTH",
"478 366 OFFCURVE",
"515 321 OFFCURVE",
"523 272 CURVE",
"523 190 LINE",
"509 161 OFFCURVE",
"466 110 OFFCURVE",
"382 110 CURVE SMOOTH"
);
}
);
vertWidth = 0;
width = 764;
}
);
},
{
glyphname = "E-adlam";
production = u1E909;
layers = (
{
anchors = (
{
name = bottom;
position = "{377, 0}";
},
{
name = top;
position = "{373, 666}";
},
{
name = "vowellengthencomb-adlam.case";
position = "{435, 557}";
}
);
layerId = "B0FCDF77-85CD-41D2-A2A0-D0893F1A1A59";
paths = (
{
closed = 1;
nodes = (
"200 0 LINE",
"200 38 LINE",
"206 73 OFFCURVE",
"225 99 OFFCURVE",
"235 109 CURVE",
"240 109 LINE",
"240 52 OFFCURVE",
"283 0 OFFCURVE",
"377 0 CURVE SMOOTH",
"493 0 LINE SMOOTH",
"606 0 OFFCURVE",
"676 33 OFFCURVE",
"676 147 CURVE SMOOTH",
"676 276 OFFCURVE",
"567 316 OFFCURVE",
"511 326 CURVE",
"510 330 LINE",
"582 382 OFFCURVE",
"631 438 OFFCURVE",
"631 545 CURVE SMOOTH",
"631 657 OFFCURVE",
"562 724 OFFCURVE",
"383 724 CURVE SMOOTH",
"188 724 OFFCURVE",
"110 655 OFFCURVE",
"110 483 CURVE SMOOTH",
"110 0 LINE"
);
},
{
closed = 1;
nodes = (
"346 79 OFFCURVE",
"318 97 OFFCURVE",
"318 145 CURVE SMOOTH",
"318 199 OFFCURVE",
"367 245 OFFCURVE",
"405 264 CURVE",
"410 266 OFFCURVE",
"421 267 OFFCURVE",
"432 267 CURVE SMOOTH",
"495 267 OFFCURVE",
"583 228 OFFCURVE",
"583 146 CURVE SMOOTH",
"583 97 OFFCURVE",
"555 79 OFFCURVE",
"493 79 CURVE SMOOTH",
"400 79 LINE SMOOTH"
);
},
{
closed = 1;
nodes = (
"200 483 LINE SMOOTH",
"200 608 OFFCURVE",
"257 645 OFFCURVE",
"383 645 CURVE SMOOTH",
"503 645 OFFCURVE",
"538 597 OFFCURVE",
"538 534 CURVE SMOOTH",
"538 456 OFFCURVE",
"503 422 OFFCURVE",
"396 350 CURVE SMOOTH",
"291 279 OFFCURVE",
"263 244 OFFCURVE",
"247 200 CURVE",
"222 184 OFFCURVE",
"208 162 OFFCURVE",
"203 151 CURVE",
"200 151 LINE"
);
}
);
vertWidth = 0;
width = 731;
},
{
anchors = (
{
name = bottom;
position = "{398, 0}";
},
{
name = top;
position = "{398, 666}";
},
{
name = "vowellengthencomb-adlam.case";
position = "{419, 602}";
}
);
layerId = "6CB8ADAF-854D-4ED0-880B-EED1FC4797A7";
paths = (
{
closed = 1;
nodes = (
"241 0 LINE",
"241 45 LINE",
"246 77 OFFCURVE",
"261 104 OFFCURVE",
"281 122 CURVE",
"286 122 LINE",
"290 42 OFFCURVE",
"339 0 OFFCURVE",
"447 0 CURVE SMOOTH",
"523 0 LINE SMOOTH",
"612 0 OFFCURVE",
"724 26 OFFCURVE",
"724 155 CURVE SMOOTH",
"724 269 OFFCURVE",
"642 314 OFFCURVE",
"553 324 CURVE",
"553 329 LINE",
"609 364 OFFCURVE",
"682 421 OFFCURVE",
"682 527 CURVE SMOOTH",
"682 657 OFFCURVE",
"605 724 OFFCURVE",
"398 724 CURVE SMOOTH",
"126 724 OFFCURVE",
"90 589 OFFCURVE",
"90 449 CURVE SMOOTH",
"90 0 LINE"
);
},
{
closed = 1;
nodes = (
"421 107 OFFCURVE",
"402 131 OFFCURVE",
"402 169 CURVE SMOOTH",
"402 213 OFFCURVE",
"429 242 OFFCURVE",
"451 257 CURVE",
"454 258 OFFCURVE",
"460 259 OFFCURVE",
"470 259 CURVE SMOOTH",
"531 259 OFFCURVE",
"568 215 OFFCURVE",
"568 167 CURVE SMOOTH",
"568 115 OFFCURVE",
"535 107 OFFCURVE",
"502 107 CURVE SMOOTH",
"461 107 LINE SMOOTH"
);
},
{
closed = 1;
nodes = (
"241 449 LINE SMOOTH",
"241 541 OFFCURVE",
"256 599 OFFCURVE",
"400 599 CURVE SMOOTH",
"496 599 OFFCURVE",
"526 560 OFFCURVE",
"526 508 CURVE SMOOTH",
"526 455 OFFCURVE",
"509 431 OFFCURVE",
"427 376 CURVE SMOOTH",
"338 318 OFFCURVE",
"312 277 OFFCURVE",
"298 242 CURVE",
"283 233 OFFCURVE",
"256 205 OFFCURVE",
"246 184 CURVE",
"241 184 LINE"
);
}
);
vertWidth = 0;
width = 779;
}
);
unicode = 1E909;
},
{
glyphname = "E-adlam.fina";
production = u1E909.fina;
layers = (
{
anchors = (
{
name = bottom;
position = "{377, 0}";
},
{
name = top;
position = "{373, 666}";
},
{
name = "vowellengthencomb-adlam.case";
position = "{435, 557}";
}
);
layerId = "B0FCDF77-85CD-41D2-A2A0-D0893F1A1A59";
paths = (
{
closed = 1;
nodes = (
"200 0 LINE",
"200 38 LINE",
"206 73 OFFCURVE",
"225 99 OFFCURVE",
"235 109 CURVE",
"240 109 LINE",
"240 52 OFFCURVE",
"283 0 OFFCURVE",
"377 0 CURVE SMOOTH",
"493 0 LINE SMOOTH",
"575 0 OFFCURVE",
"617 19 OFFCURVE",
"631 37 CURVE",
"636 37 LINE",
"643 15 OFFCURVE",
"659 0 OFFCURVE",
"702 0 CURVE SMOOTH",
"731 0 LINE SMOOTH",
"761 0 OFFCURVE",
"771 12 OFFCURVE",
"771 48 CURVE SMOOTH",
"771 74 LINE",
"726 74 LINE SMOOTH",
"682 74 OFFCURVE",
"676 89 OFFCURVE",
"676 147 CURVE SMOOTH",
"676 276 OFFCURVE",
"567 316 OFFCURVE",
"511 326 CURVE",
"510 330 LINE",
"582 382 OFFCURVE",
"631 438 OFFCURVE",
"631 545 CURVE SMOOTH",
"631 657 OFFCURVE",
"562 724 OFFCURVE",
"383 724 CURVE SMOOTH",
"188 724 OFFCURVE",
"110 655 OFFCURVE",
"110 483 CURVE SMOOTH",
"110 0 LINE"
);
},
{
closed = 1;
nodes = (
"346 79 OFFCURVE",
"318 97 OFFCURVE",
"318 145 CURVE SMOOTH",
"318 199 OFFCURVE",
"367 245 OFFCURVE",
"405 264 CURVE",
"410 266 OFFCURVE",
"421 267 OFFCURVE",
"432 267 CURVE SMOOTH",
"495 267 OFFCURVE",
"583 228 OFFCURVE",
"583 146 CURVE SMOOTH",
"583 97 OFFCURVE",
"555 79 OFFCURVE",
"493 79 CURVE SMOOTH",
"400 79 LINE SMOOTH"
);
},
{
closed = 1;
nodes = (
"200 483 LINE SMOOTH",
"200 608 OFFCURVE",
"257 645 OFFCURVE",
"383 645 CURVE SMOOTH",
"503 645 OFFCURVE",
"538 597 OFFCURVE",
"538 534 CURVE SMOOTH",
"538 456 OFFCURVE",
"503 422 OFFCURVE",
"396 350 CURVE SMOOTH",
"291 279 OFFCURVE",
"263 244 OFFCURVE",
"247 200 CURVE",
"222 184 OFFCURVE",
"208 162 OFFCURVE",
"203 151 CURVE",
"200 151 LINE"
);
}
);
vertWidth = 0;
width = 731;
},
{
anchors = (
{
name = bottom;
position = "{398, 0}";
},
{
name = top;
position = "{398, 666}";
},
{
name = "vowellengthencomb-adlam.case";
position = "{419, 602}";
}
);
layerId = "6CB8ADAF-854D-4ED0-880B-EED1FC4797A7";
paths = (
{
closed = 1;
nodes = (
"241 0 LINE",
"241 45 LINE",
"246 77 OFFCURVE",
"261 104 OFFCURVE",
"281 122 CURVE",
"286 122 LINE",
"290 42 OFFCURVE",
"339 0 OFFCURVE",
"447 0 CURVE SMOOTH",
"523 0 LINE SMOOTH",
"590 0 OFFCURVE",
"642 12 OFFCURVE",
"669 40 CURVE",
"675 40 LINE",
"682 14 OFFCURVE",
"700 0 OFFCURVE",
"739 0 CURVE SMOOTH",
"779 0 LINE SMOOTH",
"804 0 OFFCURVE",
"819 7 OFFCURVE",
"819 38 CURVE SMOOTH",
"819 120 LINE",
"774 120 LINE SMOOTH",
"733 120 OFFCURVE",
"724 136 OFFCURVE",
"724 155 CURVE SMOOTH",
"724 269 OFFCURVE",
"642 314 OFFCURVE",
"553 324 CURVE",
"553 329 LINE",
"609 364 OFFCURVE",
"682 421 OFFCURVE",
"682 527 CURVE SMOOTH",
"682 657 OFFCURVE",
"605 724 OFFCURVE",
"398 724 CURVE SMOOTH",
"126 724 OFFCURVE",
"90 589 OFFCURVE",
"90 449 CURVE SMOOTH",
"90 0 LINE"
);
},
{
closed = 1;
nodes = (
"421 107 OFFCURVE",
"402 131 OFFCURVE",
"402 169 CURVE SMOOTH",
"402 213 OFFCURVE",
"429 242 OFFCURVE",
"451 257 CURVE",
"454 258 OFFCURVE",
"460 259 OFFCURVE",
"470 259 CURVE SMOOTH",
"531 259 OFFCURVE",
"568 215 OFFCURVE",
"568 167 CURVE SMOOTH",
"568 115 OFFCURVE",
"535 107 OFFCURVE",
"502 107 CURVE SMOOTH",
"461 107 LINE SMOOTH"
);
},
{
closed = 1;
nodes = (
"241 449 LINE SMOOTH",
"241 541 OFFCURVE",
"256 599 OFFCURVE",
"400 599 CURVE SMOOTH",
"496 599 OFFCURVE",
"526 560 OFFCURVE",
"526 508 CURVE SMOOTH",
"526 455 OFFCURVE",
"509 431 OFFCURVE",
"427 376 CURVE SMOOTH",
"338 318 OFFCURVE",
"312 277 OFFCURVE",
"298 242 CURVE",
"283 233 OFFCURVE",
"256 205 OFFCURVE",
"246 184 CURVE",
"241 184 LINE"
);
}
);
vertWidth = 0;
width = 779;
}
);
},
{
glyphname = "E-adlam.init";
production = u1E909.init;
layers = (
{
anchors = (
{
name = bottom;
position = "{377, 0}";
},
{
name = top;
position = "{373, 666}";
},
{
name = "vowellengthencomb-adlam.case";
position = "{435, 557}";
}
);
layerId = "B0FCDF77-85CD-41D2-A2A0-D0893F1A1A59";
paths = (
{
closed = 1;
nodes = (
"87 0 LINE SMOOTH",
"165 0 OFFCURVE",
"191 22 OFFCURVE",
"198 77 CURVE",
"204 92 OFFCURVE",
"225 105 OFFCURVE",
"235 109 CURVE",
"240 109 LINE",
"240 52 OFFCURVE",
"283 0 OFFCURVE",
"377 0 CURVE SMOOTH",
"493 0 LINE SMOOTH",
"606 0 OFFCURVE",
"676 33 OFFCURVE",
"676 147 CURVE SMOOTH",
"676 276 OFFCURVE",
"567 316 OFFCURVE",
"511 326 CURVE",
"510 330 LINE",
"582 382 OFFCURVE",
"631 438 OFFCURVE",
"631 545 CURVE SMOOTH",
"631 657 OFFCURVE",
"562 724 OFFCURVE",
"383 724 CURVE SMOOTH",
"208 724 OFFCURVE",
"110 655 OFFCURVE",
"110 483 CURVE SMOOTH",
"110 132 LINE SMOOTH",
"110 90 OFFCURVE",
"101 74 OFFCURVE",
"60 74 CURVE SMOOTH",
"-40 74 LINE",
"-40 48 LINE SMOOTH",
"-40 12 OFFCURVE",
"-30 0 OFFCURVE",
"0 0 CURVE SMOOTH"
);
},
{
closed = 1;
nodes = (
"346 79 OFFCURVE",
"318 97 OFFCURVE",
"318 145 CURVE SMOOTH",
"318 199 OFFCURVE",
"367 245 OFFCURVE",
"405 264 CURVE",
"410 266 OFFCURVE",
"421 267 OFFCURVE",
"432 267 CURVE SMOOTH",
"495 267 OFFCURVE",
"583 230 OFFCURVE",
"583 146 CURVE SMOOTH",
"583 97 OFFCURVE",
"555 79 OFFCURVE",
"493 79 CURVE SMOOTH",
"400 79 LINE SMOOTH"
);
},
{
closed = 1;
nodes = (
"200 483 LINE SMOOTH",
"200 608 OFFCURVE",
"277 645 OFFCURVE",
"383 645 CURVE SMOOTH",
"503 645 OFFCURVE",
"538 597 OFFCURVE",
"538 534 CURVE SMOOTH",
"538 456 OFFCURVE",
"503 422 OFFCURVE",
"396 350 CURVE SMOOTH",
"291 279 OFFCURVE",
"260 243 OFFCURVE",
"245 191 CURVE",
"227 182 OFFCURVE",
"211 171 OFFCURVE",
"203 163 CURVE",
"200 163 LINE"
);
}
);
vertWidth = 0;
width = 731;
},
{
anchors = (
{
name = bottom;
position = "{398, 0}";
},
{
name = top;
position = "{398, 666}";
},
{
name = "vowellengthencomb-adlam.case";
position = "{419, 602}";
}
);
layerId = "6CB8ADAF-854D-4ED0-880B-EED1FC4797A7";
paths = (
{
closed = 1;
nodes = (
"127 0 LINE SMOOTH",
"213 0 OFFCURVE",
"237 26 OFFCURVE",
"240 85 CURVE",
"247 98 OFFCURVE",
"269 117 OFFCURVE",
"281 122 CURVE",
"286 122 LINE",
"290 42 OFFCURVE",
"339 0 OFFCURVE",
"447 0 CURVE SMOOTH",
"523 0 LINE SMOOTH",
"612 0 OFFCURVE",
"724 26 OFFCURVE",
"724 155 CURVE SMOOTH",
"724 269 OFFCURVE",
"642 314 OFFCURVE",
"553 324 CURVE",
"553 329 LINE",
"609 364 OFFCURVE",
"682 421 OFFCURVE",
"682 527 CURVE SMOOTH",
"682 657 OFFCURVE",
"605 724 OFFCURVE",
"398 724 CURVE SMOOTH",
"126 724 OFFCURVE",
"90 589 OFFCURVE",
"90 449 CURVE SMOOTH",
"90 178 LINE SMOOTH",
"90 136 OFFCURVE",
"81 120 OFFCURVE",
"40 120 CURVE SMOOTH",
"-40 120 LINE",
"-40 38 LINE SMOOTH",
"-40 7 OFFCURVE",
"-25 0 OFFCURVE",
"0 0 CURVE SMOOTH"
);
},
{
closed = 1;
nodes = (
"421 107 OFFCURVE",
"402 131 OFFCURVE",
"402 169 CURVE SMOOTH",
"402 213 OFFCURVE",
"429 242 OFFCURVE",
"451 257 CURVE",
"454 258 OFFCURVE",
"460 259 OFFCURVE",
"470 259 CURVE SMOOTH",
"531 259 OFFCURVE",
"568 215 OFFCURVE",
"568 167 CURVE SMOOTH",
"568 115 OFFCURVE",
"535 107 OFFCURVE",
"502 107 CURVE SMOOTH",
"461 107 LINE SMOOTH"
);
},
{
closed = 1;
nodes = (
"241 449 LINE SMOOTH",
"241 541 OFFCURVE",
"256 599 OFFCURVE",
"400 599 CURVE SMOOTH",
"496 599 OFFCURVE",
"526 560 OFFCURVE",
"526 508 CURVE SMOOTH",
"526 455 OFFCURVE",
"510 430 OFFCURVE",
"427 376 CURVE SMOOTH",
"338 318 OFFCURVE",
"312 277 OFFCURVE",
"295 235 CURVE",
"281 230 OFFCURVE",
"256 215 OFFCURVE",
"246 202 CURVE",
"241 202 LINE"
);
}
);
vertWidth = 0;
width = 779;
}
);
},
{
export = 0;
glyphname = "E-adlam.isol";
production = u1E909.isol;
layers = (
{
anchors = (
{
name = bottom;
position = "{377, 0}";
},
{
name = top;
position = "{373, 666}";
},
{
name = "vowellengthencomb-adlam.case";
position = "{435, 557}";
}
);
layerId = "B0FCDF77-85CD-41D2-A2A0-D0893F1A1A59";
paths = (
{
closed = 1;
nodes = (
"200 0 LINE",
"200 38 LINE",
"206 73 OFFCURVE",
"225 99 OFFCURVE",
"235 109 CURVE",
"240 109 LINE",
"240 52 OFFCURVE",
"283 0 OFFCURVE",
"377 0 CURVE SMOOTH",
"493 0 LINE SMOOTH",
"606 0 OFFCURVE",
"676 33 OFFCURVE",
"676 147 CURVE SMOOTH",
"676 276 OFFCURVE",
"567 316 OFFCURVE",
"511 326 CURVE",
"510 330 LINE",
"582 382 OFFCURVE",
"631 438 OFFCURVE",
"631 545 CURVE SMOOTH",
"631 657 OFFCURVE",
"562 724 OFFCURVE",
"383 724 CURVE SMOOTH",
"188 724 OFFCURVE",
"110 655 OFFCURVE",
"110 483 CURVE SMOOTH",
"110 0 LINE"
);
},
{
closed = 1;
nodes = (
"346 79 OFFCURVE",
"318 97 OFFCURVE",
"318 145 CURVE SMOOTH",
"318 199 OFFCURVE",
"367 245 OFFCURVE",
"405 264 CURVE",
"410 266 OFFCURVE",
"421 267 OFFCURVE",
"432 267 CURVE SMOOTH",
"495 267 OFFCURVE",
"583 228 OFFCURVE",
"583 146 CURVE SMOOTH",
"583 97 OFFCURVE",
"555 79 OFFCURVE",
"493 79 CURVE SMOOTH",
"400 79 LINE SMOOTH"
);
},
{
closed = 1;
nodes = (
"200 483 LINE SMOOTH",
"200 608 OFFCURVE",
"257 645 OFFCURVE",
"383 645 CURVE SMOOTH",
"503 645 OFFCURVE",
"538 597 OFFCURVE",
"538 534 CURVE SMOOTH",
"538 456 OFFCURVE",
"503 422 OFFCURVE",
"396 350 CURVE SMOOTH",
"291 279 OFFCURVE",
"263 244 OFFCURVE",
"247 200 CURVE",
"222 184 OFFCURVE",
"208 162 OFFCURVE",
"203 151 CURVE",
"200 151 LINE"
);
}
);
vertWidth = 0;
width = 731;
},
{
anchors = (
{
name = bottom;
position = "{398, 0}";
},
{
name = top;
position = "{398, 666}";
},
{
name = "vowellengthencomb-adlam.case";
position = "{419, 602}";
}
);
layerId = "6CB8ADAF-854D-4ED0-880B-EED1FC4797A7";
paths = (
{
closed = 1;
nodes = (
"241 0 LINE",
"241 45 LINE",
"246 77 OFFCURVE",
"261 104 OFFCURVE",
"281 122 CURVE",
"286 122 LINE",
"290 42 OFFCURVE",
"339 0 OFFCURVE",
"447 0 CURVE SMOOTH",
"523 0 LINE SMOOTH",
"612 0 OFFCURVE",
"724 26 OFFCURVE",
"724 155 CURVE SMOOTH",
"724 269 OFFCURVE",
"642 314 OFFCURVE",
"553 324 CURVE",
"553 329 LINE",
"609 364 OFFCURVE",
"682 421 OFFCURVE",
"682 527 CURVE SMOOTH",
"682 657 OFFCURVE",
"605 724 OFFCURVE",
"398 724 CURVE SMOOTH",
"126 724 OFFCURVE",
"90 589 OFFCURVE",
"90 449 CURVE SMOOTH",
"90 0 LINE"
);
},
{
closed = 1;
nodes = (
"421 107 OFFCURVE",
"402 131 OFFCURVE",
"402 169 CURVE SMOOTH",
"402 213 OFFCURVE",
"429 242 OFFCURVE",
"451 257 CURVE",
"454 258 OFFCURVE",
"460 259 OFFCURVE",
"470 259 CURVE SMOOTH",
"531 259 OFFCURVE",
"568 215 OFFCURVE",
"568 167 CURVE SMOOTH",
"568 115 OFFCURVE",
"535 107 OFFCURVE",
"502 107 CURVE SMOOTH",
"461 107 LINE SMOOTH"
);
},
{
closed = 1;
nodes = (
"241 449 LINE SMOOTH",
"241 541 OFFCURVE",
"256 599 OFFCURVE",
"400 599 CURVE SMOOTH",
"496 599 OFFCURVE",
"526 560 OFFCURVE",
"526 508 CURVE SMOOTH",
"526 455 OFFCURVE",
"509 431 OFFCURVE",
"427 376 CURVE SMOOTH",
"338 318 OFFCURVE",
"312 277 OFFCURVE",
"298 242 CURVE",
"283 233 OFFCURVE",
"256 205 OFFCURVE",
"246 184 CURVE",
"241 184 LINE"
);
}
);
vertWidth = 0;
width = 779;
}
);
},
{
glyphname = "E-adlam.medi";
production = u1E909.medi;
layers = (
{
anchors = (
{
name = bottom;
position = "{377, 0}";
},
{
name = top;
position = "{373, 666}";
},
{
name = "vowellengthencomb-adlam.case";
position = "{435, 557}";
}
);
layerId = "B0FCDF77-85CD-41D2-A2A0-D0893F1A1A59";
paths = (
{
closed = 1;
nodes = (
"87 0 LINE SMOOTH",
"165 0 OFFCURVE",
"191 22 OFFCURVE",
"198 77 CURVE",
"204 92 OFFCURVE",
"225 105 OFFCURVE",
"235 109 CURVE",
"240 109 LINE",
"240 52 OFFCURVE",
"283 0 OFFCURVE",
"377 0 CURVE SMOOTH",
"493 0 LINE SMOOTH",
"575 0 OFFCURVE",
"617 19 OFFCURVE",
"631 37 CURVE",
"636 37 LINE",
"643 15 OFFCURVE",
"659 0 OFFCURVE",
"702 0 CURVE SMOOTH",
"731 0 LINE SMOOTH",
"761 0 OFFCURVE",
"771 12 OFFCURVE",
"771 48 CURVE SMOOTH",
"771 74 LINE",
"720 74 LINE SMOOTH",
"682 74 OFFCURVE",
"676 90 OFFCURVE",
"676 147 CURVE SMOOTH",
"676 276 OFFCURVE",
"567 316 OFFCURVE",
"511 326 CURVE",
"510 330 LINE",
"582 382 OFFCURVE",
"631 438 OFFCURVE",
"631 545 CURVE SMOOTH",
"631 657 OFFCURVE",
"562 724 OFFCURVE",
"383 724 CURVE SMOOTH",
"208 724 OFFCURVE",
"110 655 OFFCURVE",
"110 483 CURVE SMOOTH",
"110 132 LINE SMOOTH",
"110 90 OFFCURVE",
"101 74 OFFCURVE",
"60 74 CURVE SMOOTH",
"-40 74 LINE",
"-40 48 LINE SMOOTH",
"-40 12 OFFCURVE",
"-30 0 OFFCURVE",
"0 0 CURVE SMOOTH"
);
},
{
closed = 1;
nodes = (
"346 79 OFFCURVE",
"318 97 OFFCURVE",
"318 145 CURVE SMOOTH",
"318 199 OFFCURVE",
"367 245 OFFCURVE",
"405 264 CURVE",
"410 266 OFFCURVE",
"421 267 OFFCURVE",
"432 267 CURVE SMOOTH",
"495 267 OFFCURVE",
"583 230 OFFCURVE",
"583 146 CURVE SMOOTH",
"583 97 OFFCURVE",
"555 79 OFFCURVE",
"493 79 CURVE SMOOTH",
"400 79 LINE SMOOTH"
);
},
{
closed = 1;
nodes = (
"200 483 LINE SMOOTH",
"200 608 OFFCURVE",
"277 645 OFFCURVE",
"383 645 CURVE SMOOTH",
"503 645 OFFCURVE",
"538 597 OFFCURVE",
"538 534 CURVE SMOOTH",
"538 456 OFFCURVE",
"503 422 OFFCURVE",
"396 350 CURVE SMOOTH",
"291 279 OFFCURVE",
"260 243 OFFCURVE",
"245 191 CURVE",
"227 182 OFFCURVE",
"211 171 OFFCURVE",
"203 163 CURVE",
"200 163 LINE"
);
}
);
vertWidth = 0;
width = 731;
},
{
anchors = (
{
name = bottom;
position = "{398, 0}";
},
{
name = top;
position = "{398, 666}";
},
{
name = "vowellengthencomb-adlam.case";
position = "{419, 602}";
}
);
layerId = "6CB8ADAF-854D-4ED0-880B-EED1FC4797A7";
paths = (
{
closed = 1;
nodes = (
"127 0 LINE SMOOTH",
"213 0 OFFCURVE",
"237 26 OFFCURVE",
"240 85 CURVE",
"247 98 OFFCURVE",
"269 117 OFFCURVE",
"281 122 CURVE",
"286 122 LINE",
"290 42 OFFCURVE",
"339 0 OFFCURVE",
"447 0 CURVE SMOOTH",
"523 0 LINE SMOOTH",
"590 0 OFFCURVE",
"642 12 OFFCURVE",
"669 40 CURVE",
"675 40 LINE",
"682 14 OFFCURVE",
"700 0 OFFCURVE",
"739 0 CURVE SMOOTH",
"779 0 LINE SMOOTH",
"804 0 OFFCURVE",
"819 7 OFFCURVE",
"819 38 CURVE SMOOTH",
"819 120 LINE",
"774 120 LINE SMOOTH",
"733 120 OFFCURVE",
"724 136 OFFCURVE",
"724 155 CURVE SMOOTH",
"724 269 OFFCURVE",
"642 314 OFFCURVE",
"553 324 CURVE",
"553 329 LINE",
"609 364 OFFCURVE",
"682 421 OFFCURVE",
"682 527 CURVE SMOOTH",
"682 657 OFFCURVE",
"605 724 OFFCURVE",
"398 724 CURVE SMOOTH",
"126 724 OFFCURVE",
"90 589 OFFCURVE",
"90 449 CURVE SMOOTH",
"90 178 LINE SMOOTH",
"90 136 OFFCURVE",
"81 120 OFFCURVE",
"40 120 CURVE SMOOTH",
"-40 120 LINE",
"-40 38 LINE SMOOTH",
"-40 7 OFFCURVE",
"-25 0 OFFCURVE",
"0 0 CURVE SMOOTH"
);
},
{
closed = 1;
nodes = (
"421 107 OFFCURVE",
"402 131 OFFCURVE",
"402 169 CURVE SMOOTH",
"402 213 OFFCURVE",
"429 242 OFFCURVE",
"451 257 CURVE",
"454 258 OFFCURVE",
"460 259 OFFCURVE",
"470 259 CURVE SMOOTH",
"531 259 OFFCURVE",
"568 215 OFFCURVE",
"568 167 CURVE SMOOTH",
"568 115 OFFCURVE",
"535 107 OFFCURVE",
"502 107 CURVE SMOOTH",
"461 107 LINE SMOOTH"
);
},
{
closed = 1;
nodes = (
"241 449 LINE SMOOTH",
"241 541 OFFCURVE",
"256 599 OFFCURVE",
"400 599 CURVE SMOOTH",
"496 599 OFFCURVE",
"526 560 OFFCURVE",
"526 508 CURVE SMOOTH",
"526 455 OFFCURVE",
"510 430 OFFCURVE",
"427 376 CURVE SMOOTH",
"338 318 OFFCURVE",
"312 277 OFFCURVE",
"295 235 CURVE",
"281 230 OFFCURVE",
"256 215 OFFCURVE",
"246 202 CURVE",
"241 202 LINE"
);
}
);
vertWidth = 0;
width = 779;
}
);
},
{
glyphname = "Fa-adlam";
production = u1E90A;
layers = (
{
anchors = (
{
name = top;
position = "{343, 663}";
}
);
layerId = "B0FCDF77-85CD-41D2-A2A0-D0893F1A1A59";
paths = (
{
closed = 1;
nodes = (
"572 -104 LINE",
"572 291 LINE SMOOTH",
"572 450 OFFCURVE",
"502 501 OFFCURVE",
"375 501 CURVE SMOOTH",
"260 501 OFFCURVE",
"216 460 OFFCURVE",
"194 435 CURVE",
"190 436 LINE",
"190 577 LINE SMOOTH",
"190 619 OFFCURVE",
"199 635 OFFCURVE",
"239 635 CURVE SMOOTH",
"550 635 LINE",
"550 714 LINE",
"212 714 LINE SMOOTH",
"118 714 OFFCURVE",
"100 682 OFFCURVE",
"100 596 CURVE SMOOTH",
"100 0 LINE",
"190 0 LINE",
"190 321 LINE SMOOTH",
"190 360 OFFCURVE",
"248 422 OFFCURVE",
"353 422 CURVE SMOOTH",
"440 422 OFFCURVE",
"482 382 OFFCURVE",
"482 269 CURVE SMOOTH",
"482 -104 LINE"
);
}
);
vertWidth = 0;
width = 667;
},
{
anchors = (
{
name = top;
position = "{354, 663}";
}
);
layerId = "6CB8ADAF-854D-4ED0-880B-EED1FC4797A7";
paths = (
{
closed = 1;
nodes = (
"624 -104 LINE",
"624 281 LINE SMOOTH",
"624 426 OFFCURVE",
"554 491 OFFCURVE",
"423 491 CURVE SMOOTH",
"314 491 OFFCURVE",
"268 450 OFFCURVE",
"246 425 CURVE",
"241 426 LINE",
"241 531 LINE SMOOTH",
"241 573 OFFCURVE",
"250 589 OFFCURVE",
"290 589 CURVE SMOOTH",
"602 589 LINE",
"602 714 LINE",
"202 714 LINE SMOOTH",
"108 714 OFFCURVE",
"90 682 OFFCURVE",
"90 596 CURVE SMOOTH",
"90 0 LINE",
"241 0 LINE",
"241 265 LINE SMOOTH",
"241 304 OFFCURVE",
"299 366 OFFCURVE",
"374 366 CURVE SMOOTH",
"445 366 OFFCURVE",
"473 326 OFFCURVE",
"473 242 CURVE SMOOTH",
"473 -104 LINE"
);
}
);
vertWidth = 0;
width = 699;
}
);
unicode = 1E90A;
},
{
glyphname = "Fa-adlam.fina";
production = u1E90A.fina;
layers = (
{
anchors = (
{
name = top;
position = "{343, 663}";
}
);
layerId = "B0FCDF77-85CD-41D2-A2A0-D0893F1A1A59";
paths = (
{
closed = 1;
nodes = (
"190 0 LINE",
"190 321 LINE SMOOTH",
"190 360 OFFCURVE",
"248 422 OFFCURVE",
"353 422 CURVE SMOOTH",
"440 422 OFFCURVE",
"482 382 OFFCURVE",
"482 269 CURVE SMOOTH",
"482 118 LINE SMOOTH",
"482 32 OFFCURVE",
"500 0 OFFCURVE",
"595 0 CURVE SMOOTH",
"667 0 LINE SMOOTH",
"697 0 OFFCURVE",
"707 12 OFFCURVE",
"707 48 CURVE SMOOTH",
"707 74 LINE",
"622 74 LINE SMOOTH",
"581 74 OFFCURVE",
"572 90 OFFCURVE",
"572 132 CURVE SMOOTH",
"572 291 LINE SMOOTH",
"572 450 OFFCURVE",
"502 501 OFFCURVE",
"375 501 CURVE SMOOTH",
"260 501 OFFCURVE",
"216 460 OFFCURVE",
"194 435 CURVE",
"190 436 LINE",
"190 577 LINE SMOOTH",
"190 619 OFFCURVE",
"199 635 OFFCURVE",
"239 635 CURVE SMOOTH",
"550 635 LINE",
"550 714 LINE",
"212 714 LINE SMOOTH",
"118 714 OFFCURVE",
"100 682 OFFCURVE",
"100 596 CURVE SMOOTH",
"100 0 LINE"
);
}
);
vertWidth = 0;
width = 667;
},
{
anchors = (
{
name = top;
position = "{354, 663}";
}
);
layerId = "6CB8ADAF-854D-4ED0-880B-EED1FC4797A7";
paths = (
{
closed = 1;
nodes = (
"241 0 LINE",
"241 265 LINE SMOOTH",
"241 304 OFFCURVE",
"299 366 OFFCURVE",
"374 366 CURVE SMOOTH",
"445 366 OFFCURVE",
"473 326 OFFCURVE",
"473 242 CURVE SMOOTH",
"473 118 LINE SMOOTH",
"473 32 OFFCURVE",
"492 0 OFFCURVE",
"587 0 CURVE SMOOTH",
"699 0 LINE SMOOTH",
"724 0 OFFCURVE",
"739 7 OFFCURVE",
"739 38 CURVE SMOOTH",
"739 120 LINE",
"674 120 LINE SMOOTH",
"633 120 OFFCURVE",
"624 136 OFFCURVE",
"624 178 CURVE SMOOTH",
"624 281 LINE SMOOTH",
"624 426 OFFCURVE",
"554 491 OFFCURVE",
"423 491 CURVE SMOOTH",
"314 491 OFFCURVE",
"268 450 OFFCURVE",
"246 425 CURVE",
"241 426 LINE",
"241 531 LINE SMOOTH",
"241 573 OFFCURVE",
"250 589 OFFCURVE",
"290 589 CURVE SMOOTH",
"602 589 LINE",
"602 714 LINE",
"202 714 LINE SMOOTH",
"108 714 OFFCURVE",
"90 682 OFFCURVE",
"90 596 CURVE SMOOTH",
"90 0 LINE"
);
}
);
vertWidth = 0;
width = 699;
}
);
},
{
glyphname = "Fa-adlam.init";
production = u1E90A.init;
layers = (
{
anchors = (
{
name = top;
position = "{343, 663}";
}
);
layerId = "B0FCDF77-85CD-41D2-A2A0-D0893F1A1A59";
paths = (
{
closed = 1;
nodes = (
"572 -104 LINE",
"572 291 LINE SMOOTH",
"572 450 OFFCURVE",
"502 501 OFFCURVE",
"375 501 CURVE SMOOTH",
"260 501 OFFCURVE",
"216 460 OFFCURVE",
"194 435 CURVE",
"190 436 LINE",
"190 577 LINE SMOOTH",
"190 619 OFFCURVE",
"199 635 OFFCURVE",
"239 635 CURVE SMOOTH",
"550 635 LINE",
"550 714 LINE",
"212 714 LINE SMOOTH",
"118 714 OFFCURVE",
"100 682 OFFCURVE",
"100 596 CURVE SMOOTH",
"100 132 LINE SMOOTH",
"100 90 OFFCURVE",
"91 74 OFFCURVE",
"50 74 CURVE SMOOTH",
"-40 74 LINE",
"-40 48 LINE SMOOTH",
"-40 12 OFFCURVE",
"-30 0 OFFCURVE",
"0 0 CURVE SMOOTH",
"77 0 LINE SMOOTH",
"172 0 OFFCURVE",
"190 32 OFFCURVE",
"190 118 CURVE SMOOTH",
"190 321 LINE SMOOTH",
"190 360 OFFCURVE",
"248 422 OFFCURVE",
"353 422 CURVE SMOOTH",
"440 422 OFFCURVE",
"482 382 OFFCURVE",
"482 269 CURVE SMOOTH",
"482 -104 LINE"
);
}
);
vertWidth = 0;
width = 667;
},
{
anchors = (
{
name = top;
position = "{354, 663}";
}
);
layerId = "6CB8ADAF-854D-4ED0-880B-EED1FC4797A7";
paths = (
{
closed = 1;
nodes = (
"624 -104 LINE",
"624 281 LINE SMOOTH",
"624 426 OFFCURVE",
"554 491 OFFCURVE",
"423 491 CURVE SMOOTH",
"314 491 OFFCURVE",
"268 450 OFFCURVE",
"246 425 CURVE",
"241 426 LINE",
"241 531 LINE SMOOTH",
"241 573 OFFCURVE",
"250 589 OFFCURVE",
"290 589 CURVE SMOOTH",
"602 589 LINE",
"602 714 LINE",
"202 714 LINE SMOOTH",
"108 714 OFFCURVE",
"90 682 OFFCURVE",
"90 596 CURVE SMOOTH",
"90 178 LINE SMOOTH",
"90 136 OFFCURVE",
"81 120 OFFCURVE",
"40 120 CURVE SMOOTH",
"-40 120 LINE",
"-40 38 LINE SMOOTH",
"-40 7 OFFCURVE",
"-25 0 OFFCURVE",
"0 0 CURVE SMOOTH",
"127 0 LINE SMOOTH",
"222 0 OFFCURVE",
"241 32 OFFCURVE",
"241 118 CURVE SMOOTH",
"241 265 LINE SMOOTH",
"241 304 OFFCURVE",
"299 366 OFFCURVE",
"374 366 CURVE SMOOTH",
"445 366 OFFCURVE",
"473 326 OFFCURVE",
"473 242 CURVE SMOOTH",
"473 -104 LINE"
);
}
);
vertWidth = 0;
width = 699;
}
);
},
{
export = 0;
glyphname = "Fa-adlam.isol";
production = u1E90A.isol;
layers = (
{
anchors = (
{
name = top;
position = "{343, 663}";
}
);
layerId = "B0FCDF77-85CD-41D2-A2A0-D0893F1A1A59";
paths = (
{
closed = 1;
nodes = (
"572 -104 LINE",
"572 291 LINE SMOOTH",
"572 450 OFFCURVE",
"502 501 OFFCURVE",
"375 501 CURVE SMOOTH",
"260 501 OFFCURVE",
"216 460 OFFCURVE",
"194 435 CURVE",
"190 436 LINE",
"190 577 LINE SMOOTH",
"190 619 OFFCURVE",
"199 635 OFFCURVE",
"239 635 CURVE SMOOTH",
"550 635 LINE",
"550 714 LINE",
"212 714 LINE SMOOTH",
"118 714 OFFCURVE",
"100 682 OFFCURVE",
"100 596 CURVE SMOOTH",
"100 0 LINE",
"190 0 LINE",
"190 321 LINE SMOOTH",
"190 360 OFFCURVE",
"248 422 OFFCURVE",
"353 422 CURVE SMOOTH",
"440 422 OFFCURVE",
"482 382 OFFCURVE",
"482 269 CURVE SMOOTH",
"482 -104 LINE"
);
}
);
vertWidth = 0;
width = 667;
},
{
anchors = (
{
name = top;
position = "{354, 663}";
}
);
layerId = "6CB8ADAF-854D-4ED0-880B-EED1FC4797A7";
paths = (
{
closed = 1;
nodes = (
"624 -104 LINE",
"624 281 LINE SMOOTH",
"624 426 OFFCURVE",
"554 491 OFFCURVE",
"423 491 CURVE SMOOTH",
"314 491 OFFCURVE",
"268 450 OFFCURVE",
"246 425 CURVE",
"241 426 LINE",
"241 531 LINE SMOOTH",
"241 573 OFFCURVE",
"250 589 OFFCURVE",
"290 589 CURVE SMOOTH",
"602 589 LINE",
"602 714 LINE",
"202 714 LINE SMOOTH",
"108 714 OFFCURVE",
"90 682 OFFCURVE",
"90 596 CURVE SMOOTH",
"90 0 LINE",
"241 0 LINE",
"241 265 LINE SMOOTH",
"241 304 OFFCURVE",
"299 366 OFFCURVE",
"374 366 CURVE SMOOTH",
"445 366 OFFCURVE",
"473 326 OFFCURVE",
"473 242 CURVE SMOOTH",
"473 -104 LINE"
);
}
);
vertWidth = 0;
width = 699;
}
);
},
{
glyphname = "Fa-adlam.medi";
production = u1E90A.medi;
layers = (
{
anchors = (
{
name = top;
position = "{343, 663}";
}
);
layerId = "B0FCDF77-85CD-41D2-A2A0-D0893F1A1A59";
paths = (
{
closed = 1;
nodes = (
"77 0 LINE SMOOTH",
"172 0 OFFCURVE",
"190 32 OFFCURVE",
"190 118 CURVE SMOOTH",
"190 321 LINE SMOOTH",
"190 360 OFFCURVE",
"248 422 OFFCURVE",
"353 422 CURVE SMOOTH",
"440 422 OFFCURVE",
"482 382 OFFCURVE",
"482 269 CURVE SMOOTH",
"482 118 LINE SMOOTH",
"482 32 OFFCURVE",
"500 0 OFFCURVE",
"595 0 CURVE SMOOTH",
"667 0 LINE SMOOTH",
"697 0 OFFCURVE",
"707 12 OFFCURVE",
"707 48 CURVE SMOOTH",
"707 74 LINE",
"622 74 LINE SMOOTH",
"581 74 OFFCURVE",
"572 90 OFFCURVE",
"572 132 CURVE SMOOTH",
"572 291 LINE SMOOTH",
"572 450 OFFCURVE",
"502 501 OFFCURVE",
"375 501 CURVE SMOOTH",
"260 501 OFFCURVE",
"216 460 OFFCURVE",
"194 435 CURVE",
"190 436 LINE",
"190 577 LINE SMOOTH",
"190 619 OFFCURVE",
"199 635 OFFCURVE",
"239 635 CURVE SMOOTH",
"550 635 LINE",
"550 714 LINE",
"212 714 LINE SMOOTH",
"118 714 OFFCURVE",
"100 682 OFFCURVE",
"100 596 CURVE SMOOTH",
"100 132 LINE SMOOTH",
"100 90 OFFCURVE",
"91 74 OFFCURVE",
"50 74 CURVE SMOOTH",
"-40 74 LINE",
"-40 48 LINE SMOOTH",
"-40 12 OFFCURVE",
"-30 0 OFFCURVE",
"0 0 CURVE SMOOTH"
);
}
);
vertWidth = 0;
width = 667;
},
{
anchors = (
{
name = top;
position = "{354, 663}";
}
);
layerId = "6CB8ADAF-854D-4ED0-880B-EED1FC4797A7";
paths = (
{
closed = 1;
nodes = (
"127 0 LINE SMOOTH",
"222 0 OFFCURVE",
"241 32 OFFCURVE",
"241 118 CURVE SMOOTH",
"241 265 LINE SMOOTH",
"241 304 OFFCURVE",
"299 366 OFFCURVE",
"374 366 CURVE SMOOTH",
"445 366 OFFCURVE",
"473 326 OFFCURVE",
"473 242 CURVE SMOOTH",
"473 118 LINE SMOOTH",
"473 32 OFFCURVE",
"492 0 OFFCURVE",
"587 0 CURVE SMOOTH",
"699 0 LINE SMOOTH",
"724 0 OFFCURVE",
"739 7 OFFCURVE",
"739 38 CURVE SMOOTH",
"739 120 LINE",
"674 120 LINE SMOOTH",
"633 120 OFFCURVE",
"624 136 OFFCURVE",
"624 178 CURVE SMOOTH",
"624 281 LINE SMOOTH",
"624 426 OFFCURVE",
"554 491 OFFCURVE",
"423 491 CURVE SMOOTH",
"314 491 OFFCURVE",
"268 450 OFFCURVE",
"246 425 CURVE",
"241 426 LINE",
"241 531 LINE SMOOTH",
"241 573 OFFCURVE",
"250 589 OFFCURVE",
"290 589 CURVE SMOOTH",
"602 589 LINE",
"602 714 LINE",
"202 714 LINE SMOOTH",
"108 714 OFFCURVE",
"90 682 OFFCURVE",
"90 596 CURVE SMOOTH",
"90 178 LINE SMOOTH",
"90 136 OFFCURVE",
"81 120 OFFCURVE",
"40 120 CURVE SMOOTH",
"-40 120 LINE",
"-40 38 LINE SMOOTH",
"-40 7 OFFCURVE",
"-25 0 OFFCURVE",
"0 0 CURVE SMOOTH"
);
}
);
vertWidth = 0;
width = 699;
}
);
},
{
glyphname = "Ga-adlam";
production = u1E918;
layers = (
{
anchors = (
{
name = gemconsonanttop;
position = "{330, 663}";
},
{
name = top;
position = "{317, 663}";
}
);
layerId = "B0FCDF77-85CD-41D2-A2A0-D0893F1A1A59";
paths = (
{
closed = 1;
nodes = (
"350 0 LINE SMOOTH",
"483 0 OFFCURVE",
"562 48 OFFCURVE",
"562 189 CURVE SMOOTH",
"562 327 OFFCURVE",
"482 365 OFFCURVE",
"435 377 CURVE",
"435 383 LINE",
"493 404 OFFCURVE",
"550 464 OFFCURVE",
"550 559 CURVE SMOOTH",
"550 683 OFFCURVE",
"488 714 OFFCURVE",
"375 714 CURVE SMOOTH",
"296 714 LINE",
"296 635 LINE",
"375 635 LINE SMOOTH",
"425 635 OFFCURVE",
"460 615 OFFCURVE",
"460 546 CURVE SMOOTH",
"460 466 OFFCURVE",
"409 411 OFFCURVE",
"282 411 CURVE SMOOTH",
"186 411 OFFCURVE",
"175 421 OFFCURVE",
"175 475 CURVE SMOOTH",
"174 714 LINE",
"84 714 LINE",
"84 473 LINE SMOOTH",
"84 346 OFFCURVE",
"99 332 OFFCURVE",
"275 332 CURVE SMOOTH",
"403 332 OFFCURVE",
"469 302 OFFCURVE",
"469 189 CURVE SMOOTH",
"469 114 OFFCURVE",
"426 79 OFFCURVE",
"347 79 CURVE SMOOTH",
"75 79 LINE",
"75 0 LINE"
);
}
);
vertWidth = 0;
width = 652;
},
{
anchors = (
{
name = gemconsonanttop;
position = "{350, 663}";
},
{
name = top;
position = "{337, 663}";
}
);
layerId = "6CB8ADAF-854D-4ED0-880B-EED1FC4797A7";
paths = (
{
closed = 1;
nodes = (
"372 0 LINE SMOOTH",
"553 0 OFFCURVE",
"614 52 OFFCURVE",
"614 202 CURVE SMOOTH",
"614 323 OFFCURVE",
"540 376 OFFCURVE",
"485 391 CURVE",
"485 396 LINE",
"535 409 OFFCURVE",
"605 457 OFFCURVE",
"605 556 CURVE SMOOTH",
"605 675 OFFCURVE",
"540 714 OFFCURVE",
"388 714 CURVE SMOOTH",
"328 714 LINE",
"328 589 LINE",
"372 589 LINE SMOOTH",
"432 589 OFFCURVE",
"449 563 OFFCURVE",
"449 521 CURVE SMOOTH",
"449 477 OFFCURVE",
"422 434 OFFCURVE",
"299 434 CURVE SMOOTH",
"228 434 OFFCURVE",
"226 450 OFFCURVE",
"226 498 CURVE SMOOTH",
"225 714 LINE",
"74 714 LINE",
"74 448 LINE SMOOTH",
"74 323 OFFCURVE",
"80 309 OFFCURVE",
"261 309 CURVE SMOOTH",
"428 309 OFFCURVE",
"458 277 OFFCURVE",
"458 211 CURVE SMOOTH",
"458 155 OFFCURVE",
"435 125 OFFCURVE",
"367 125 CURVE SMOOTH",
"65 125 LINE",
"65 0 LINE"
);
}
);
vertWidth = 0;
width = 680;
}
);
unicode = 1E918;
},
{
glyphname = "Ga-adlam.fina";
production = u1E918.fina;
layers = (
{
anchors = (
{
name = gemconsonanttop;
position = "{330, 663}";
},
{
name = top;
position = "{317, 663}";
}
);
layerId = "B0FCDF77-85CD-41D2-A2A0-D0893F1A1A59";
paths = (
{
closed = 1;
nodes = (
"350 0 LINE SMOOTH",
"432 0 OFFCURVE",
"477 19 OFFCURVE",
"497 37 CURVE",
"502 37 LINE",
"512 18 OFFCURVE",
"529 0 OFFCURVE",
"585 0 CURVE SMOOTH",
"652 0 LINE SMOOTH",
"682 0 OFFCURVE",
"692 12 OFFCURVE",
"692 48 CURVE SMOOTH",
"692 74 LINE",
"612 74 LINE SMOOTH",
"571 74 OFFCURVE",
"562 90 OFFCURVE",
"562 132 CURVE SMOOTH",
"562 189 LINE SMOOTH",
"562 327 OFFCURVE",
"482 365 OFFCURVE",
"435 377 CURVE",
"435 383 LINE",
"493 404 OFFCURVE",
"550 464 OFFCURVE",
"550 559 CURVE SMOOTH",
"550 683 OFFCURVE",
"488 714 OFFCURVE",
"375 714 CURVE SMOOTH",
"296 714 LINE",
"296 635 LINE",
"375 635 LINE SMOOTH",
"425 635 OFFCURVE",
"460 615 OFFCURVE",
"460 546 CURVE SMOOTH",
"460 466 OFFCURVE",
"409 411 OFFCURVE",
"282 411 CURVE SMOOTH",
"186 411 OFFCURVE",
"175 421 OFFCURVE",
"175 475 CURVE",
"174 714 LINE",
"84 714 LINE",
"84 473 LINE SMOOTH",
"84 346 OFFCURVE",
"99 332 OFFCURVE",
"275 332 CURVE SMOOTH",
"403 332 OFFCURVE",
"469 302 OFFCURVE",
"469 189 CURVE SMOOTH",
"469 109 OFFCURVE",
"426 74 OFFCURVE",
"347 74 CURVE SMOOTH",
"75 74 LINE",
"75 0 LINE"
);
}
);
vertWidth = 0;
width = 652;
},
{
anchors = (
{
name = gemconsonanttop;
position = "{350, 663}";
},
{
name = top;
position = "{337, 663}";
}
);
layerId = "6CB8ADAF-854D-4ED0-880B-EED1FC4797A7";
paths = (
{
closed = 1;
nodes = (
"372 0 LINE SMOOTH",
"494 0 OFFCURVE",
"537 26 OFFCURVE",
"553 40 CURVE",
"559 40 LINE",
"562 24 OFFCURVE",
"575 0 OFFCURVE",
"621 0 CURVE SMOOTH",
"680 0 LINE SMOOTH",
"705 0 OFFCURVE",
"720 7 OFFCURVE",
"720 38 CURVE SMOOTH",
"720 120 LINE",
"664 120 LINE SMOOTH",
"623 120 OFFCURVE",
"614 136 OFFCURVE",
"614 178 CURVE SMOOTH",
"614 202 LINE SMOOTH",
"614 323 OFFCURVE",
"540 376 OFFCURVE",
"485 391 CURVE",
"485 396 LINE",
"535 409 OFFCURVE",
"605 457 OFFCURVE",
"605 556 CURVE SMOOTH",
"605 675 OFFCURVE",
"540 714 OFFCURVE",
"388 714 CURVE SMOOTH",
"328 714 LINE",
"328 589 LINE",
"372 589 LINE SMOOTH",
"432 589 OFFCURVE",
"449 563 OFFCURVE",
"449 521 CURVE SMOOTH",
"449 477 OFFCURVE",
"422 434 OFFCURVE",
"299 434 CURVE SMOOTH",
"228 434 OFFCURVE",
"226 450 OFFCURVE",
"226 498 CURVE",
"225 714 LINE",
"74 714 LINE",
"74 448 LINE SMOOTH",
"74 323 OFFCURVE",
"80 309 OFFCURVE",
"261 309 CURVE SMOOTH",
"428 309 OFFCURVE",
"458 277 OFFCURVE",
"458 211 CURVE SMOOTH",
"458 150 OFFCURVE",
"435 120 OFFCURVE",
"367 120 CURVE SMOOTH",
"65 120 LINE",
"65 0 LINE"
);
}
);
vertWidth = 0;
width = 680;
}
);
},
{
glyphname = "Ga-adlam.init";
production = u1E918.init;
layers = (
{
anchors = (
{
name = gemconsonanttop;
position = "{330, 663}";
},
{
name = top;
position = "{317, 663}";
}
);
layerId = "B0FCDF77-85CD-41D2-A2A0-D0893F1A1A59";
paths = (
{
closed = 1;
nodes = (
"350 0 LINE SMOOTH",
"483 0 OFFCURVE",
"562 48 OFFCURVE",
"562 189 CURVE SMOOTH",
"562 327 OFFCURVE",
"482 365 OFFCURVE",
"435 377 CURVE",
"435 383 LINE",
"493 404 OFFCURVE",
"550 464 OFFCURVE",
"550 559 CURVE SMOOTH",
"550 683 OFFCURVE",
"488 714 OFFCURVE",
"375 714 CURVE SMOOTH",
"296 714 LINE",
"296 635 LINE",
"375 635 LINE SMOOTH",
"425 635 OFFCURVE",
"460 615 OFFCURVE",
"460 546 CURVE SMOOTH",
"460 466 OFFCURVE",
"409 411 OFFCURVE",
"282 411 CURVE SMOOTH",
"186 411 OFFCURVE",
"175 421 OFFCURVE",
"175 475 CURVE SMOOTH",
"174 714 LINE",
"84 714 LINE",
"84 473 LINE SMOOTH",
"84 346 OFFCURVE",
"99 332 OFFCURVE",
"275 332 CURVE SMOOTH",
"403 332 OFFCURVE",
"469 302 OFFCURVE",
"469 189 CURVE SMOOTH",
"469 109 OFFCURVE",
"426 74 OFFCURVE",
"347 74 CURVE SMOOTH",
"-40 74 LINE",
"-40 48 LINE SMOOTH",
"-40 12 OFFCURVE",
"-30 0 OFFCURVE",
"0 0 CURVE SMOOTH"
);
}
);
vertWidth = 0;
width = 652;
},
{
anchors = (
{
name = gemconsonanttop;
position = "{350, 663}";
},
{
name = top;
position = "{337, 663}";
}
);
layerId = "6CB8ADAF-854D-4ED0-880B-EED1FC4797A7";
paths = (
{
closed = 1;
nodes = (
"372 0 LINE SMOOTH",
"553 0 OFFCURVE",
"614 52 OFFCURVE",
"614 202 CURVE SMOOTH",
"614 323 OFFCURVE",
"540 376 OFFCURVE",
"485 391 CURVE",
"485 396 LINE",
"535 409 OFFCURVE",
"605 457 OFFCURVE",
"605 556 CURVE SMOOTH",
"605 675 OFFCURVE",
"540 714 OFFCURVE",
"388 714 CURVE SMOOTH",
"328 714 LINE",
"328 589 LINE",
"372 589 LINE SMOOTH",
"432 589 OFFCURVE",
"449 563 OFFCURVE",
"449 521 CURVE SMOOTH",
"449 477 OFFCURVE",
"422 434 OFFCURVE",
"299 434 CURVE SMOOTH",
"228 434 OFFCURVE",
"226 450 OFFCURVE",
"226 498 CURVE SMOOTH",
"225 714 LINE",
"74 714 LINE",
"74 448 LINE SMOOTH",
"74 323 OFFCURVE",
"80 309 OFFCURVE",
"261 309 CURVE SMOOTH",
"428 309 OFFCURVE",
"458 277 OFFCURVE",
"458 211 CURVE SMOOTH",
"458 150 OFFCURVE",
"435 120 OFFCURVE",
"367 120 CURVE SMOOTH",
"-40 120 LINE",
"-40 38 LINE SMOOTH",
"-40 7 OFFCURVE",
"-25 0 OFFCURVE",
"0 0 CURVE SMOOTH"
);
}
);
vertWidth = 0;
width = 680;
}
);
},
{
export = 0;
glyphname = "Ga-adlam.isol";
production = u1E918.isol;
layers = (
{
anchors = (
{
name = gemconsonanttop;
position = "{330, 663}";
},
{
name = top;
position = "{317, 663}";
}
);
layerId = "B0FCDF77-85CD-41D2-A2A0-D0893F1A1A59";
paths = (
{
closed = 1;
nodes = (
"350 0 LINE SMOOTH",
"483 0 OFFCURVE",
"562 48 OFFCURVE",
"562 189 CURVE SMOOTH",
"562 327 OFFCURVE",
"482 365 OFFCURVE",
"435 377 CURVE",
"435 383 LINE",
"493 404 OFFCURVE",
"550 464 OFFCURVE",
"550 559 CURVE SMOOTH",
"550 683 OFFCURVE",
"488 714 OFFCURVE",
"375 714 CURVE SMOOTH",
"296 714 LINE",
"296 635 LINE",
"375 635 LINE SMOOTH",
"425 635 OFFCURVE",
"460 615 OFFCURVE",
"460 546 CURVE SMOOTH",
"460 466 OFFCURVE",
"409 411 OFFCURVE",
"282 411 CURVE SMOOTH",
"186 411 OFFCURVE",
"175 421 OFFCURVE",
"175 475 CURVE SMOOTH",
"174 714 LINE",
"84 714 LINE",
"84 473 LINE SMOOTH",
"84 346 OFFCURVE",
"99 332 OFFCURVE",
"275 332 CURVE SMOOTH",
"403 332 OFFCURVE",
"469 302 OFFCURVE",
"469 189 CURVE SMOOTH",
"469 114 OFFCURVE",
"426 79 OFFCURVE",
"347 79 CURVE SMOOTH",
"75 79 LINE",
"75 0 LINE"
);
}
);
vertWidth = 0;
width = 652;
},
{
anchors = (
{
name = gemconsonanttop;
position = "{350, 663}";
},
{
name = top;
position = "{337, 663}";
}
);
layerId = "6CB8ADAF-854D-4ED0-880B-EED1FC4797A7";
paths = (
{
closed = 1;
nodes = (
"372 0 LINE SMOOTH",
"553 0 OFFCURVE",
"614 52 OFFCURVE",
"614 202 CURVE SMOOTH",
"614 323 OFFCURVE",
"540 376 OFFCURVE",
"485 391 CURVE",
"485 396 LINE",
"535 409 OFFCURVE",
"605 457 OFFCURVE",
"605 556 CURVE SMOOTH",
"605 675 OFFCURVE",
"540 714 OFFCURVE",
"388 714 CURVE SMOOTH",
"328 714 LINE",
"328 589 LINE",
"372 589 LINE SMOOTH",
"432 589 OFFCURVE",
"449 563 OFFCURVE",
"449 521 CURVE SMOOTH",
"449 477 OFFCURVE",
"422 434 OFFCURVE",
"299 434 CURVE SMOOTH",
"228 434 OFFCURVE",
"226 450 OFFCURVE",
"226 498 CURVE SMOOTH",
"225 714 LINE",
"74 714 LINE",
"74 448 LINE SMOOTH",
"74 323 OFFCURVE",
"80 309 OFFCURVE",
"261 309 CURVE SMOOTH",
"428 309 OFFCURVE",
"458 277 OFFCURVE",
"458 211 CURVE SMOOTH",
"458 155 OFFCURVE",
"435 125 OFFCURVE",
"367 125 CURVE SMOOTH",
"65 125 LINE",
"65 0 LINE"
);
}
);
vertWidth = 0;
width = 680;
}
);
},
{
glyphname = "Ga-adlam.medi";
production = u1E918.medi;
layers = (
{
anchors = (
{
name = gemconsonanttop;
position = "{330, 663}";
},
{
name = top;
position = "{317, 663}";
}
);
layerId = "B0FCDF77-85CD-41D2-A2A0-D0893F1A1A59";
paths = (
{
closed = 1;
nodes = (
"350 0 LINE SMOOTH",
"432 0 OFFCURVE",
"477 19 OFFCURVE",
"497 37 CURVE",
"502 37 LINE",
"512 18 OFFCURVE",
"529 0 OFFCURVE",
"585 0 CURVE SMOOTH",
"652 0 LINE SMOOTH",
"682 0 OFFCURVE",
"692 12 OFFCURVE",
"692 48 CURVE SMOOTH",
"692 74 LINE",
"612 74 LINE SMOOTH",
"571 74 OFFCURVE",
"562 90 OFFCURVE",
"562 132 CURVE SMOOTH",
"562 189 LINE SMOOTH",
"562 327 OFFCURVE",
"482 365 OFFCURVE",
"435 377 CURVE",
"435 383 LINE",
"493 404 OFFCURVE",
"550 464 OFFCURVE",
"550 559 CURVE SMOOTH",
"550 683 OFFCURVE",
"488 714 OFFCURVE",
"375 714 CURVE SMOOTH",
"296 714 LINE",
"296 635 LINE",
"375 635 LINE SMOOTH",
"425 635 OFFCURVE",
"460 615 OFFCURVE",
"460 546 CURVE SMOOTH",
"460 466 OFFCURVE",
"409 411 OFFCURVE",
"282 411 CURVE SMOOTH",
"186 411 OFFCURVE",
"175 421 OFFCURVE",
"175 475 CURVE SMOOTH",
"174 714 LINE",
"84 714 LINE",
"84 473 LINE SMOOTH",
"84 346 OFFCURVE",
"99 332 OFFCURVE",
"275 332 CURVE SMOOTH",
"403 332 OFFCURVE",
"469 302 OFFCURVE",
"469 189 CURVE SMOOTH",
"469 109 OFFCURVE",
"426 74 OFFCURVE",
"347 74 CURVE SMOOTH",
"-40 74 LINE",
"-40 48 LINE SMOOTH",
"-40 12 OFFCURVE",
"-30 0 OFFCURVE",
"0 0 CURVE SMOOTH"
);
}
);
vertWidth = 0;
width = 652;
},
{
anchors = (
{
name = gemconsonanttop;
position = "{350, 663}";
},
{
name = top;
position = "{337, 663}";
}
);
layerId = "6CB8ADAF-854D-4ED0-880B-EED1FC4797A7";
paths = (
{
closed = 1;
nodes = (
"372 0 LINE SMOOTH",
"494 0 OFFCURVE",
"537 26 OFFCURVE",
"553 40 CURVE",
"559 40 LINE",
"562 24 OFFCURVE",
"575 0 OFFCURVE",
"621 0 CURVE SMOOTH",
"680 0 LINE SMOOTH",
"705 0 OFFCURVE",
"720 7 OFFCURVE",
"720 38 CURVE SMOOTH",
"720 120 LINE",
"664 120 LINE SMOOTH",
"623 120 OFFCURVE",
"614 136 OFFCURVE",
"614 178 CURVE SMOOTH",
"614 202 LINE SMOOTH",
"614 323 OFFCURVE",
"540 376 OFFCURVE",
"485 391 CURVE",
"485 396 LINE",
"535 409 OFFCURVE",
"605 457 OFFCURVE",
"605 556 CURVE SMOOTH",
"605 675 OFFCURVE",
"540 714 OFFCURVE",
"388 714 CURVE SMOOTH",
"328 714 LINE",
"328 589 LINE",
"372 589 LINE SMOOTH",
"432 589 OFFCURVE",
"449 563 OFFCURVE",
"449 521 CURVE SMOOTH",
"449 477 OFFCURVE",
"422 434 OFFCURVE",
"299 434 CURVE SMOOTH",
"228 434 OFFCURVE",
"226 450 OFFCURVE",
"226 498 CURVE SMOOTH",
"225 714 LINE",
"74 714 LINE",
"74 448 LINE SMOOTH",
"74 323 OFFCURVE",
"80 309 OFFCURVE",
"261 309 CURVE SMOOTH",
"428 309 OFFCURVE",
"458 277 OFFCURVE",
"458 211 CURVE SMOOTH",
"458 150 OFFCURVE",
"435 120 OFFCURVE",
"367 120 CURVE SMOOTH",
"-40 120 LINE",
"-40 38 LINE SMOOTH",
"-40 7 OFFCURVE",
"-25 0 OFFCURVE",
"0 0 CURVE SMOOTH"
);
}
);
vertWidth = 0;
width = 680;
}
);
},
{
glyphname = "Gbe-adlam";
production = u1E91E;
layers = (
{
anchors = (
{
name = top;
position = "{366, 663}";
}
);
layerId = "B0FCDF77-85CD-41D2-A2A0-D0893F1A1A59";
paths = (
{
closed = 1;
nodes = (
"200 0 LINE",
"200 148 LINE",
"287 148 LINE",
"291 53 OFFCURVE",
"336 0 OFFCURVE",
"488 0 CURVE SMOOTH",
"610 0 LINE",
"610 79 LINE",
"493 79 LINE SMOOTH",
"405 79 OFFCURVE",
"380 107 OFFCURVE",
"380 162 CURVE SMOOTH",
"380 225 OFFCURVE",
"404 264 OFFCURVE",
"488 328 CURVE SMOOTH",
"574 393 OFFCURVE",
"616 437 OFFCURVE",
"616 538 CURVE SMOOTH",
"616 683 OFFCURVE",
"516 714 OFFCURVE",
"377 714 CURVE SMOOTH",
"110 714 LINE",
"110 635 LINE",
"377 635 LINE SMOOTH",
"477 635 OFFCURVE",
"523 602 OFFCURVE",
"523 537 CURVE SMOOTH",
"523 464 OFFCURVE",
"480 427 OFFCURVE",
"413 376 CURVE SMOOTH",
"344 324 OFFCURVE",
"309 285 OFFCURVE",
"293 223 CURVE",
"200 223 LINE",
"200 556 LINE",
"110 556 LINE",
"110 0 LINE"
);
}
);
vertWidth = 0;
width = 666;
},
{
anchors = (
{
name = top;
position = "{377, 663}";
}
);
layerId = "6CB8ADAF-854D-4ED0-880B-EED1FC4797A7";
paths = (
{
closed = 1;
nodes = (
"241 0 LINE",
"241 135 LINE",
"297 135 LINE",
"305 49 OFFCURVE",
"377 0 OFFCURVE",
"496 0 CURVE SMOOTH",
"653 0 LINE",
"653 125 LINE",
"544 125 LINE SMOOTH",
"476 125 OFFCURVE",
"451 148 OFFCURVE",
"451 189 CURVE SMOOTH",
"451 233 OFFCURVE",
"476 268 OFFCURVE",
"543 335 CURVE SMOOTH",
"617 411 OFFCURVE",
"659 457 OFFCURVE",
"659 546 CURVE SMOOTH",
"659 683 OFFCURVE",
"557 714 OFFCURVE",
"418 714 CURVE SMOOTH",
"90 714 LINE",
"90 589 LINE",
"388 589 LINE SMOOTH",
"476 589 OFFCURVE",
"503 568 OFFCURVE",
"503 524 CURVE SMOOTH",
"503 485 OFFCURVE",
"479 457 OFFCURVE",
"420 399 CURVE SMOOTH",
"347 328 OFFCURVE",
"313 279 OFFCURVE",
"303 236 CURVE",
"241 236 LINE",
"241 510 LINE",
"90 510 LINE",
"90 0 LINE"
);
}
);
vertWidth = 0;
width = 714;
}
);
unicode = 1E91E;
},
{
glyphname = "Gbe-adlam.fina";
production = u1E91E.fina;
layers = (
{
anchors = (
{
name = top;
position = "{366, 663}";
}
);
layerId = "B0FCDF77-85CD-41D2-A2A0-D0893F1A1A59";
paths = (
{
closed = 1;
nodes = (
"200 0 LINE",
"200 148 LINE",
"287 148 LINE",
"291 53 OFFCURVE",
"336 0 OFFCURVE",
"488 0 CURVE SMOOTH",
"666 0 LINE SMOOTH",
"696 0 OFFCURVE",
"706 12 OFFCURVE",
"706 48 CURVE SMOOTH",
"706 74 LINE",
"493 74 LINE SMOOTH",
"405 74 OFFCURVE",
"380 102 OFFCURVE",
"380 162 CURVE SMOOTH",
"380 225 OFFCURVE",
"404 264 OFFCURVE",
"488 328 CURVE SMOOTH",
"574 393 OFFCURVE",
"616 437 OFFCURVE",
"616 538 CURVE SMOOTH",
"616 683 OFFCURVE",
"516 714 OFFCURVE",
"377 714 CURVE SMOOTH",
"110 714 LINE",
"110 635 LINE",
"377 635 LINE SMOOTH",
"477 635 OFFCURVE",
"523 602 OFFCURVE",
"523 537 CURVE SMOOTH",
"523 464 OFFCURVE",
"480 427 OFFCURVE",
"413 376 CURVE SMOOTH",
"344 324 OFFCURVE",
"309 285 OFFCURVE",
"293 223 CURVE",
"200 223 LINE",
"200 556 LINE",
"110 556 LINE",
"110 0 LINE"
);
}
);
vertWidth = 0;
width = 666;
},
{
anchors = (
{
name = top;
position = "{377, 663}";
}
);
layerId = "6CB8ADAF-854D-4ED0-880B-EED1FC4797A7";
paths = (
{
closed = 1;
nodes = (
"241 0 LINE",
"241 135 LINE",
"297 135 LINE",
"305 49 OFFCURVE",
"377 0 OFFCURVE",
"496 0 CURVE SMOOTH",
"714 0 LINE SMOOTH",
"739 0 OFFCURVE",
"754 7 OFFCURVE",
"754 38 CURVE SMOOTH",
"754 120 LINE",
"544 120 LINE SMOOTH",
"476 120 OFFCURVE",
"451 143 OFFCURVE",
"451 189 CURVE SMOOTH",
"451 233 OFFCURVE",
"476 268 OFFCURVE",
"543 335 CURVE SMOOTH",
"617 411 OFFCURVE",
"659 457 OFFCURVE",
"659 546 CURVE SMOOTH",
"659 683 OFFCURVE",
"557 714 OFFCURVE",
"418 714 CURVE SMOOTH",
"90 714 LINE",
"90 589 LINE",
"388 589 LINE SMOOTH",
"476 589 OFFCURVE",
"503 568 OFFCURVE",
"503 524 CURVE SMOOTH",
"503 485 OFFCURVE",
"479 457 OFFCURVE",
"420 399 CURVE SMOOTH",
"347 328 OFFCURVE",
"313 279 OFFCURVE",
"303 236 CURVE",
"241 236 LINE",
"241 510 LINE",
"90 510 LINE",
"90 0 LINE"
);
}
);
vertWidth = 0;
width = 714;
}
);
},
{
glyphname = "Gbe-adlam.init";
production = u1E91E.init;
layers = (
{
anchors = (
{
name = top;
position = "{366, 663}";
}
);
layerId = "B0FCDF77-85CD-41D2-A2A0-D0893F1A1A59";
paths = (
{
closed = 1;
nodes = (
"87 0 LINE SMOOTH",
"182 0 OFFCURVE",
"200 32 OFFCURVE",
"200 118 CURVE SMOOTH",
"200 148 LINE",
"287 148 LINE",
"291 53 OFFCURVE",
"336 0 OFFCURVE",
"488 0 CURVE SMOOTH",
"610 0 LINE",
"610 74 LINE",
"493 74 LINE SMOOTH",
"405 74 OFFCURVE",
"380 102 OFFCURVE",
"380 162 CURVE SMOOTH",
"380 225 OFFCURVE",
"404 264 OFFCURVE",
"488 328 CURVE SMOOTH",
"574 393 OFFCURVE",
"616 437 OFFCURVE",
"616 538 CURVE SMOOTH",
"616 683 OFFCURVE",
"516 714 OFFCURVE",
"377 714 CURVE SMOOTH",
"110 714 LINE",
"110 635 LINE",
"377 635 LINE SMOOTH",
"477 635 OFFCURVE",
"523 602 OFFCURVE",
"523 537 CURVE SMOOTH",
"523 464 OFFCURVE",
"480 427 OFFCURVE",
"413 376 CURVE SMOOTH",
"344 324 OFFCURVE",
"309 285 OFFCURVE",
"293 223 CURVE",
"200 223 LINE",
"200 556 LINE",
"110 556 LINE",
"110 132 LINE SMOOTH",
"110 90 OFFCURVE",
"101 74 OFFCURVE",
"60 74 CURVE SMOOTH",
"-40 74 LINE",
"-40 48 LINE SMOOTH",
"-40 12 OFFCURVE",
"-30 0 OFFCURVE",
"0 0 CURVE SMOOTH"
);
}
);
vertWidth = 0;
width = 666;
},
{
anchors = (
{
name = top;
position = "{377, 663}";
}
);
layerId = "6CB8ADAF-854D-4ED0-880B-EED1FC4797A7";
paths = (
{
closed = 1;
nodes = (
"127 0 LINE SMOOTH",
"222 0 OFFCURVE",
"241 32 OFFCURVE",
"241 118 CURVE SMOOTH",
"241 135 LINE",
"297 135 LINE",
"305 49 OFFCURVE",
"377 0 OFFCURVE",
"496 0 CURVE SMOOTH",
"653 0 LINE",
"653 120 LINE",
"544 120 LINE SMOOTH",
"476 120 OFFCURVE",
"451 143 OFFCURVE",
"451 189 CURVE SMOOTH",
"451 233 OFFCURVE",
"476 268 OFFCURVE",
"543 335 CURVE SMOOTH",
"617 411 OFFCURVE",
"659 457 OFFCURVE",
"659 546 CURVE SMOOTH",
"659 683 OFFCURVE",
"557 714 OFFCURVE",
"418 714 CURVE SMOOTH",
"90 714 LINE",
"90 589 LINE",
"388 589 LINE SMOOTH",
"476 589 OFFCURVE",
"503 568 OFFCURVE",
"503 524 CURVE SMOOTH",
"503 485 OFFCURVE",
"479 457 OFFCURVE",
"420 399 CURVE SMOOTH",
"347 328 OFFCURVE",
"313 279 OFFCURVE",
"303 236 CURVE",
"241 236 LINE",
"241 510 LINE",
"90 510 LINE",
"90 178 LINE SMOOTH",
"90 136 OFFCURVE",
"81 120 OFFCURVE",
"40 120 CURVE SMOOTH",
"-40 120 LINE",
"-40 38 LINE SMOOTH",
"-40 7 OFFCURVE",
"-25 0 OFFCURVE",
"0 0 CURVE SMOOTH"
);
}
);
vertWidth = 0;
width = 714;
}
);
},
{
export = 0;
glyphname = "Gbe-adlam.isol";
production = u1E91E.isol;
layers = (
{
anchors = (
{
name = top;
position = "{366, 663}";
}
);
layerId = "B0FCDF77-85CD-41D2-A2A0-D0893F1A1A59";
paths = (
{
closed = 1;
nodes = (
"200 0 LINE",
"200 148 LINE",
"287 148 LINE",
"291 53 OFFCURVE",
"336 0 OFFCURVE",
"488 0 CURVE SMOOTH",
"610 0 LINE",
"610 79 LINE",
"493 79 LINE SMOOTH",
"405 79 OFFCURVE",
"380 107 OFFCURVE",
"380 162 CURVE SMOOTH",
"380 225 OFFCURVE",
"404 264 OFFCURVE",
"488 328 CURVE SMOOTH",
"574 393 OFFCURVE",
"616 437 OFFCURVE",
"616 538 CURVE SMOOTH",
"616 683 OFFCURVE",
"516 714 OFFCURVE",
"377 714 CURVE SMOOTH",
"110 714 LINE",
"110 635 LINE",
"377 635 LINE SMOOTH",
"477 635 OFFCURVE",
"523 602 OFFCURVE",
"523 537 CURVE SMOOTH",
"523 464 OFFCURVE",
"480 427 OFFCURVE",
"413 376 CURVE SMOOTH",
"344 324 OFFCURVE",
"309 285 OFFCURVE",
"293 223 CURVE",
"200 223 LINE",
"200 556 LINE",
"110 556 LINE",
"110 0 LINE"
);
}
);
vertWidth = 0;
width = 666;
},
{
anchors = (
{
name = top;
position = "{377, 663}";
}
);
layerId = "6CB8ADAF-854D-4ED0-880B-EED1FC4797A7";
paths = (
{
closed = 1;
nodes = (
"241 0 LINE",
"241 135 LINE",
"297 135 LINE",
"305 49 OFFCURVE",
"377 0 OFFCURVE",
"496 0 CURVE SMOOTH",
"653 0 LINE",
"653 125 LINE",
"544 125 LINE SMOOTH",
"476 125 OFFCURVE",
"451 148 OFFCURVE",
"451 189 CURVE SMOOTH",
"451 233 OFFCURVE",
"476 268 OFFCURVE",
"543 335 CURVE SMOOTH",
"617 411 OFFCURVE",
"659 457 OFFCURVE",
"659 546 CURVE SMOOTH",
"659 683 OFFCURVE",
"557 714 OFFCURVE",
"418 714 CURVE SMOOTH",
"90 714 LINE",
"90 589 LINE",
"388 589 LINE SMOOTH",
"476 589 OFFCURVE",
"503 568 OFFCURVE",
"503 524 CURVE SMOOTH",
"503 485 OFFCURVE",
"479 457 OFFCURVE",
"420 399 CURVE SMOOTH",
"347 328 OFFCURVE",
"313 279 OFFCURVE",
"303 236 CURVE",
"241 236 LINE",
"241 510 LINE",
"90 510 LINE",
"90 0 LINE"
);
}
);
vertWidth = 0;
width = 714;
}
);
},
{
glyphname = "Gbe-adlam.medi";
production = u1E91E.medi;
layers = (
{
anchors = (
{
name = top;
position = "{366, 663}";
}
);
layerId = "B0FCDF77-85CD-41D2-A2A0-D0893F1A1A59";
paths = (
{
closed = 1;
nodes = (
"87 0 LINE SMOOTH",
"182 0 OFFCURVE",
"200 32 OFFCURVE",
"200 118 CURVE SMOOTH",
"200 148 LINE",
"287 148 LINE",
"291 53 OFFCURVE",
"336 0 OFFCURVE",
"488 0 CURVE SMOOTH",
"666 0 LINE SMOOTH",
"696 0 OFFCURVE",
"706 12 OFFCURVE",
"706 48 CURVE SMOOTH",
"706 74 LINE",
"493 74 LINE SMOOTH",
"405 74 OFFCURVE",
"380 102 OFFCURVE",
"380 162 CURVE SMOOTH",
"380 225 OFFCURVE",
"404 264 OFFCURVE",
"488 328 CURVE SMOOTH",
"574 393 OFFCURVE",
"616 437 OFFCURVE",
"616 538 CURVE SMOOTH",
"616 683 OFFCURVE",
"516 714 OFFCURVE",
"377 714 CURVE SMOOTH",
"110 714 LINE",
"110 635 LINE",
"377 635 LINE SMOOTH",
"477 635 OFFCURVE",
"523 602 OFFCURVE",
"523 537 CURVE SMOOTH",
"523 464 OFFCURVE",
"480 427 OFFCURVE",
"413 376 CURVE SMOOTH",
"344 324 OFFCURVE",
"309 285 OFFCURVE",
"293 223 CURVE",
"200 223 LINE",
"200 556 LINE",
"110 556 LINE",
"110 132 LINE SMOOTH",
"110 90 OFFCURVE",
"101 74 OFFCURVE",
"60 74 CURVE SMOOTH",
"-40 74 LINE",
"-40 48 LINE SMOOTH",
"-40 12 OFFCURVE",
"-30 0 OFFCURVE",
"0 0 CURVE SMOOTH"
);
}
);
vertWidth = 0;
width = 666;
},
{
anchors = (
{
name = top;
position = "{377, 663}";
}
);
layerId = "6CB8ADAF-854D-4ED0-880B-EED1FC4797A7";
paths = (
{
closed = 1;
nodes = (
"127 0 LINE SMOOTH",
"222 0 OFFCURVE",
"241 32 OFFCURVE",
"241 118 CURVE SMOOTH",
"241 135 LINE",
"297 135 LINE",
"305 49 OFFCURVE",
"377 0 OFFCURVE",
"496 0 CURVE SMOOTH",
"714 0 LINE SMOOTH",
"739 0 OFFCURVE",
"754 7 OFFCURVE",
"754 38 CURVE SMOOTH",
"754 120 LINE",
"544 120 LINE SMOOTH",
"476 120 OFFCURVE",
"451 143 OFFCURVE",
"451 189 CURVE SMOOTH",
"451 233 OFFCURVE",
"476 268 OFFCURVE",
"543 335 CURVE SMOOTH",
"617 411 OFFCURVE",
"659 457 OFFCURVE",
"659 546 CURVE SMOOTH",
"659 683 OFFCURVE",
"557 714 OFFCURVE",
"418 714 CURVE SMOOTH",
"90 714 LINE",
"90 589 LINE",
"388 589 LINE SMOOTH",
"476 589 OFFCURVE",
"503 568 OFFCURVE",
"503 524 CURVE SMOOTH",
"503 485 OFFCURVE",
"479 457 OFFCURVE",
"420 399 CURVE SMOOTH",
"347 328 OFFCURVE",
"313 279 OFFCURVE",
"303 236 CURVE",
"241 236 LINE",
"241 510 LINE",
"90 510 LINE",
"90 178 LINE SMOOTH",
"90 136 OFFCURVE",
"81 120 OFFCURVE",
"40 120 CURVE SMOOTH",
"-40 120 LINE",
"-40 38 LINE SMOOTH",
"-40 7 OFFCURVE",
"-25 0 OFFCURVE",
"0 0 CURVE SMOOTH"
);
}
);
vertWidth = 0;
width = 714;
}
);
},
{
glyphname = "Ha-adlam";
production = u1E916;
layers = (
{
anchors = (
{
name = gemconsonanttop;
position = "{327, 663}";
},
{
name = top;
position = "{331, 663}";
}
);
layerId = "B0FCDF77-85CD-41D2-A2A0-D0893F1A1A59";
paths = (
{
closed = 1;
nodes = (
"293 0 LINE SMOOTH",
"490 0 OFFCURVE",
"573 72 OFFCURVE",
"573 249 CURVE SMOOTH",
"573 440 OFFCURVE",
"471 508 OFFCURVE",
"288 508 CURVE SMOOTH",
"231 508 LINE SMOOTH",
"190 508 OFFCURVE",
"181 524 OFFCURVE",
"181 566 CURVE SMOOTH",
"181 714 LINE",
"91 714 LINE",
"91 547 LINE SMOOTH",
"91 461 OFFCURVE",
"109 429 OFFCURVE",
"204 429 CURVE SMOOTH",
"283 429 LINE SMOOTH",
"394 429 OFFCURVE",
"480 391 OFFCURVE",
"480 244 CURVE SMOOTH",
"480 126 OFFCURVE",
"425 79 OFFCURVE",
"293 79 CURVE SMOOTH",
"90 79 LINE",
"90 0 LINE"
);
}
);
vertWidth = 0;
width = 643;
},
{
anchors = (
{
name = gemconsonanttop;
position = "{342, 663}";
},
{
name = top;
position = "{346, 663}";
}
);
layerId = "6CB8ADAF-854D-4ED0-880B-EED1FC4797A7";
paths = (
{
closed = 1;
nodes = (
"303 0 LINE SMOOTH",
"518 0 OFFCURVE",
"620 72 OFFCURVE",
"620 265 CURVE SMOOTH",
"620 463 OFFCURVE",
"518 531 OFFCURVE",
"323 531 CURVE SMOOTH",
"277 531 LINE SMOOTH",
"236 531 OFFCURVE",
"227 547 OFFCURVE",
"227 589 CURVE SMOOTH",
"227 714 LINE",
"76 714 LINE",
"76 524 LINE SMOOTH",
"76 438 OFFCURVE",
"94 406 OFFCURVE",
"189 406 CURVE SMOOTH",
"277 406 LINE SMOOTH",
"388 406 OFFCURVE",
"464 368 OFFCURVE",
"464 260 CURVE SMOOTH",
"464 172 OFFCURVE",
"419 125 OFFCURVE",
"287 125 CURVE SMOOTH",
"75 125 LINE",
"75 0 LINE"
);
}
);
vertWidth = 0;
width = 680;
}
);
unicode = 1E916;
},
{
glyphname = "Ha-adlam.fina";
production = u1E916.fina;
layers = (
{
anchors = (
{
name = gemconsonanttop;
position = "{327, 663}";
},
{
name = top;
position = "{331, 663}";
}
);
layerId = "B0FCDF77-85CD-41D2-A2A0-D0893F1A1A59";
paths = (
{
closed = 1;
nodes = (
"293 0 LINE SMOOTH",
"418 0 OFFCURVE",
"471 31 OFFCURVE",
"493 47 CURVE",
"498 47 LINE",
"508 17 OFFCURVE",
"529 0 OFFCURVE",
"596 0 CURVE SMOOTH",
"643 0 LINE SMOOTH",
"673 0 OFFCURVE",
"683 12 OFFCURVE",
"683 48 CURVE SMOOTH",
"683 74 LINE",
"615 74 LINE SMOOTH",
"574 74 OFFCURVE",
"565 90 OFFCURVE",
"565 121 CURVE SMOOTH",
"565 158 OFFCURVE",
"573 190 OFFCURVE",
"573 249 CURVE SMOOTH",
"573 440 OFFCURVE",
"471 508 OFFCURVE",
"288 508 CURVE SMOOTH",
"231 508 LINE SMOOTH",
"190 508 OFFCURVE",
"181 524 OFFCURVE",
"181 566 CURVE SMOOTH",
"181 714 LINE",
"91 714 LINE",
"91 547 LINE SMOOTH",
"91 461 OFFCURVE",
"109 429 OFFCURVE",
"204 429 CURVE SMOOTH",
"283 429 LINE SMOOTH",
"394 429 OFFCURVE",
"480 391 OFFCURVE",
"480 244 CURVE SMOOTH",
"480 121 OFFCURVE",
"425 74 OFFCURVE",
"293 74 CURVE SMOOTH",
"90 74 LINE",
"90 0 LINE"
);
}
);
vertWidth = 0;
width = 643;
},
{
anchors = (
{
name = gemconsonanttop;
position = "{342, 663}";
},
{
name = top;
position = "{346, 663}";
}
);
layerId = "6CB8ADAF-854D-4ED0-880B-EED1FC4797A7";
paths = (
{
closed = 1;
nodes = (
"317 0 LINE SMOOTH",
"448 0 OFFCURVE",
"508 36 OFFCURVE",
"525 48 CURVE",
"531 48 LINE",
"535 26 OFFCURVE",
"548 0 OFFCURVE",
"601 0 CURVE SMOOTH",
"680 0 LINE SMOOTH",
"705 0 OFFCURVE",
"720 7 OFFCURVE",
"720 38 CURVE SMOOTH",
"720 120 LINE",
"653 120 LINE SMOOTH",
"621 120 OFFCURVE",
"612 131 OFFCURVE",
"612 155 CURVE SMOOTH",
"612 179 OFFCURVE",
"620 214 OFFCURVE",
"620 260 CURVE SMOOTH",
"620 463 OFFCURVE",
"518 531 OFFCURVE",
"323 531 CURVE SMOOTH",
"277 531 LINE SMOOTH",
"236 531 OFFCURVE",
"227 547 OFFCURVE",
"227 589 CURVE SMOOTH",
"227 714 LINE",
"76 714 LINE",
"76 524 LINE SMOOTH",
"76 438 OFFCURVE",
"94 406 OFFCURVE",
"189 406 CURVE SMOOTH",
"277 406 LINE SMOOTH",
"388 406 OFFCURVE",
"464 368 OFFCURVE",
"464 260 CURVE SMOOTH",
"464 167 OFFCURVE",
"419 120 OFFCURVE",
"287 120 CURVE SMOOTH",
"75 120 LINE",
"75 0 LINE"
);
}
);
vertWidth = 0;
width = 680;
}
);
leftKerningGroup = "Ha-adlam.medi";
},
{
glyphname = "Ha-adlam.init";
production = u1E916.init;
layers = (
{
anchors = (
{
name = gemconsonanttop;
position = "{327, 663}";
},
{
name = top;
position = "{331, 663}";
}
);
layerId = "B0FCDF77-85CD-41D2-A2A0-D0893F1A1A59";
paths = (
{
closed = 1;
nodes = (
"293 0 LINE SMOOTH",
"490 0 OFFCURVE",
"573 72 OFFCURVE",
"573 249 CURVE SMOOTH",
"573 440 OFFCURVE",
"471 508 OFFCURVE",
"288 508 CURVE SMOOTH",
"231 508 LINE SMOOTH",
"190 508 OFFCURVE",
"181 524 OFFCURVE",
"181 566 CURVE SMOOTH",
"181 714 LINE",
"91 714 LINE",
"91 547 LINE SMOOTH",
"91 461 OFFCURVE",
"109 429 OFFCURVE",
"204 429 CURVE SMOOTH",
"283 429 LINE SMOOTH",
"394 429 OFFCURVE",
"480 391 OFFCURVE",
"480 244 CURVE SMOOTH",
"480 121 OFFCURVE",
"425 74 OFFCURVE",
"293 74 CURVE SMOOTH",
"-40 74 LINE",
"-40 48 LINE SMOOTH",
"-40 12 OFFCURVE",
"-30 0 OFFCURVE",
"0 0 CURVE SMOOTH"
);
}
);
vertWidth = 0;
width = 643;
},
{
anchors = (
{
name = gemconsonanttop;
position = "{342, 663}";
},
{
name = top;
position = "{346, 663}";
}
);
layerId = "6CB8ADAF-854D-4ED0-880B-EED1FC4797A7";
paths = (
{
closed = 1;
nodes = (
"303 0 LINE SMOOTH",
"518 0 OFFCURVE",
"620 72 OFFCURVE",
"620 265 CURVE SMOOTH",
"620 463 OFFCURVE",
"518 531 OFFCURVE",
"323 531 CURVE SMOOTH",
"277 531 LINE SMOOTH",
"236 531 OFFCURVE",
"227 547 OFFCURVE",
"227 589 CURVE SMOOTH",
"227 714 LINE",
"76 714 LINE",
"76 524 LINE SMOOTH",
"76 438 OFFCURVE",
"94 406 OFFCURVE",
"189 406 CURVE SMOOTH",
"277 406 LINE SMOOTH",
"388 406 OFFCURVE",
"464 368 OFFCURVE",
"464 260 CURVE SMOOTH",
"464 167 OFFCURVE",
"419 120 OFFCURVE",
"287 120 CURVE SMOOTH",
"-40 120 LINE",
"-40 38 LINE SMOOTH",
"-40 7 OFFCURVE",
"-25 0 OFFCURVE",
"0 0 CURVE SMOOTH"
);
}
);
vertWidth = 0;
width = 680;
}
);
},
{
export = 0;
glyphname = "Ha-adlam.isol";
production = u1E916.isol;
layers = (
{
anchors = (
{
name = gemconsonanttop;
position = "{327, 663}";
},
{
name = top;
position = "{331, 663}";
}
);
layerId = "B0FCDF77-85CD-41D2-A2A0-D0893F1A1A59";
paths = (
{
closed = 1;
nodes = (
"293 0 LINE SMOOTH",
"490 0 OFFCURVE",
"573 72 OFFCURVE",
"573 249 CURVE SMOOTH",
"573 440 OFFCURVE",
"471 508 OFFCURVE",
"288 508 CURVE SMOOTH",
"231 508 LINE SMOOTH",
"190 508 OFFCURVE",
"181 524 OFFCURVE",
"181 566 CURVE SMOOTH",
"181 714 LINE",
"91 714 LINE",
"91 547 LINE SMOOTH",
"91 461 OFFCURVE",
"109 429 OFFCURVE",
"204 429 CURVE SMOOTH",
"283 429 LINE SMOOTH",
"394 429 OFFCURVE",
"480 391 OFFCURVE",
"480 244 CURVE SMOOTH",
"480 126 OFFCURVE",
"425 79 OFFCURVE",
"293 79 CURVE SMOOTH",
"90 79 LINE",
"90 0 LINE"
);
}
);
vertWidth = 0;
width = 643;
},
{
anchors = (
{
name = gemconsonanttop;
position = "{342, 663}";
},
{
name = top;
position = "{346, 663}";
}
);
layerId = "6CB8ADAF-854D-4ED0-880B-EED1FC4797A7";
paths = (
{
closed = 1;
nodes = (
"303 0 LINE SMOOTH",
"518 0 OFFCURVE",
"620 72 OFFCURVE",
"620 265 CURVE SMOOTH",
"620 463 OFFCURVE",
"518 531 OFFCURVE",
"323 531 CURVE SMOOTH",
"277 531 LINE SMOOTH",
"236 531 OFFCURVE",
"227 547 OFFCURVE",
"227 589 CURVE SMOOTH",
"227 714 LINE",
"76 714 LINE",
"76 524 LINE SMOOTH",
"76 438 OFFCURVE",
"94 406 OFFCURVE",
"189 406 CURVE SMOOTH",
"277 406 LINE SMOOTH",
"388 406 OFFCURVE",
"464 368 OFFCURVE",
"464 260 CURVE SMOOTH",
"464 172 OFFCURVE",
"419 125 OFFCURVE",
"287 125 CURVE SMOOTH",
"75 125 LINE",
"75 0 LINE"
);
}
);
vertWidth = 0;
width = 680;
}
);
},
{
glyphname = "Ha-adlam.medi";
production = u1E916.medi;
layers = (
{
anchors = (
{
name = gemconsonanttop;
position = "{327, 663}";
},
{
name = top;
position = "{331, 663}";
}
);
layerId = "B0FCDF77-85CD-41D2-A2A0-D0893F1A1A59";
paths = (
{
closed = 1;
nodes = (
"293 0 LINE SMOOTH",
"418 0 OFFCURVE",
"471 31 OFFCURVE",
"493 47 CURVE",
"498 47 LINE",
"508 17 OFFCURVE",
"529 0 OFFCURVE",
"596 0 CURVE SMOOTH",
"643 0 LINE SMOOTH",
"673 0 OFFCURVE",
"683 12 OFFCURVE",
"683 48 CURVE SMOOTH",
"683 74 LINE",
"615 74 LINE SMOOTH",
"574 74 OFFCURVE",
"565 90 OFFCURVE",
"565 121 CURVE SMOOTH",
"565 158 OFFCURVE",
"573 190 OFFCURVE",
"573 249 CURVE SMOOTH",
"573 440 OFFCURVE",
"471 508 OFFCURVE",
"288 508 CURVE SMOOTH",
"231 508 LINE SMOOTH",
"190 508 OFFCURVE",
"181 524 OFFCURVE",
"181 566 CURVE SMOOTH",
"181 714 LINE",
"91 714 LINE",
"91 547 LINE SMOOTH",
"91 461 OFFCURVE",
"109 429 OFFCURVE",
"204 429 CURVE SMOOTH",
"283 429 LINE SMOOTH",
"394 429 OFFCURVE",
"480 391 OFFCURVE",
"480 244 CURVE SMOOTH",
"480 121 OFFCURVE",
"425 74 OFFCURVE",
"293 74 CURVE SMOOTH",
"-40 74 LINE",
"-40 48 LINE SMOOTH",
"-40 12 OFFCURVE",
"-30 0 OFFCURVE",
"0 0 CURVE SMOOTH"
);
}
);
vertWidth = 0;
width = 643;
},
{
anchors = (
{
name = gemconsonanttop;
position = "{342, 663}";
},
{
name = top;
position = "{346, 663}";
}
);
layerId = "6CB8ADAF-854D-4ED0-880B-EED1FC4797A7";
paths = (
{
closed = 1;
nodes = (
"316 0 LINE SMOOTH",
"448 0 OFFCURVE",
"508 36 OFFCURVE",
"525 48 CURVE",
"531 48 LINE",
"535 26 OFFCURVE",
"548 0 OFFCURVE",
"601 0 CURVE SMOOTH",
"680 0 LINE SMOOTH",
"705 0 OFFCURVE",
"720 7 OFFCURVE",
"720 38 CURVE SMOOTH",
"720 120 LINE",
"653 120 LINE SMOOTH",
"621 120 OFFCURVE",
"612 131 OFFCURVE",
"612 155 CURVE SMOOTH",
"612 179 OFFCURVE",
"620 214 OFFCURVE",
"620 260 CURVE SMOOTH",
"620 458 OFFCURVE",
"518 531 OFFCURVE",
"323 531 CURVE SMOOTH",
"277 531 LINE SMOOTH",
"236 531 OFFCURVE",
"227 547 OFFCURVE",
"227 589 CURVE SMOOTH",
"227 714 LINE",
"76 714 LINE",
"76 524 LINE SMOOTH",
"76 438 OFFCURVE",
"94 406 OFFCURVE",
"189 406 CURVE SMOOTH",
"277 406 LINE SMOOTH",
"388 406 OFFCURVE",
"464 368 OFFCURVE",
"464 260 CURVE SMOOTH",
"464 167 OFFCURVE",
"419 120 OFFCURVE",
"287 120 CURVE SMOOTH",
"-40 120 LINE",
"-40 38 LINE SMOOTH",
"-40 7 OFFCURVE",
"-25 0 OFFCURVE",
"0 0 CURVE SMOOTH"
);
}
);
vertWidth = 0;
width = 680;
}
);
leftKerningGroup = "Ha-adlam.medi";
},
{
glyphname = "I-adlam";
production = u1E90B;
layers = (
{
anchors = (
{
name = "vowellengthencomb-adlam.case";
position = "{459, 557}";
}
);
layerId = "B0FCDF77-85CD-41D2-A2A0-D0893F1A1A59";
paths = (
{
closed = 1;
nodes = (
"595 -10 OFFCURVE",
"703 37 OFFCURVE",
"703 233 CURVE SMOOTH",
"703 714 LINE",
"613 714 LINE",
"613 236 LINE SMOOTH",
"613 114 OFFCURVE",
"556 69 OFFCURVE",
"407 69 CURVE SMOOTH",
"258 69 OFFCURVE",
"200 114 OFFCURVE",
"200 236 CURVE SMOOTH",
"200 714 LINE",
"110 714 LINE",
"110 233 LINE SMOOTH",
"110 37 OFFCURVE",
"208 -10 OFFCURVE",
"401 -10 CURVE SMOOTH"
);
}
);
vertWidth = 0;
width = 813;
},
{
anchors = (
{
name = "vowellengthencomb-adlam.case";
position = "{470, 557}";
}
);
layerId = "6CB8ADAF-854D-4ED0-880B-EED1FC4797A7";
paths = (
{
closed = 1;
nodes = (
"642 -10 OFFCURVE",
"745 57 OFFCURVE",
"745 253 CURVE SMOOTH",
"745 714 LINE",
"594 714 LINE",
"594 282 LINE SMOOTH",
"594 160 OFFCURVE",
"552 115 OFFCURVE",
"423 115 CURVE SMOOTH",
"294 115 OFFCURVE",
"241 160 OFFCURVE",
"241 282 CURVE SMOOTH",
"241 714 LINE",
"90 714 LINE",
"90 253 LINE SMOOTH",
"90 57 OFFCURVE",
"193 -10 OFFCURVE",
"417 -10 CURVE SMOOTH"
);
}
);
vertWidth = 0;
width = 835;
}
);
unicode = 1E90B;
},
{
glyphname = "I-adlam.fina";
production = u1E90B.fina;
layers = (
{
anchors = (
{
name = "vowellengthencomb-adlam.case";
position = "{459, 557}";
}
);
layerId = "B0FCDF77-85CD-41D2-A2A0-D0893F1A1A59";
paths = (
{
closed = 1;
nodes = (
"499 -10 OFFCURVE",
"571 2 OFFCURVE",
"623 39 CURVE",
"629 39 LINE",
"636 18 OFFCURVE",
"657 0 OFFCURVE",
"726 0 CURVE SMOOTH",
"813 0 LINE SMOOTH",
"843 0 OFFCURVE",
"853 13 OFFCURVE",
"853 48 CURVE SMOOTH",
"853 74 LINE",
"753 74 LINE SMOOTH",
"712 74 OFFCURVE",
"703 90 OFFCURVE",
"703 132 CURVE SMOOTH",
"703 714 LINE",
"613 714 LINE",
"613 236 LINE SMOOTH",
"613 114 OFFCURVE",
"556 69 OFFCURVE",
"407 69 CURVE SMOOTH",
"258 69 OFFCURVE",
"200 114 OFFCURVE",
"200 236 CURVE SMOOTH",
"200 714 LINE",
"110 714 LINE",
"110 233 LINE SMOOTH",
"110 37 OFFCURVE",
"208 -10 OFFCURVE",
"401 -10 CURVE SMOOTH"
);
}
);
vertWidth = 0;
width = 813;
},
{
anchors = (
{
name = "vowellengthencomb-adlam.case";
position = "{470, 557}";
}
);
layerId = "6CB8ADAF-854D-4ED0-880B-EED1FC4797A7";
paths = (
{
closed = 1;
nodes = (
"548 -10 OFFCURVE",
"626 16 OFFCURVE",
"648 40 CURVE",
"654 40 LINE",
"664 14 OFFCURVE",
"690 0 OFFCURVE",
"742 0 CURVE SMOOTH",
"835 0 LINE SMOOTH",
"860 0 OFFCURVE",
"875 7 OFFCURVE",
"875 38 CURVE SMOOTH",
"875 120 LINE",
"795 120 LINE SMOOTH",
"754 120 OFFCURVE",
"745 136 OFFCURVE",
"745 178 CURVE SMOOTH",
"745 714 LINE",
"594 714 LINE",
"594 282 LINE SMOOTH",
"594 160 OFFCURVE",
"552 115 OFFCURVE",
"423 115 CURVE SMOOTH",
"294 115 OFFCURVE",
"241 160 OFFCURVE",
"241 282 CURVE SMOOTH",
"241 714 LINE",
"90 714 LINE",
"90 253 LINE SMOOTH",
"90 57 OFFCURVE",
"193 -10 OFFCURVE",
"417 -10 CURVE SMOOTH"
);
}
);
vertWidth = 0;
width = 835;
}
);
},
{
glyphname = "I-adlam.init";
production = u1E90B.init;
layers = (
{
anchors = (
{
name = "vowellengthencomb-adlam.case";
position = "{459, 557}";
}
);
layerId = "B0FCDF77-85CD-41D2-A2A0-D0893F1A1A59";
paths = (
{
closed = 1;
nodes = (
"595 -10 OFFCURVE",
"703 37 OFFCURVE",
"703 233 CURVE SMOOTH",
"703 714 LINE",
"613 714 LINE",
"613 236 LINE SMOOTH",
"613 114 OFFCURVE",
"556 69 OFFCURVE",
"407 69 CURVE SMOOTH",
"258 69 OFFCURVE",
"200 114 OFFCURVE",
"200 236 CURVE SMOOTH",
"200 714 LINE",
"110 714 LINE",
"110 132 LINE SMOOTH",
"110 90 OFFCURVE",
"101 74 OFFCURVE",
"60 74 CURVE SMOOTH",
"-40 74 LINE",
"-40 48 LINE SMOOTH",
"-40 13 OFFCURVE",
"-30 0 OFFCURVE",
"0 0 CURVE SMOOTH",
"87 0 LINE SMOOTH",
"138 0 OFFCURVE",
"168 14 OFFCURVE",
"179 39 CURVE",
"185 39 LINE",
"209 17 OFFCURVE",
"262 -10 OFFCURVE",
"401 -10 CURVE SMOOTH"
);
}
);
vertWidth = 0;
width = 813;
},
{
anchors = (
{
name = "vowellengthencomb-adlam.case";
position = "{470, 557}";
}
);
layerId = "6CB8ADAF-854D-4ED0-880B-EED1FC4797A7";
paths = (
{
closed = 1;
nodes = (
"642 -10 OFFCURVE",
"745 57 OFFCURVE",
"745 253 CURVE SMOOTH",
"745 714 LINE",
"594 714 LINE",
"594 282 LINE SMOOTH",
"594 160 OFFCURVE",
"552 115 OFFCURVE",
"423 115 CURVE SMOOTH",
"294 115 OFFCURVE",
"241 160 OFFCURVE",
"241 282 CURVE SMOOTH",
"241 714 LINE",
"90 714 LINE",
"90 178 LINE SMOOTH",
"90 136 OFFCURVE",
"81 120 OFFCURVE",
"40 120 CURVE SMOOTH",
"-40 120 LINE",
"-40 38 LINE SMOOTH",
"-40 7 OFFCURVE",
"-25 0 OFFCURVE",
"0 0 CURVE SMOOTH",
"95 0 LINE SMOOTH",
"148 0 OFFCURVE",
"170 16 OFFCURVE",
"177 40 CURVE",
"183 40 LINE",
"207 21 OFFCURVE",
"269 -10 OFFCURVE",
"417 -10 CURVE SMOOTH"
);
}
);
vertWidth = 0;
width = 835;
}
);
},
{
export = 0;
glyphname = "I-adlam.isol";
production = u1E90B.isol;
layers = (
{
anchors = (
{
name = "vowellengthencomb-adlam.case";
position = "{459, 557}";
}
);
layerId = "B0FCDF77-85CD-41D2-A2A0-D0893F1A1A59";
paths = (
{
closed = 1;
nodes = (
"595 -10 OFFCURVE",
"703 37 OFFCURVE",
"703 233 CURVE SMOOTH",
"703 714 LINE",
"613 714 LINE",
"613 236 LINE SMOOTH",
"613 114 OFFCURVE",
"556 69 OFFCURVE",
"407 69 CURVE SMOOTH",
"258 69 OFFCURVE",
"200 114 OFFCURVE",
"200 236 CURVE SMOOTH",
"200 714 LINE",
"110 714 LINE",
"110 233 LINE SMOOTH",
"110 37 OFFCURVE",
"208 -10 OFFCURVE",
"401 -10 CURVE SMOOTH"
);
}
);
vertWidth = 0;
width = 813;
},
{
anchors = (
{
name = "vowellengthencomb-adlam.case";
position = "{470, 557}";
}
);
layerId = "6CB8ADAF-854D-4ED0-880B-EED1FC4797A7";
paths = (
{
closed = 1;
nodes = (
"642 -10 OFFCURVE",
"745 57 OFFCURVE",
"745 253 CURVE SMOOTH",
"745 714 LINE",
"594 714 LINE",
"594 282 LINE SMOOTH",
"594 160 OFFCURVE",
"552 115 OFFCURVE",
"423 115 CURVE SMOOTH",
"294 115 OFFCURVE",
"241 160 OFFCURVE",
"241 282 CURVE SMOOTH",
"241 714 LINE",
"90 714 LINE",
"90 253 LINE SMOOTH",
"90 57 OFFCURVE",
"193 -10 OFFCURVE",
"417 -10 CURVE SMOOTH"
);
}
);
vertWidth = 0;
width = 835;
}
);
},
{
glyphname = "I-adlam.medi";
production = u1E90B.medi;
layers = (
{
anchors = (
{
name = "vowellengthencomb-adlam.case";
position = "{459, 557}";
}
);
layerId = "B0FCDF77-85CD-41D2-A2A0-D0893F1A1A59";
paths = (
{
closed = 1;
nodes = (
"499 -10 OFFCURVE",
"571 2 OFFCURVE",
"623 39 CURVE",
"629 39 LINE",
"636 18 OFFCURVE",
"657 0 OFFCURVE",
"726 0 CURVE SMOOTH",
"813 0 LINE SMOOTH",
"843 0 OFFCURVE",
"853 13 OFFCURVE",
"853 48 CURVE SMOOTH",
"853 74 LINE",
"753 74 LINE SMOOTH",
"712 74 OFFCURVE",
"703 90 OFFCURVE",
"703 132 CURVE SMOOTH",
"703 714 LINE",
"613 714 LINE",
"613 236 LINE SMOOTH",
"613 114 OFFCURVE",
"556 69 OFFCURVE",
"407 69 CURVE SMOOTH",
"258 69 OFFCURVE",
"200 114 OFFCURVE",
"200 236 CURVE SMOOTH",
"200 714 LINE",
"110 714 LINE",
"110 132 LINE SMOOTH",
"110 90 OFFCURVE",
"101 74 OFFCURVE",
"60 74 CURVE SMOOTH",
"-40 74 LINE",
"-40 48 LINE SMOOTH",
"-40 13 OFFCURVE",
"-30 0 OFFCURVE",
"0 0 CURVE SMOOTH",
"87 0 LINE SMOOTH",
"138 0 OFFCURVE",
"168 14 OFFCURVE",
"179 39 CURVE",
"185 39 LINE",
"209 17 OFFCURVE",
"260 -10 OFFCURVE",
"401 -10 CURVE SMOOTH"
);
}
);
vertWidth = 0;
width = 813;
},
{
anchors = (
{
name = "vowellengthencomb-adlam.case";
position = "{470, 557}";
}
);
layerId = "6CB8ADAF-854D-4ED0-880B-EED1FC4797A7";
paths = (
{
closed = 1;
nodes = (
"548 -10 OFFCURVE",
"626 16 OFFCURVE",
"648 40 CURVE",
"654 40 LINE",
"664 14 OFFCURVE",
"690 0 OFFCURVE",
"742 0 CURVE SMOOTH",
"835 0 LINE SMOOTH",
"860 0 OFFCURVE",
"875 7 OFFCURVE",
"875 38 CURVE SMOOTH",
"875 120 LINE",
"795 120 LINE SMOOTH",
"754 120 OFFCURVE",
"745 136 OFFCURVE",
"745 178 CURVE SMOOTH",
"745 714 LINE",
"594 714 LINE",
"594 282 LINE SMOOTH",
"594 160 OFFCURVE",
"552 115 OFFCURVE",
"423 115 CURVE SMOOTH",
"294 115 OFFCURVE",
"241 160 OFFCURVE",
"241 282 CURVE SMOOTH",
"241 714 LINE",
"90 714 LINE",
"90 178 LINE SMOOTH",
"90 136 OFFCURVE",
"81 120 OFFCURVE",
"40 120 CURVE SMOOTH",
"-40 120 LINE",
"-40 38 LINE SMOOTH",
"-40 7 OFFCURVE",
"-25 0 OFFCURVE",
"0 0 CURVE SMOOTH",
"95 0 LINE SMOOTH",
"148 0 OFFCURVE",
"170 16 OFFCURVE",
"177 40 CURVE",
"183 40 LINE",
"207 21 OFFCURVE",
"269 -10 OFFCURVE",
"417 -10 CURVE SMOOTH"
);
}
);
vertWidth = 0;
width = 835;
}
);
},
{
glyphname = "Jiim-adlam";
production = u1E914;
layers = (
{
anchors = (
{
name = bottom;
position = "{448, 0}";
},
{
name = gemconsonanttop;
position = "{464, 665}";
},
{
name = top;
position = "{473, 665}";
}
);
layerId = "B0FCDF77-85CD-41D2-A2A0-D0893F1A1A59";
paths = (
{
closed = 1;
nodes = (
"800 -12 OFFCURVE",
"822 42 OFFCURVE",
"822 117 CURVE SMOOTH",
"822 476 LINE SMOOTH",
"822 614 OFFCURVE",
"765 687 OFFCURVE",
"641 687 CURVE SMOOTH",
"533 687 OFFCURVE",
"497 633 OFFCURVE",
"486 613 CURVE",
"481 613 LINE",
"472 645 OFFCURVE",
"439 724 OFFCURVE",
"305 724 CURVE SMOOTH",
"159 724 OFFCURVE",
"105 630 OFFCURVE",
"105 511 CURVE SMOOTH",
"105 270 LINE",
"195 270 LINE",
"195 499 LINE SMOOTH",
"195 604 OFFCURVE",
"238 645 OFFCURVE",
"305 645 CURVE SMOOTH",
"369 645 OFFCURVE",
"414 594 OFFCURVE",
"414 486 CURVE SMOOTH",
"414 147 LINE SMOOTH",
"414 100 OFFCURVE",
"393 79 OFFCURVE",
"328 79 CURVE SMOOTH",
"105 79 LINE",
"105 0 LINE",
"328 0 LINE SMOOTH",
"468 0 OFFCURVE",
"504 42 OFFCURVE",
"504 146 CURVE SMOOTH",
"504 452 LINE SMOOTH",
"504 558 OFFCURVE",
"550 608 OFFCURVE",
"628 608 CURVE SMOOTH",
"700 608 OFFCURVE",
"732 554 OFFCURVE",
"732 455 CURVE SMOOTH",
"732 117 LINE SMOOTH",
"732 71 OFFCURVE",
"719 22 OFFCURVE",
"686 -8 CURVE",
"758 -54 LINE"
);
}
);
vertWidth = 0;
width = 927;
},
{
anchors = (
{
name = bottom;
position = "{448, 0}";
},
{
name = gemconsonanttop;
position = "{494, 665}";
},
{
name = top;
position = "{503, 665}";
}
);
layerId = "6CB8ADAF-854D-4ED0-880B-EED1FC4797A7";
paths = (
{
closed = 1;
nodes = (
"843 -6 OFFCURVE",
"852 51 OFFCURVE",
"852 138 CURVE SMOOTH",
"852 477 LINE SMOOTH",
"852 615 OFFCURVE",
"795 688 OFFCURVE",
"664 688 CURVE SMOOTH",
"572 688 OFFCURVE",
"526 649 OFFCURVE",
"517 637 CURVE",
"512 637 LINE",
"502 658 OFFCURVE",
"450 724 OFFCURVE",
"315 724 CURVE SMOOTH",
"129 724 OFFCURVE",
"75 630 OFFCURVE",
"75 494 CURVE SMOOTH",
"75 270 LINE",
"226 270 LINE",
"226 484 LINE SMOOTH",
"226 578 OFFCURVE",
"258 599 OFFCURVE",
"305 599 CURVE SMOOTH",
"352 599 OFFCURVE",
"383 578 OFFCURVE",
"383 484 CURVE SMOOTH",
"383 193 LINE SMOOTH",
"383 146 OFFCURVE",
"362 125 OFFCURVE",
"297 125 CURVE SMOOTH",
"75 125 LINE",
"75 0 LINE",
"358 0 LINE SMOOTH",
"498 0 OFFCURVE",
"534 42 OFFCURVE",
"534 146 CURVE SMOOTH",
"534 445 LINE SMOOTH",
"534 532 OFFCURVE",
"565 563 OFFCURVE",
"618 563 CURVE SMOOTH",
"671 563 OFFCURVE",
"701 532 OFFCURVE",
"701 445 CURVE SMOOTH",
"701 138 LINE SMOOTH",
"701 80 OFFCURVE",
"683 33 OFFCURVE",
"663 15 CURVE",
"791 -52 LINE"
);
}
);
vertWidth = 0;
width = 942;
}
);
unicode = 1E914;
},
{
glyphname = "Jiim-adlam.fina";
production = u1E914.fina;
layers = (
{
anchors = (
{
name = bottom;
position = "{448, 0}";
},
{
name = gemconsonanttop;
position = "{464, 665}";
},
{
name = top;
position = "{473, 665}";
}
);
layerId = "B0FCDF77-85CD-41D2-A2A0-D0893F1A1A59";
paths = (
{
closed = 1;
nodes = (
"328 0 LINE SMOOTH",
"468 0 OFFCURVE",
"504 42 OFFCURVE",
"504 146 CURVE SMOOTH",
"504 452 LINE SMOOTH",
"504 558 OFFCURVE",
"550 608 OFFCURVE",
"628 608 CURVE SMOOTH",
"700 608 OFFCURVE",
"732 554 OFFCURVE",
"732 455 CURVE SMOOTH",
"732 118 LINE SMOOTH",
"732 32 OFFCURVE",
"750 0 OFFCURVE",
"845 0 CURVE SMOOTH",
"927 0 LINE SMOOTH",
"957 0 OFFCURVE",
"967 12 OFFCURVE",
"967 48 CURVE SMOOTH",
"967 74 LINE",
"872 74 LINE SMOOTH",
"831 74 OFFCURVE",
"822 90 OFFCURVE",
"822 132 CURVE SMOOTH",
"822 476 LINE SMOOTH",
"822 614 OFFCURVE",
"765 687 OFFCURVE",
"641 687 CURVE SMOOTH",
"533 687 OFFCURVE",
"497 633 OFFCURVE",
"486 613 CURVE",
"481 613 LINE",
"472 645 OFFCURVE",
"439 724 OFFCURVE",
"305 724 CURVE SMOOTH",
"159 724 OFFCURVE",
"105 630 OFFCURVE",
"105 511 CURVE SMOOTH",
"105 270 LINE",
"195 270 LINE",
"195 499 LINE SMOOTH",
"195 604 OFFCURVE",
"238 645 OFFCURVE",
"305 645 CURVE SMOOTH",
"369 645 OFFCURVE",
"414 594 OFFCURVE",
"414 486 CURVE SMOOTH",
"414 142 LINE SMOOTH",
"414 95 OFFCURVE",
"393 74 OFFCURVE",
"328 74 CURVE SMOOTH",
"105 74 LINE",
"105 0 LINE"
);
}
);
vertWidth = 0;
width = 927;
},
{
anchors = (
{
name = bottom;
position = "{448, 0}";
},
{
name = gemconsonanttop;
position = "{494, 665}";
},
{
name = top;
position = "{503, 665}";
}
);
layerId = "6CB8ADAF-854D-4ED0-880B-EED1FC4797A7";
paths = (
{
closed = 1;
nodes = (
"358 0 LINE SMOOTH",
"498 0 OFFCURVE",
"534 42 OFFCURVE",
"534 146 CURVE SMOOTH",
"534 445 LINE SMOOTH",
"534 532 OFFCURVE",
"565 563 OFFCURVE",
"618 563 CURVE SMOOTH",
"671 563 OFFCURVE",
"701 532 OFFCURVE",
"701 445 CURVE SMOOTH",
"701 118 LINE SMOOTH",
"701 32 OFFCURVE",
"720 0 OFFCURVE",
"815 0 CURVE SMOOTH",
"942 0 LINE SMOOTH",
"967 0 OFFCURVE",
"982 7 OFFCURVE",
"982 38 CURVE SMOOTH",
"982 120 LINE",
"902 120 LINE SMOOTH",
"861 120 OFFCURVE",
"852 136 OFFCURVE",
"852 178 CURVE SMOOTH",
"852 477 LINE SMOOTH",
"852 615 OFFCURVE",
"795 688 OFFCURVE",
"664 688 CURVE SMOOTH",
"572 688 OFFCURVE",
"526 649 OFFCURVE",
"517 637 CURVE",
"512 637 LINE",
"502 658 OFFCURVE",
"450 724 OFFCURVE",
"315 724 CURVE SMOOTH",
"129 724 OFFCURVE",
"75 630 OFFCURVE",
"75 494 CURVE SMOOTH",
"75 270 LINE",
"226 270 LINE",
"226 484 LINE SMOOTH",
"226 578 OFFCURVE",
"258 599 OFFCURVE",
"305 599 CURVE SMOOTH",
"352 599 OFFCURVE",
"383 578 OFFCURVE",
"383 484 CURVE SMOOTH",
"383 188 LINE SMOOTH",
"383 141 OFFCURVE",
"362 120 OFFCURVE",
"297 120 CURVE SMOOTH",
"75 120 LINE",
"75 0 LINE"
);
}
);
vertWidth = 0;
width = 942;
}
);
},
{
glyphname = "Jiim-adlam.init";
production = u1E914.init;
layers = (
{
anchors = (
{
name = bottom;
position = "{448, 0}";
},
{
name = gemconsonanttop;
position = "{464, 665}";
},
{
name = top;
position = "{473, 665}";
}
);
layerId = "B0FCDF77-85CD-41D2-A2A0-D0893F1A1A59";
paths = (
{
closed = 1;
nodes = (
"800 -12 OFFCURVE",
"822 42 OFFCURVE",
"822 117 CURVE SMOOTH",
"822 476 LINE SMOOTH",
"822 614 OFFCURVE",
"765 687 OFFCURVE",
"641 687 CURVE SMOOTH",
"533 687 OFFCURVE",
"497 633 OFFCURVE",
"486 613 CURVE",
"481 613 LINE",
"472 645 OFFCURVE",
"439 724 OFFCURVE",
"305 724 CURVE SMOOTH",
"159 724 OFFCURVE",
"105 630 OFFCURVE",
"105 511 CURVE SMOOTH",
"105 270 LINE",
"195 270 LINE",
"195 499 LINE SMOOTH",
"195 604 OFFCURVE",
"238 645 OFFCURVE",
"305 645 CURVE SMOOTH",
"369 645 OFFCURVE",
"414 594 OFFCURVE",
"414 486 CURVE SMOOTH",
"414 142 LINE SMOOTH",
"414 95 OFFCURVE",
"393 74 OFFCURVE",
"328 74 CURVE SMOOTH",
"-40 74 LINE",
"-40 48 LINE SMOOTH",
"-40 12 OFFCURVE",
"-30 0 OFFCURVE",
"0 0 CURVE SMOOTH",
"328 0 LINE SMOOTH",
"468 0 OFFCURVE",
"504 42 OFFCURVE",
"504 146 CURVE SMOOTH",
"504 452 LINE SMOOTH",
"504 558 OFFCURVE",
"550 608 OFFCURVE",
"628 608 CURVE SMOOTH",
"700 608 OFFCURVE",
"732 554 OFFCURVE",
"732 455 CURVE SMOOTH",
"732 117 LINE SMOOTH",
"732 71 OFFCURVE",
"719 22 OFFCURVE",
"686 -8 CURVE",
"758 -54 LINE"
);
}
);
vertWidth = 0;
width = 927;
},
{
anchors = (
{
name = bottom;
position = "{448, 0}";
},
{
name = gemconsonanttop;
position = "{494, 665}";
},
{
name = top;
position = "{503, 665}";
}
);
layerId = "6CB8ADAF-854D-4ED0-880B-EED1FC4797A7";
paths = (
{
closed = 1;
nodes = (
"843 -6 OFFCURVE",
"852 51 OFFCURVE",
"852 138 CURVE SMOOTH",
"852 477 LINE SMOOTH",
"852 615 OFFCURVE",
"795 688 OFFCURVE",
"664 688 CURVE SMOOTH",
"572 688 OFFCURVE",
"526 649 OFFCURVE",
"517 637 CURVE",
"512 637 LINE",
"502 658 OFFCURVE",
"450 724 OFFCURVE",
"315 724 CURVE SMOOTH",
"129 724 OFFCURVE",
"75 630 OFFCURVE",
"75 494 CURVE SMOOTH",
"75 270 LINE",
"226 270 LINE",
"226 484 LINE SMOOTH",
"226 578 OFFCURVE",
"258 599 OFFCURVE",
"305 599 CURVE SMOOTH",
"352 599 OFFCURVE",
"383 578 OFFCURVE",
"383 484 CURVE SMOOTH",
"383 188 LINE SMOOTH",
"383 141 OFFCURVE",
"362 120 OFFCURVE",
"297 120 CURVE SMOOTH",
"-40 120 LINE",
"-40 38 LINE SMOOTH",
"-40 7 OFFCURVE",
"-25 0 OFFCURVE",
"0 0 CURVE SMOOTH",
"358 0 LINE SMOOTH",
"498 0 OFFCURVE",
"534 42 OFFCURVE",
"534 146 CURVE SMOOTH",
"534 445 LINE SMOOTH",
"534 532 OFFCURVE",
"565 563 OFFCURVE",
"618 563 CURVE SMOOTH",
"671 563 OFFCURVE",
"701 532 OFFCURVE",
"701 445 CURVE SMOOTH",
"701 138 LINE SMOOTH",
"701 80 OFFCURVE",
"683 33 OFFCURVE",
"663 15 CURVE",
"791 -52 LINE"
);
}
);
vertWidth = 0;
width = 942;
}
);
},
{
export = 0;
glyphname = "Jiim-adlam.isol";
production = u1E914.isol;
layers = (
{
anchors = (
{
name = bottom;
position = "{448, 0}";
},
{
name = gemconsonanttop;
position = "{464, 665}";
},
{
name = top;
position = "{473, 665}";
}
);
layerId = "B0FCDF77-85CD-41D2-A2A0-D0893F1A1A59";
paths = (
{
closed = 1;
nodes = (
"800 -12 OFFCURVE",
"822 42 OFFCURVE",
"822 117 CURVE SMOOTH",
"822 476 LINE SMOOTH",
"822 614 OFFCURVE",
"765 687 OFFCURVE",
"641 687 CURVE SMOOTH",
"533 687 OFFCURVE",
"497 633 OFFCURVE",
"486 613 CURVE",
"481 613 LINE",
"472 645 OFFCURVE",
"439 724 OFFCURVE",
"305 724 CURVE SMOOTH",
"159 724 OFFCURVE",
"105 630 OFFCURVE",
"105 511 CURVE SMOOTH",
"105 270 LINE",
"195 270 LINE",
"195 499 LINE SMOOTH",
"195 604 OFFCURVE",
"238 645 OFFCURVE",
"305 645 CURVE SMOOTH",
"369 645 OFFCURVE",
"414 594 OFFCURVE",
"414 486 CURVE SMOOTH",
"414 147 LINE SMOOTH",
"414 100 OFFCURVE",
"393 79 OFFCURVE",
"328 79 CURVE SMOOTH",
"105 79 LINE",
"105 0 LINE",
"328 0 LINE SMOOTH",
"468 0 OFFCURVE",
"504 42 OFFCURVE",
"504 146 CURVE SMOOTH",
"504 452 LINE SMOOTH",
"504 558 OFFCURVE",
"550 608 OFFCURVE",
"628 608 CURVE SMOOTH",
"700 608 OFFCURVE",
"732 554 OFFCURVE",
"732 455 CURVE SMOOTH",
"732 117 LINE SMOOTH",
"732 71 OFFCURVE",
"719 22 OFFCURVE",
"686 -8 CURVE",
"758 -54 LINE"
);
}
);
vertWidth = 0;
width = 927;
},
{
anchors = (
{
name = bottom;
position = "{448, 0}";
},
{
name = gemconsonanttop;
position = "{494, 665}";
},
{
name = top;
position = "{503, 665}";
}
);
layerId = "6CB8ADAF-854D-4ED0-880B-EED1FC4797A7";
paths = (
{
closed = 1;
nodes = (
"843 -6 OFFCURVE",
"852 51 OFFCURVE",
"852 138 CURVE SMOOTH",
"852 477 LINE SMOOTH",
"852 615 OFFCURVE",
"795 688 OFFCURVE",
"664 688 CURVE SMOOTH",
"572 688 OFFCURVE",
"526 649 OFFCURVE",
"517 637 CURVE",
"512 637 LINE",
"502 658 OFFCURVE",
"450 724 OFFCURVE",
"315 724 CURVE SMOOTH",
"129 724 OFFCURVE",
"75 630 OFFCURVE",
"75 494 CURVE SMOOTH",
"75 270 LINE",
"226 270 LINE",
"226 484 LINE SMOOTH",
"226 578 OFFCURVE",
"258 599 OFFCURVE",
"305 599 CURVE SMOOTH",
"352 599 OFFCURVE",
"383 578 OFFCURVE",
"383 484 CURVE SMOOTH",
"383 193 LINE SMOOTH",
"383 146 OFFCURVE",
"362 125 OFFCURVE",
"297 125 CURVE SMOOTH",
"75 125 LINE",
"75 0 LINE",
"358 0 LINE SMOOTH",
"498 0 OFFCURVE",
"534 42 OFFCURVE",
"534 146 CURVE SMOOTH",
"534 445 LINE SMOOTH",
"534 532 OFFCURVE",
"565 563 OFFCURVE",
"618 563 CURVE SMOOTH",
"671 563 OFFCURVE",
"701 532 OFFCURVE",
"701 445 CURVE SMOOTH",
"701 138 LINE SMOOTH",
"701 80 OFFCURVE",
"683 33 OFFCURVE",
"663 15 CURVE",
"791 -52 LINE"
);
}
);
vertWidth = 0;
width = 942;
}
);
},
{
glyphname = "Jiim-adlam.medi";
production = u1E914.medi;
layers = (
{
anchors = (
{
name = bottom;
position = "{448, 0}";
},
{
name = gemconsonanttop;
position = "{464, 665}";
},
{
name = top;
position = "{473, 665}";
}
);
layerId = "B0FCDF77-85CD-41D2-A2A0-D0893F1A1A59";
paths = (
{
closed = 1;
nodes = (
"328 0 LINE SMOOTH",
"468 0 OFFCURVE",
"504 42 OFFCURVE",
"504 146 CURVE SMOOTH",
"504 452 LINE SMOOTH",
"504 558 OFFCURVE",
"550 608 OFFCURVE",
"628 608 CURVE SMOOTH",
"700 608 OFFCURVE",
"732 554 OFFCURVE",
"732 455 CURVE SMOOTH",
"732 118 LINE SMOOTH",
"732 32 OFFCURVE",
"750 0 OFFCURVE",
"845 0 CURVE SMOOTH",
"927 0 LINE SMOOTH",
"957 0 OFFCURVE",
"967 12 OFFCURVE",
"967 48 CURVE SMOOTH",
"967 74 LINE",
"872 74 LINE SMOOTH",
"831 74 OFFCURVE",
"822 90 OFFCURVE",
"822 132 CURVE SMOOTH",
"822 476 LINE SMOOTH",
"822 614 OFFCURVE",
"765 687 OFFCURVE",
"641 687 CURVE SMOOTH",
"533 687 OFFCURVE",
"497 633 OFFCURVE",
"486 613 CURVE",
"481 613 LINE",
"472 645 OFFCURVE",
"439 724 OFFCURVE",
"305 724 CURVE SMOOTH",
"159 724 OFFCURVE",
"105 630 OFFCURVE",
"105 511 CURVE SMOOTH",
"105 270 LINE",
"195 270 LINE",
"195 499 LINE SMOOTH",
"195 604 OFFCURVE",
"238 645 OFFCURVE",
"305 645 CURVE SMOOTH",
"369 645 OFFCURVE",
"414 594 OFFCURVE",
"414 486 CURVE SMOOTH",
"414 142 LINE SMOOTH",
"414 95 OFFCURVE",
"393 74 OFFCURVE",
"328 74 CURVE SMOOTH",
"-40 74 LINE",
"-40 48 LINE SMOOTH",
"-40 12 OFFCURVE",
"-30 0 OFFCURVE",
"0 0 CURVE SMOOTH"
);
}
);
vertWidth = 0;
width = 927;
},
{
anchors = (
{
name = bottom;
position = "{448, 0}";
},
{
name = gemconsonanttop;
position = "{494, 665}";
},
{
name = top;
position = "{503, 665}";
}
);
layerId = "6CB8ADAF-854D-4ED0-880B-EED1FC4797A7";
paths = (
{
closed = 1;
nodes = (
"358 0 LINE SMOOTH",
"498 0 OFFCURVE",
"534 42 OFFCURVE",
"534 146 CURVE SMOOTH",
"534 445 LINE SMOOTH",
"534 532 OFFCURVE",
"565 563 OFFCURVE",
"618 563 CURVE SMOOTH",
"671 563 OFFCURVE",
"701 532 OFFCURVE",
"701 445 CURVE SMOOTH",
"701 118 LINE SMOOTH",
"701 32 OFFCURVE",
"720 0 OFFCURVE",
"815 0 CURVE SMOOTH",
"942 0 LINE SMOOTH",
"967 0 OFFCURVE",
"982 7 OFFCURVE",
"982 38 CURVE SMOOTH",
"982 120 LINE",
"902 120 LINE SMOOTH",
"861 120 OFFCURVE",
"852 136 OFFCURVE",
"852 178 CURVE SMOOTH",
"852 477 LINE SMOOTH",
"852 615 OFFCURVE",
"795 688 OFFCURVE",
"664 688 CURVE SMOOTH",
"572 688 OFFCURVE",
"526 649 OFFCURVE",
"517 637 CURVE",
"512 637 LINE",
"502 658 OFFCURVE",
"450 724 OFFCURVE",
"315 724 CURVE SMOOTH",
"129 724 OFFCURVE",
"75 630 OFFCURVE",
"75 494 CURVE SMOOTH",
"75 270 LINE",
"226 270 LINE",
"226 484 LINE SMOOTH",
"226 578 OFFCURVE",
"258 599 OFFCURVE",
"305 599 CURVE SMOOTH",
"352 599 OFFCURVE",
"383 578 OFFCURVE",
"383 484 CURVE SMOOTH",
"383 188 LINE SMOOTH",
"383 141 OFFCURVE",
"362 120 OFFCURVE",
"297 120 CURVE SMOOTH",
"-40 120 LINE",
"-40 38 LINE SMOOTH",
"-40 7 OFFCURVE",
"-25 0 OFFCURVE",
"0 0 CURVE SMOOTH"
);
}
);
vertWidth = 0;
width = 942;
}
);
},
{
glyphname = "Kaf-adlam";
production = u1E911;
layers = (
{
anchors = (
{
name = top;
position = "{352, 663}";
}
);
layerId = "B0FCDF77-85CD-41D2-A2A0-D0893F1A1A59";
paths = (
{
closed = 1;
nodes = (
"271 0 LINE SMOOTH",
"365 0 OFFCURVE",
"383 32 OFFCURVE",
"383 118 CURVE SMOOTH",
"383 320 LINE",
"573 320 LINE",
"573 0 LINE",
"663 0 LINE",
"663 597 LINE SMOOTH",
"663 683 OFFCURVE",
"645 714 OFFCURVE",
"551 714 CURVE SMOOTH",
"40 714 LINE",
"40 635 LINE",
"523 635 LINE SMOOTH",
"564 635 OFFCURVE",
"573 619 OFFCURVE",
"573 576 CURVE SMOOTH",
"573 399 LINE",
"383 399 LINE",
"383 558 LINE",
"293 558 LINE",
"293 399 LINE",
"142 399 LINE",
"142 320 LINE",
"293 320 LINE",
"293 137 LINE SMOOTH",
"293 95 OFFCURVE",
"284 79 OFFCURVE",
"243 79 CURVE SMOOTH",
"40 79 LINE",
"40 0 LINE"
);
}
);
vertWidth = 0;
width = 773;
},
{
anchors = (
{
name = top;
position = "{363, 663}";
}
);
layerId = "6CB8ADAF-854D-4ED0-880B-EED1FC4797A7";
paths = (
{
closed = 1;
nodes = (
"312 0 LINE SMOOTH",
"406 0 OFFCURVE",
"424 32 OFFCURVE",
"424 118 CURVE SMOOTH",
"424 286 LINE",
"563 286 LINE",
"563 0 LINE",
"714 0 LINE",
"714 597 LINE SMOOTH",
"714 683 OFFCURVE",
"696 714 OFFCURVE",
"602 714 CURVE SMOOTH",
"30 714 LINE",
"30 589 LINE",
"513 589 LINE SMOOTH",
"554 589 OFFCURVE",
"563 573 OFFCURVE",
"563 530 CURVE SMOOTH",
"563 411 LINE",
"424 411 LINE",
"424 522 LINE",
"273 522 LINE",
"273 411 LINE",
"122 411 LINE",
"122 286 LINE",
"273 286 LINE",
"273 183 LINE SMOOTH",
"273 141 OFFCURVE",
"264 125 OFFCURVE",
"223 125 CURVE SMOOTH",
"30 125 LINE",
"30 0 LINE"
);
}
);
vertWidth = 0;
width = 804;
}
);
unicode = 1E911;
},
{
glyphname = "Kaf-adlam.fina";
production = u1E911.fina;
layers = (
{
anchors = (
{
name = top;
position = "{352, 663}";
}
);
layerId = "B0FCDF77-85CD-41D2-A2A0-D0893F1A1A59";
paths = (
{
closed = 1;
nodes = (
"271 0 LINE SMOOTH",
"365 0 OFFCURVE",
"383 32 OFFCURVE",
"383 118 CURVE SMOOTH",
"383 320 LINE",
"573 320 LINE",
"573 118 LINE SMOOTH",
"573 32 OFFCURVE",
"591 0 OFFCURVE",
"686 0 CURVE SMOOTH",
"773 0 LINE SMOOTH",
"803 0 OFFCURVE",
"813 12 OFFCURVE",
"813 48 CURVE SMOOTH",
"813 74 LINE",
"713 74 LINE SMOOTH",
"672 74 OFFCURVE",
"663 90 OFFCURVE",
"663 132 CURVE SMOOTH",
"663 597 LINE SMOOTH",
"663 683 OFFCURVE",
"645 714 OFFCURVE",
"551 714 CURVE SMOOTH",
"40 714 LINE",
"40 640 LINE",
"523 640 LINE SMOOTH",
"564 640 OFFCURVE",
"573 624 OFFCURVE",
"573 581 CURVE SMOOTH",
"573 394 LINE",
"383 394 LINE",
"383 558 LINE",
"293 558 LINE",
"293 394 LINE",
"142 394 LINE",
"142 320 LINE",
"293 320 LINE",
"293 132 LINE SMOOTH",
"293 90 OFFCURVE",
"284 74 OFFCURVE",
"243 74 CURVE SMOOTH",
"40 74 LINE",
"40 0 LINE"
);
}
);
vertWidth = 0;
width = 773;
},
{
anchors = (
{
name = top;
position = "{363, 663}";
}
);
layerId = "6CB8ADAF-854D-4ED0-880B-EED1FC4797A7";
paths = (
{
closed = 1;
nodes = (
"312 0 LINE SMOOTH",
"406 0 OFFCURVE",
"424 32 OFFCURVE",
"424 118 CURVE SMOOTH",
"424 286 LINE",
"563 286 LINE",
"563 118 LINE SMOOTH",
"563 32 OFFCURVE",
"582 0 OFFCURVE",
"677 0 CURVE SMOOTH",
"804 0 LINE SMOOTH",
"829 0 OFFCURVE",
"844 7 OFFCURVE",
"844 38 CURVE SMOOTH",
"844 120 LINE",
"764 120 LINE SMOOTH",
"723 120 OFFCURVE",
"714 136 OFFCURVE",
"714 178 CURVE SMOOTH",
"714 597 LINE SMOOTH",
"714 683 OFFCURVE",
"696 714 OFFCURVE",
"602 714 CURVE SMOOTH",
"30 714 LINE",
"30 594 LINE",
"513 594 LINE SMOOTH",
"554 594 OFFCURVE",
"563 578 OFFCURVE",
"563 535 CURVE SMOOTH",
"563 406 LINE",
"424 406 LINE",
"424 522 LINE",
"273 522 LINE",
"273 406 LINE",
"122 406 LINE",
"122 286 LINE",
"273 286 LINE",
"273 178 LINE SMOOTH",
"273 136 OFFCURVE",
"264 120 OFFCURVE",
"223 120 CURVE SMOOTH",
"30 120 LINE",
"30 0 LINE"
);
}
);
vertWidth = 0;
width = 804;
}
);
},
{
glyphname = "Kaf-adlam.init";
production = u1E911.init;
layers = (
{
anchors = (
{
name = top;
position = "{352, 663}";
}
);
layerId = "B0FCDF77-85CD-41D2-A2A0-D0893F1A1A59";
paths = (
{
closed = 1;
nodes = (
"271 0 LINE SMOOTH",
"365 0 OFFCURVE",
"383 32 OFFCURVE",
"383 118 CURVE SMOOTH",
"383 320 LINE",
"573 320 LINE",
"573 0 LINE",
"663 0 LINE",
"663 597 LINE SMOOTH",
"663 683 OFFCURVE",
"645 714 OFFCURVE",
"551 714 CURVE SMOOTH",
"40 714 LINE",
"40 640 LINE",
"523 640 LINE SMOOTH",
"564 640 OFFCURVE",
"573 624 OFFCURVE",
"573 581 CURVE SMOOTH",
"573 394 LINE",
"383 394 LINE",
"383 558 LINE",
"293 558 LINE",
"293 394 LINE",
"142 394 LINE",
"142 320 LINE",
"293 320 LINE",
"293 132 LINE SMOOTH",
"293 90 OFFCURVE",
"284 74 OFFCURVE",
"243 74 CURVE SMOOTH",
"-40 74 LINE",
"-40 48 LINE SMOOTH",
"-40 12 OFFCURVE",
"-30 0 OFFCURVE",
"0 0 CURVE SMOOTH"
);
}
);
vertWidth = 0;
width = 773;
},
{
anchors = (
{
name = top;
position = "{363, 663}";
}
);
layerId = "6CB8ADAF-854D-4ED0-880B-EED1FC4797A7";
paths = (
{
closed = 1;
nodes = (
"312 0 LINE SMOOTH",
"406 0 OFFCURVE",
"424 32 OFFCURVE",
"424 118 CURVE SMOOTH",
"424 286 LINE",
"563 286 LINE",
"563 0 LINE",
"714 0 LINE",
"714 597 LINE SMOOTH",
"714 683 OFFCURVE",
"696 714 OFFCURVE",
"602 714 CURVE SMOOTH",
"30 714 LINE",
"30 594 LINE",
"513 594 LINE SMOOTH",
"554 594 OFFCURVE",
"563 578 OFFCURVE",
"563 535 CURVE SMOOTH",
"563 406 LINE",
"424 406 LINE",
"424 522 LINE",
"273 522 LINE",
"273 406 LINE",
"122 406 LINE",
"122 286 LINE",
"273 286 LINE",
"273 178 LINE SMOOTH",
"273 136 OFFCURVE",
"264 120 OFFCURVE",
"223 120 CURVE SMOOTH",
"-40 120 LINE",
"-40 38 LINE SMOOTH",
"-40 7 OFFCURVE",
"-25 0 OFFCURVE",
"0 0 CURVE SMOOTH"
);
}
);
vertWidth = 0;
width = 804;
}
);
},
{
export = 0;
glyphname = "Kaf-adlam.isol";
production = u1E911.isol;
layers = (
{
anchors = (
{
name = top;
position = "{352, 663}";
}
);
layerId = "B0FCDF77-85CD-41D2-A2A0-D0893F1A1A59";
paths = (
{
closed = 1;
nodes = (
"271 0 LINE SMOOTH",
"365 0 OFFCURVE",
"383 32 OFFCURVE",
"383 118 CURVE SMOOTH",
"383 320 LINE",
"573 320 LINE",
"573 0 LINE",
"663 0 LINE",
"663 597 LINE SMOOTH",
"663 683 OFFCURVE",
"645 714 OFFCURVE",
"551 714 CURVE SMOOTH",
"40 714 LINE",
"40 635 LINE",
"523 635 LINE SMOOTH",
"564 635 OFFCURVE",
"573 619 OFFCURVE",
"573 576 CURVE SMOOTH",
"573 399 LINE",
"383 399 LINE",
"383 558 LINE",
"293 558 LINE",
"293 399 LINE",
"142 399 LINE",
"142 320 LINE",
"293 320 LINE",
"293 137 LINE SMOOTH",
"293 95 OFFCURVE",
"284 79 OFFCURVE",
"243 79 CURVE SMOOTH",
"40 79 LINE",
"40 0 LINE"
);
}
);
vertWidth = 0;
width = 773;
},
{
anchors = (
{
name = top;
position = "{363, 663}";
}
);
layerId = "6CB8ADAF-854D-4ED0-880B-EED1FC4797A7";
paths = (
{
closed = 1;
nodes = (
"312 0 LINE SMOOTH",
"406 0 OFFCURVE",
"424 32 OFFCURVE",
"424 118 CURVE SMOOTH",
"424 286 LINE",
"563 286 LINE",
"563 0 LINE",
"714 0 LINE",
"714 597 LINE SMOOTH",
"714 683 OFFCURVE",
"696 714 OFFCURVE",
"602 714 CURVE SMOOTH",
"30 714 LINE",
"30 589 LINE",
"513 589 LINE SMOOTH",
"554 589 OFFCURVE",
"563 573 OFFCURVE",
"563 530 CURVE SMOOTH",
"563 411 LINE",
"424 411 LINE",
"424 522 LINE",
"273 522 LINE",
"273 411 LINE",
"122 411 LINE",
"122 286 LINE",
"273 286 LINE",
"273 183 LINE SMOOTH",
"273 141 OFFCURVE",
"264 125 OFFCURVE",
"223 125 CURVE SMOOTH",
"30 125 LINE",
"30 0 LINE"
);
}
);
vertWidth = 0;
width = 804;
}
);
},
{
glyphname = "Kaf-adlam.medi";
production = u1E911.medi;
layers = (
{
anchors = (
{
name = top;
position = "{352, 663}";
}
);
layerId = "B0FCDF77-85CD-41D2-A2A0-D0893F1A1A59";
paths = (
{
closed = 1;
nodes = (
"271 0 LINE SMOOTH",
"365 0 OFFCURVE",
"383 32 OFFCURVE",
"383 118 CURVE SMOOTH",
"383 320 LINE",
"573 320 LINE",
"573 118 LINE SMOOTH",
"573 32 OFFCURVE",
"591 0 OFFCURVE",
"686 0 CURVE SMOOTH",
"773 0 LINE SMOOTH",
"803 0 OFFCURVE",
"813 12 OFFCURVE",
"813 48 CURVE SMOOTH",
"813 74 LINE",
"713 74 LINE SMOOTH",
"672 74 OFFCURVE",
"663 90 OFFCURVE",
"663 132 CURVE SMOOTH",
"663 597 LINE SMOOTH",
"663 683 OFFCURVE",
"645 714 OFFCURVE",
"551 714 CURVE SMOOTH",
"40 714 LINE",
"40 640 LINE",
"523 640 LINE SMOOTH",
"564 640 OFFCURVE",
"573 624 OFFCURVE",
"573 581 CURVE SMOOTH",
"573 394 LINE",
"383 394 LINE",
"383 558 LINE",
"293 558 LINE",
"293 394 LINE",
"142 394 LINE",
"142 320 LINE",
"293 320 LINE",
"293 132 LINE SMOOTH",
"293 90 OFFCURVE",
"284 74 OFFCURVE",
"243 74 CURVE SMOOTH",
"-40 74 LINE",
"-40 48 LINE SMOOTH",
"-40 12 OFFCURVE",
"-30 0 OFFCURVE",
"0 0 CURVE SMOOTH"
);
}
);
vertWidth = 0;
width = 773;
},
{
anchors = (
{
name = top;
position = "{363, 663}";
}
);
layerId = "6CB8ADAF-854D-4ED0-880B-EED1FC4797A7";
paths = (
{
closed = 1;
nodes = (
"312 0 LINE SMOOTH",
"406 0 OFFCURVE",
"424 32 OFFCURVE",
"424 118 CURVE SMOOTH",
"424 286 LINE",
"563 286 LINE",
"563 118 LINE SMOOTH",
"563 32 OFFCURVE",
"582 0 OFFCURVE",
"677 0 CURVE SMOOTH",
"804 0 LINE SMOOTH",
"829 0 OFFCURVE",
"844 7 OFFCURVE",
"844 38 CURVE SMOOTH",
"844 120 LINE",
"764 120 LINE SMOOTH",
"723 120 OFFCURVE",
"714 136 OFFCURVE",
"714 178 CURVE SMOOTH",
"714 597 LINE SMOOTH",
"714 683 OFFCURVE",
"696 714 OFFCURVE",
"602 714 CURVE SMOOTH",
"30 714 LINE",
"30 594 LINE",
"513 594 LINE SMOOTH",
"554 594 OFFCURVE",
"563 578 OFFCURVE",
"563 535 CURVE SMOOTH",
"563 406 LINE",
"424 406 LINE",
"424 522 LINE",
"273 522 LINE",
"273 406 LINE",
"122 406 LINE",
"122 286 LINE",
"273 286 LINE",
"273 178 LINE SMOOTH",
"273 136 OFFCURVE",
"264 120 OFFCURVE",
"223 120 CURVE SMOOTH",
"-40 120 LINE",
"-40 38 LINE SMOOTH",
"-40 7 OFFCURVE",
"-25 0 OFFCURVE",
"0 0 CURVE SMOOTH"
);
}
);
vertWidth = 0;
width = 804;
}
);
},
{
glyphname = "Kha-adlam";
production = u1E91D;
layers = (
{
anchors = (
{
name = top;
position = "{441, 663}";
}
);
layerId = "B0FCDF77-85CD-41D2-A2A0-D0893F1A1A59";
paths = (
{
closed = 1;
nodes = (
"200 0 LINE",
"199 321 LINE",
"386 321 LINE",
"386 118 LINE SMOOTH",
"386 32 OFFCURVE",
"404 0 OFFCURVE",
"498 0 CURVE SMOOTH",
"733 0 LINE",
"733 79 LINE",
"526 79 LINE SMOOTH",
"485 79 OFFCURVE",
"476 95 OFFCURVE",
"476 137 CURVE SMOOTH",
"476 321 LINE",
"627 321 LINE",
"627 400 LINE",
"476 400 LINE",
"476 558 LINE",
"386 558 LINE",
"386 400 LINE",
"199 400 LINE",
"199 576 LINE SMOOTH",
"199 619 OFFCURVE",
"208 635 OFFCURVE",
"249 635 CURVE SMOOTH",
"733 635 LINE",
"733 714 LINE",
"222 714 LINE SMOOTH",
"128 714 OFFCURVE",
"110 683 OFFCURVE",
"110 597 CURVE SMOOTH",
"110 0 LINE"
);
}
);
vertWidth = 0;
width = 773;
},
{
anchors = (
{
name = top;
position = "{431, 663}";
}
);
layerId = "6CB8ADAF-854D-4ED0-880B-EED1FC4797A7";
paths = (
{
closed = 1;
nodes = (
"241 0 LINE",
"241 288 LINE",
"366 288 LINE",
"366 118 LINE SMOOTH",
"366 32 OFFCURVE",
"384 0 OFFCURVE",
"478 0 CURVE SMOOTH",
"743 0 LINE",
"743 125 LINE",
"567 125 LINE SMOOTH",
"526 125 OFFCURVE",
"517 141 OFFCURVE",
"517 183 CURVE SMOOTH",
"517 288 LINE",
"668 288 LINE",
"668 413 LINE",
"517 413 LINE",
"517 522 LINE",
"366 522 LINE",
"366 413 LINE",
"241 413 LINE",
"241 530 LINE SMOOTH",
"241 573 OFFCURVE",
"250 589 OFFCURVE",
"291 589 CURVE SMOOTH",
"743 589 LINE",
"743 714 LINE",
"202 714 LINE SMOOTH",
"108 714 OFFCURVE",
"90 683 OFFCURVE",
"90 597 CURVE SMOOTH",
"90 0 LINE"
);
}
);
vertWidth = 0;
width = 773;
}
);
unicode = 1E91D;
},
{
glyphname = "Kha-adlam.fina";
production = u1E91D.fina;
layers = (
{
anchors = (
{
name = top;
position = "{441, 663}";
}
);
layerId = "B0FCDF77-85CD-41D2-A2A0-D0893F1A1A59";
paths = (
{
closed = 1;
nodes = (
"200 0 LINE",
"199 321 LINE",
"386 321 LINE",
"386 118 LINE SMOOTH",
"386 32 OFFCURVE",
"404 0 OFFCURVE",
"498 0 CURVE SMOOTH",
"773 0 LINE SMOOTH",
"803 0 OFFCURVE",
"813 12 OFFCURVE",
"813 48 CURVE SMOOTH",
"813 74 LINE",
"526 74 LINE SMOOTH",
"485 74 OFFCURVE",
"476 90 OFFCURVE",
"476 132 CURVE SMOOTH",
"476 321 LINE",
"627 321 LINE",
"627 400 LINE",
"476 400 LINE",
"476 558 LINE",
"386 558 LINE",
"386 400 LINE",
"199 400 LINE",
"199 576 LINE SMOOTH",
"199 619 OFFCURVE",
"208 635 OFFCURVE",
"249 635 CURVE SMOOTH",
"733 635 LINE",
"733 714 LINE",
"222 714 LINE SMOOTH",
"128 714 OFFCURVE",
"110 683 OFFCURVE",
"110 597 CURVE SMOOTH",
"110 0 LINE"
);
}
);
vertWidth = 0;
width = 773;
},
{
anchors = (
{
name = top;
position = "{431, 663}";
}
);
layerId = "6CB8ADAF-854D-4ED0-880B-EED1FC4797A7";
paths = (
{
closed = 1;
nodes = (
"241 0 LINE",
"241 288 LINE",
"366 288 LINE",
"366 118 LINE SMOOTH",
"366 32 OFFCURVE",
"384 0 OFFCURVE",
"478 0 CURVE SMOOTH",
"773 0 LINE SMOOTH",
"798 0 OFFCURVE",
"813 7 OFFCURVE",
"813 38 CURVE SMOOTH",
"813 120 LINE",
"567 120 LINE SMOOTH",
"526 120 OFFCURVE",
"517 136 OFFCURVE",
"517 178 CURVE SMOOTH",
"517 288 LINE",
"668 288 LINE",
"668 413 LINE",
"517 413 LINE",
"517 522 LINE",
"366 522 LINE",
"366 413 LINE",
"241 413 LINE",
"241 530 LINE SMOOTH",
"241 573 OFFCURVE",
"250 589 OFFCURVE",
"291 589 CURVE SMOOTH",
"743 589 LINE",
"743 714 LINE",
"202 714 LINE SMOOTH",
"108 714 OFFCURVE",
"90 683 OFFCURVE",
"90 597 CURVE SMOOTH",
"90 0 LINE"
);
}
);
vertWidth = 0;
width = 773;
}
);
},
{
glyphname = "Kha-adlam.init";
production = u1E91D.init;
layers = (
{
anchors = (
{
name = top;
position = "{441, 663}";
}
);
layerId = "B0FCDF77-85CD-41D2-A2A0-D0893F1A1A59";
paths = (
{
closed = 1;
nodes = (
"87 0 LINE SMOOTH",
"182 0 OFFCURVE",
"200 32 OFFCURVE",
"200 118 CURVE SMOOTH",
"199 321 LINE",
"386 321 LINE",
"386 118 LINE SMOOTH",
"386 32 OFFCURVE",
"404 0 OFFCURVE",
"498 0 CURVE SMOOTH",
"733 0 LINE",
"733 74 LINE",
"526 74 LINE SMOOTH",
"485 74 OFFCURVE",
"476 90 OFFCURVE",
"476 132 CURVE SMOOTH",
"476 321 LINE",
"627 321 LINE",
"627 400 LINE",
"476 400 LINE",
"476 558 LINE",
"386 558 LINE",
"386 400 LINE",
"199 400 LINE",
"199 576 LINE SMOOTH",
"199 619 OFFCURVE",
"208 635 OFFCURVE",
"249 635 CURVE SMOOTH",
"733 635 LINE",
"733 714 LINE",
"222 714 LINE SMOOTH",
"128 714 OFFCURVE",
"110 683 OFFCURVE",
"110 597 CURVE SMOOTH",
"110 132 LINE SMOOTH",
"110 90 OFFCURVE",
"101 74 OFFCURVE",
"60 74 CURVE SMOOTH",
"-40 74 LINE",
"-40 48 LINE SMOOTH",
"-40 12 OFFCURVE",
"-30 0 OFFCURVE",
"0 0 CURVE SMOOTH"
);
}
);
vertWidth = 0;
width = 773;
},
{
anchors = (
{
name = top;
position = "{431, 663}";
}
);
layerId = "6CB8ADAF-854D-4ED0-880B-EED1FC4797A7";
paths = (
{
closed = 1;
nodes = (
"127 0 LINE SMOOTH",
"222 0 OFFCURVE",
"241 32 OFFCURVE",
"241 118 CURVE SMOOTH",
"241 288 LINE",
"366 288 LINE",
"366 118 LINE SMOOTH",
"366 32 OFFCURVE",
"384 0 OFFCURVE",
"478 0 CURVE SMOOTH",
"743 0 LINE",
"743 120 LINE",
"567 120 LINE SMOOTH",
"526 120 OFFCURVE",
"517 136 OFFCURVE",
"517 178 CURVE SMOOTH",
"517 288 LINE",
"668 288 LINE",
"668 413 LINE",
"517 413 LINE",
"517 522 LINE",
"366 522 LINE",
"366 413 LINE",
"241 413 LINE",
"241 530 LINE SMOOTH",
"241 573 OFFCURVE",
"250 589 OFFCURVE",
"291 589 CURVE SMOOTH",
"743 589 LINE",
"743 714 LINE",
"202 714 LINE SMOOTH",
"108 714 OFFCURVE",
"90 683 OFFCURVE",
"90 597 CURVE SMOOTH",
"90 178 LINE SMOOTH",
"90 136 OFFCURVE",
"81 120 OFFCURVE",
"40 120 CURVE SMOOTH",
"-40 120 LINE",
"-40 38 LINE SMOOTH",
"-40 7 OFFCURVE",
"-25 0 OFFCURVE",
"0 0 CURVE SMOOTH"
);
}
);
vertWidth = 0;
width = 773;
}
);
},
{
export = 0;
glyphname = "Kha-adlam.isol";
production = u1E91D.isol;
layers = (
{
anchors = (
{
name = top;
position = "{441, 663}";
}
);
layerId = "B0FCDF77-85CD-41D2-A2A0-D0893F1A1A59";
paths = (
{
closed = 1;
nodes = (
"200 0 LINE",
"199 321 LINE",
"386 321 LINE",
"386 118 LINE SMOOTH",
"386 32 OFFCURVE",
"404 0 OFFCURVE",
"498 0 CURVE SMOOTH",
"733 0 LINE",
"733 79 LINE",
"526 79 LINE SMOOTH",
"485 79 OFFCURVE",
"476 95 OFFCURVE",
"476 137 CURVE SMOOTH",
"476 321 LINE",
"627 321 LINE",
"627 400 LINE",
"476 400 LINE",
"476 558 LINE",
"386 558 LINE",
"386 400 LINE",
"199 400 LINE",
"199 576 LINE SMOOTH",
"199 619 OFFCURVE",
"208 635 OFFCURVE",
"249 635 CURVE SMOOTH",
"733 635 LINE",
"733 714 LINE",
"222 714 LINE SMOOTH",
"128 714 OFFCURVE",
"110 683 OFFCURVE",
"110 597 CURVE SMOOTH",
"110 0 LINE"
);
}
);
vertWidth = 0;
width = 773;
},
{
anchors = (
{
name = top;
position = "{431, 663}";
}
);
layerId = "6CB8ADAF-854D-4ED0-880B-EED1FC4797A7";
paths = (
{
closed = 1;
nodes = (
"241 0 LINE",
"241 288 LINE",
"366 288 LINE",
"366 118 LINE SMOOTH",
"366 32 OFFCURVE",
"384 0 OFFCURVE",
"478 0 CURVE SMOOTH",
"743 0 LINE",
"743 125 LINE",
"567 125 LINE SMOOTH",
"526 125 OFFCURVE",
"517 141 OFFCURVE",
"517 183 CURVE SMOOTH",
"517 288 LINE",
"668 288 LINE",
"668 413 LINE",
"517 413 LINE",
"517 522 LINE",
"366 522 LINE",
"366 413 LINE",
"241 413 LINE",
"241 530 LINE SMOOTH",
"241 573 OFFCURVE",
"250 589 OFFCURVE",
"291 589 CURVE SMOOTH",
"743 589 LINE",
"743 714 LINE",
"202 714 LINE SMOOTH",
"108 714 OFFCURVE",
"90 683 OFFCURVE",
"90 597 CURVE SMOOTH",
"90 0 LINE"
);
}
);
vertWidth = 0;
width = 773;
}
);
},
{
glyphname = "Kha-adlam.medi";
production = u1E91D.medi;
layers = (
{
anchors = (
{
name = top;
position = "{441, 663}";
}
);
layerId = "B0FCDF77-85CD-41D2-A2A0-D0893F1A1A59";
paths = (
{
closed = 1;
nodes = (
"87 0 LINE SMOOTH",
"182 0 OFFCURVE",
"200 32 OFFCURVE",
"200 118 CURVE SMOOTH",
"199 321 LINE",
"386 321 LINE",
"386 118 LINE SMOOTH",
"386 32 OFFCURVE",
"404 0 OFFCURVE",
"498 0 CURVE SMOOTH",
"773 0 LINE SMOOTH",
"803 0 OFFCURVE",
"813 12 OFFCURVE",
"813 48 CURVE SMOOTH",
"813 74 LINE",
"526 74 LINE SMOOTH",
"485 74 OFFCURVE",
"476 90 OFFCURVE",
"476 132 CURVE SMOOTH",
"476 321 LINE",
"627 321 LINE",
"627 400 LINE",
"476 400 LINE",
"476 558 LINE",
"386 558 LINE",
"386 400 LINE",
"199 400 LINE",
"199 576 LINE SMOOTH",
"199 619 OFFCURVE",
"208 635 OFFCURVE",
"249 635 CURVE SMOOTH",
"733 635 LINE",
"733 714 LINE",
"222 714 LINE SMOOTH",
"128 714 OFFCURVE",
"110 683 OFFCURVE",
"110 597 CURVE SMOOTH",
"110 132 LINE SMOOTH",
"110 90 OFFCURVE",
"101 74 OFFCURVE",
"60 74 CURVE SMOOTH",
"-40 74 LINE",
"-40 48 LINE SMOOTH",
"-40 12 OFFCURVE",
"-30 0 OFFCURVE",
"0 0 CURVE SMOOTH"
);
}
);
vertWidth = 0;
width = 773;
},
{
anchors = (
{
name = top;
position = "{431, 663}";
}
);
layerId = "6CB8ADAF-854D-4ED0-880B-EED1FC4797A7";
paths = (
{
closed = 1;
nodes = (
"127 0 LINE SMOOTH",
"222 0 OFFCURVE",
"241 32 OFFCURVE",
"241 118 CURVE SMOOTH",
"241 288 LINE",
"366 288 LINE",
"366 118 LINE SMOOTH",
"366 32 OFFCURVE",
"384 0 OFFCURVE",
"478 0 CURVE SMOOTH",
"773 0 LINE SMOOTH",
"798 0 OFFCURVE",
"813 7 OFFCURVE",
"813 38 CURVE SMOOTH",
"813 120 LINE",
"567 120 LINE SMOOTH",
"526 120 OFFCURVE",
"517 136 OFFCURVE",
"517 178 CURVE SMOOTH",
"517 288 LINE",
"668 288 LINE",
"668 413 LINE",
"517 413 LINE",
"517 522 LINE",
"366 522 LINE",
"366 413 LINE",
"241 413 LINE",
"241 530 LINE SMOOTH",
"241 573 OFFCURVE",
"250 589 OFFCURVE",
"291 589 CURVE SMOOTH",
"743 589 LINE",
"743 714 LINE",
"202 714 LINE SMOOTH",
"108 714 OFFCURVE",
"90 683 OFFCURVE",
"90 597 CURVE SMOOTH",
"90 178 LINE SMOOTH",
"90 136 OFFCURVE",
"81 120 OFFCURVE",
"40 120 CURVE SMOOTH",
"-40 120 LINE",
"-40 38 LINE SMOOTH",
"-40 7 OFFCURVE",
"-25 0 OFFCURVE",
"0 0 CURVE SMOOTH"
);
}
);
vertWidth = 0;
width = 773;
}
);
},
{
glyphname = "Kpo-adlam";
production = u1E920;
layers = (
{
anchors = (
{
name = top;
position = "{359, 666}";
}
);
layerId = "B0FCDF77-85CD-41D2-A2A0-D0893F1A1A59";
paths = (
{
closed = 1;
nodes = (
"608 0 LINE",
"608 79 LINE",
"249 79 LINE SMOOTH",
"209 79 OFFCURVE",
"200 95 OFFCURVE",
"200 137 CURVE SMOOTH",
"200 593 LINE",
"222 619 OFFCURVE",
"273 650 OFFCURVE",
"359 650 CURVE SMOOTH",
"443 650 OFFCURVE",
"521 611 OFFCURVE",
"521 477 CURVE SMOOTH",
"521 356 OFFCURVE",
"443 315 OFFCURVE",
"374 315 CURVE SMOOTH",
"322 315 OFFCURVE",
"297 332 OFFCURVE",
"284 342 CURVE",
"248 271 LINE",
"261 259 OFFCURVE",
"289 236 OFFCURVE",
"373 236 CURVE SMOOTH",
"495 236 OFFCURVE",
"614 291 OFFCURVE",
"614 482 CURVE SMOOTH",
"614 677 OFFCURVE",
"497 729 OFFCURVE",
"360 729 CURVE SMOOTH",
"213 729 OFFCURVE",
"142 673 OFFCURVE",
"110 634 CURVE",
"110 118 LINE SMOOTH",
"110 32 OFFCURVE",
"128 0 OFFCURVE",
"222 0 CURVE SMOOTH"
);
}
);
vertWidth = 0;
width = 669;
},
{
anchors = (
{
name = top;
position = "{369, 663}";
}
);
layerId = "6CB8ADAF-854D-4ED0-880B-EED1FC4797A7";
paths = (
{
closed = 1;
nodes = (
"648 0 LINE",
"648 125 LINE",
"290 125 LINE SMOOTH",
"250 125 OFFCURVE",
"241 141 OFFCURVE",
"241 183 CURVE SMOOTH",
"241 563 LINE",
"263 587 OFFCURVE",
"306 604 OFFCURVE",
"364 604 CURVE SMOOTH",
"447 604 OFFCURVE",
"500 565 OFFCURVE",
"500 477 CURVE SMOOTH",
"500 391 OFFCURVE",
"453 361 OFFCURVE",
"392 361 CURVE SMOOTH",
"363 361 OFFCURVE",
"342 367 OFFCURVE",
"329 378 CURVE",
"284 263 LINE",
"297 252 OFFCURVE",
"338 236 OFFCURVE",
"394 236 CURVE SMOOTH",
"522 236 OFFCURVE",
"656 291 OFFCURVE",
"656 482 CURVE SMOOTH",
"656 670 OFFCURVE",
"531 729 OFFCURVE",
"369 729 CURVE SMOOTH",
"205 729 OFFCURVE",
"120 669 OFFCURVE",
"90 634 CURVE",
"90 118 LINE SMOOTH",
"90 32 OFFCURVE",
"108 0 OFFCURVE",
"202 0 CURVE SMOOTH"
);
}
);
vertWidth = 0;
width = 701;
}
);
unicode = 1E920;
},
{
glyphname = "Kpo-adlam.fina";
production = u1E920.fina;
layers = (
{
anchors = (
{
name = top;
position = "{359, 666}";
}
);
layerId = "B0FCDF77-85CD-41D2-A2A0-D0893F1A1A59";
paths = (
{
closed = 1;
nodes = (
"669 0 LINE SMOOTH",
"699 0 OFFCURVE",
"709 12 OFFCURVE",
"709 48 CURVE SMOOTH",
"709 74 LINE",
"249 74 LINE SMOOTH",
"209 74 OFFCURVE",
"200 90 OFFCURVE",
"200 132 CURVE SMOOTH",
"200 593 LINE",
"222 619 OFFCURVE",
"273 650 OFFCURVE",
"359 650 CURVE SMOOTH",
"443 650 OFFCURVE",
"521 611 OFFCURVE",
"521 477 CURVE SMOOTH",
"521 356 OFFCURVE",
"443 315 OFFCURVE",
"374 315 CURVE SMOOTH",
"322 315 OFFCURVE",
"297 332 OFFCURVE",
"284 342 CURVE",
"248 271 LINE",
"261 259 OFFCURVE",
"289 236 OFFCURVE",
"373 236 CURVE SMOOTH",
"495 236 OFFCURVE",
"614 291 OFFCURVE",
"614 482 CURVE SMOOTH",
"614 677 OFFCURVE",
"497 729 OFFCURVE",
"360 729 CURVE SMOOTH",
"213 729 OFFCURVE",
"142 673 OFFCURVE",
"110 634 CURVE",
"110 118 LINE SMOOTH",
"110 32 OFFCURVE",
"128 0 OFFCURVE",
"222 0 CURVE SMOOTH"
);
}
);
vertWidth = 0;
width = 669;
},
{
anchors = (
{
name = top;
position = "{369, 663}";
}
);
layerId = "6CB8ADAF-854D-4ED0-880B-EED1FC4797A7";
paths = (
{
closed = 1;
nodes = (
"701 0 LINE SMOOTH",
"726 0 OFFCURVE",
"741 7 OFFCURVE",
"741 38 CURVE SMOOTH",
"741 120 LINE",
"290 120 LINE SMOOTH",
"250 120 OFFCURVE",
"241 136 OFFCURVE",
"241 178 CURVE SMOOTH",
"241 563 LINE",
"263 587 OFFCURVE",
"306 604 OFFCURVE",
"364 604 CURVE SMOOTH",
"447 604 OFFCURVE",
"500 565 OFFCURVE",
"500 477 CURVE SMOOTH",
"500 391 OFFCURVE",
"453 361 OFFCURVE",
"392 361 CURVE SMOOTH",
"363 361 OFFCURVE",
"342 367 OFFCURVE",
"329 378 CURVE",
"284 263 LINE",
"297 252 OFFCURVE",
"338 236 OFFCURVE",
"394 236 CURVE SMOOTH",
"522 236 OFFCURVE",
"656 291 OFFCURVE",
"656 482 CURVE SMOOTH",
"656 670 OFFCURVE",
"531 729 OFFCURVE",
"369 729 CURVE SMOOTH",
"205 729 OFFCURVE",
"120 669 OFFCURVE",
"90 634 CURVE",
"90 118 LINE SMOOTH",
"90 32 OFFCURVE",
"108 0 OFFCURVE",
"202 0 CURVE SMOOTH"
);
}
);
vertWidth = 0;
width = 701;
}
);
},
{
glyphname = "Kpo-adlam.init";
production = u1E920.init;
layers = (
{
anchors = (
{
name = top;
position = "{359, 666}";
}
);
background = {
paths = (
{
closed = 1;
nodes = (
"249 74 LINE SMOOTH",
"209 74 OFFCURVE",
"200 90 OFFCURVE",
"200 132 CURVE SMOOTH",
"200 593 LINE",
"222 619 OFFCURVE",
"273 650 OFFCURVE",
"359 650 CURVE SMOOTH",
"443 650 OFFCURVE",
"521 611 OFFCURVE",
"521 477 CURVE SMOOTH",
"521 356 OFFCURVE",
"443 315 OFFCURVE",
"374 315 CURVE SMOOTH",
"322 315 OFFCURVE",
"297 332 OFFCURVE",
"284 342 CURVE",
"248 271 LINE",
"261 259 OFFCURVE",
"289 236 OFFCURVE",
"373 236 CURVE SMOOTH",
"495 236 OFFCURVE",
"614 291 OFFCURVE",
"614 482 CURVE SMOOTH",
"614 677 OFFCURVE",
"497 729 OFFCURVE",
"360 729 CURVE SMOOTH",
"213 729 OFFCURVE",
"142 673 OFFCURVE",
"110 634 CURVE",
"110 118 LINE SMOOTH",
"110 32 OFFCURVE",
"128 0 OFFCURVE",
"222 0 CURVE SMOOTH",
"608 0 LINE",
"608 74 LINE"
);
}
);
};
layerId = "B0FCDF77-85CD-41D2-A2A0-D0893F1A1A59";
paths = (
{
closed = 1;
nodes = (
"60 0 LINE SMOOTH",
"101 0 OFFCURVE",
"115 12 OFFCURVE",
"125 37 CURVE",
"131 37 LINE",
"142 12 OFFCURVE",
"161 0 OFFCURVE",
"217 0 CURVE SMOOTH",
"608 0 LINE",
"608 74 LINE",
"250 74 LINE SMOOTH",
"209 74 OFFCURVE",
"200 90 OFFCURVE",
"200 132 CURVE SMOOTH",
"200 593 LINE",
"222 619 OFFCURVE",
"273 650 OFFCURVE",
"359 650 CURVE SMOOTH",
"443 650 OFFCURVE",
"521 611 OFFCURVE",
"521 477 CURVE SMOOTH",
"521 356 OFFCURVE",
"443 315 OFFCURVE",
"374 315 CURVE SMOOTH",
"322 315 OFFCURVE",
"297 332 OFFCURVE",
"284 342 CURVE",
"248 271 LINE",
"261 259 OFFCURVE",
"289 236 OFFCURVE",
"373 236 CURVE SMOOTH",
"495 236 OFFCURVE",
"614 291 OFFCURVE",
"614 482 CURVE SMOOTH",
"614 677 OFFCURVE",
"497 729 OFFCURVE",
"360 729 CURVE SMOOTH",
"213 729 OFFCURVE",
"142 673 OFFCURVE",
"110 634 CURVE",
"110 132 LINE SMOOTH",
"110 90 OFFCURVE",
"101 74 OFFCURVE",
"60 74 CURVE SMOOTH",
"-40 74 LINE",
"-40 48 LINE SMOOTH",
"-40 12 OFFCURVE",
"-30 0 OFFCURVE",
"0 0 CURVE SMOOTH"
);
}
);
vertWidth = 0;
width = 669;
},
{
anchors = (
{
name = top;
position = "{369, 663}";
}
);
layerId = "6CB8ADAF-854D-4ED0-880B-EED1FC4797A7";
paths = (
{
closed = 1;
nodes = (
"40 0 LINE SMOOTH",
"63 0 OFFCURVE",
"86 12 OFFCURVE",
"95 40 CURVE",
"101 40 LINE",
"115 12 OFFCURVE",
"145 0 OFFCURVE",
"203 0 CURVE SMOOTH",
"648 0 LINE",
"648 120 LINE",
"291 120 LINE SMOOTH",
"250 120 OFFCURVE",
"241 136 OFFCURVE",
"241 178 CURVE SMOOTH",
"241 563 LINE",
"263 587 OFFCURVE",
"306 604 OFFCURVE",
"364 604 CURVE SMOOTH",
"447 604 OFFCURVE",
"500 565 OFFCURVE",
"500 477 CURVE SMOOTH",
"500 391 OFFCURVE",
"453 361 OFFCURVE",
"392 361 CURVE SMOOTH",
"363 361 OFFCURVE",
"342 367 OFFCURVE",
"329 378 CURVE",
"284 263 LINE",
"297 252 OFFCURVE",
"338 236 OFFCURVE",
"394 236 CURVE SMOOTH",
"522 236 OFFCURVE",
"656 291 OFFCURVE",
"656 482 CURVE SMOOTH",
"656 670 OFFCURVE",
"531 729 OFFCURVE",
"369 729 CURVE SMOOTH",
"205 729 OFFCURVE",
"120 669 OFFCURVE",
"90 634 CURVE",
"90 178 LINE SMOOTH",
"90 136 OFFCURVE",
"81 120 OFFCURVE",
"40 120 CURVE SMOOTH",
"-40 120 LINE",
"-40 38 LINE SMOOTH",
"-40 7 OFFCURVE",
"-25 0 OFFCURVE",
"0 0 CURVE SMOOTH"
);
}
);
vertWidth = 0;
width = 701;
}
);
},
{
export = 0;
glyphname = "Kpo-adlam.isol";
production = u1E920.isol;
layers = (
{
anchors = (
{
name = top;
position = "{359, 666}";
}
);
layerId = "B0FCDF77-85CD-41D2-A2A0-D0893F1A1A59";
paths = (
{
closed = 1;
nodes = (
"608 0 LINE",
"608 79 LINE",
"249 79 LINE SMOOTH",
"209 79 OFFCURVE",
"200 95 OFFCURVE",
"200 137 CURVE SMOOTH",
"200 593 LINE",
"222 619 OFFCURVE",
"273 650 OFFCURVE",
"359 650 CURVE SMOOTH",
"443 650 OFFCURVE",
"521 611 OFFCURVE",
"521 477 CURVE SMOOTH",
"521 356 OFFCURVE",
"443 315 OFFCURVE",
"374 315 CURVE SMOOTH",
"322 315 OFFCURVE",
"297 332 OFFCURVE",
"284 342 CURVE",
"248 271 LINE",
"261 259 OFFCURVE",
"289 236 OFFCURVE",
"373 236 CURVE SMOOTH",
"495 236 OFFCURVE",
"614 291 OFFCURVE",
"614 482 CURVE SMOOTH",
"614 677 OFFCURVE",
"497 729 OFFCURVE",
"360 729 CURVE SMOOTH",
"213 729 OFFCURVE",
"142 673 OFFCURVE",
"110 634 CURVE",
"110 118 LINE SMOOTH",
"110 32 OFFCURVE",
"128 0 OFFCURVE",
"222 0 CURVE SMOOTH"
);
}
);
vertWidth = 0;
width = 669;
},
{
anchors = (
{
name = top;
position = "{369, 663}";
}
);
layerId = "6CB8ADAF-854D-4ED0-880B-EED1FC4797A7";
paths = (
{
closed = 1;
nodes = (
"648 0 LINE",
"648 125 LINE",
"290 125 LINE SMOOTH",
"250 125 OFFCURVE",
"241 141 OFFCURVE",
"241 183 CURVE SMOOTH",
"241 563 LINE",
"263 587 OFFCURVE",
"306 604 OFFCURVE",
"364 604 CURVE SMOOTH",
"447 604 OFFCURVE",
"500 565 OFFCURVE",
"500 477 CURVE SMOOTH",
"500 391 OFFCURVE",
"453 361 OFFCURVE",
"392 361 CURVE SMOOTH",
"363 361 OFFCURVE",
"342 367 OFFCURVE",
"329 378 CURVE",
"284 263 LINE",
"297 252 OFFCURVE",
"338 236 OFFCURVE",
"394 236 CURVE SMOOTH",
"522 236 OFFCURVE",
"656 291 OFFCURVE",
"656 482 CURVE SMOOTH",
"656 670 OFFCURVE",
"531 729 OFFCURVE",
"369 729 CURVE SMOOTH",
"205 729 OFFCURVE",
"120 669 OFFCURVE",
"90 634 CURVE",
"90 118 LINE SMOOTH",
"90 32 OFFCURVE",
"108 0 OFFCURVE",
"202 0 CURVE SMOOTH"
);
}
);
vertWidth = 0;
width = 701;
}
);
},
{
glyphname = "Kpo-adlam.medi";
production = u1E920.medi;
layers = (
{
anchors = (
{
name = top;
position = "{359, 666}";
}
);
layerId = "B0FCDF77-85CD-41D2-A2A0-D0893F1A1A59";
paths = (
{
closed = 1;
nodes = (
"60 0 LINE SMOOTH",
"101 0 OFFCURVE",
"115 12 OFFCURVE",
"125 37 CURVE",
"131 37 LINE",
"142 12 OFFCURVE",
"161 0 OFFCURVE",
"217 0 CURVE SMOOTH",
"669 0 LINE SMOOTH",
"699 0 OFFCURVE",
"709 12 OFFCURVE",
"709 48 CURVE SMOOTH",
"709 74 LINE",
"250 74 LINE SMOOTH",
"209 74 OFFCURVE",
"200 90 OFFCURVE",
"200 132 CURVE SMOOTH",
"200 593 LINE",
"222 619 OFFCURVE",
"273 650 OFFCURVE",
"359 650 CURVE SMOOTH",
"443 650 OFFCURVE",
"521 611 OFFCURVE",
"521 477 CURVE SMOOTH",
"521 356 OFFCURVE",
"443 315 OFFCURVE",
"374 315 CURVE SMOOTH",
"322 315 OFFCURVE",
"297 332 OFFCURVE",
"284 342 CURVE",
"248 271 LINE",
"261 259 OFFCURVE",
"289 236 OFFCURVE",
"373 236 CURVE SMOOTH",
"495 236 OFFCURVE",
"614 291 OFFCURVE",
"614 482 CURVE SMOOTH",
"614 677 OFFCURVE",
"497 729 OFFCURVE",
"360 729 CURVE SMOOTH",
"213 729 OFFCURVE",
"142 673 OFFCURVE",
"110 634 CURVE",
"110 132 LINE SMOOTH",
"110 90 OFFCURVE",
"101 74 OFFCURVE",
"60 74 CURVE SMOOTH",
"-40 74 LINE",
"-40 48 LINE SMOOTH",
"-40 12 OFFCURVE",
"-30 0 OFFCURVE",
"0 0 CURVE SMOOTH"
);
}
);
vertWidth = 0;
width = 669;
},
{
anchors = (
{
name = top;
position = "{369, 663}";
}
);
layerId = "6CB8ADAF-854D-4ED0-880B-EED1FC4797A7";
paths = (
{
closed = 1;
nodes = (
"40 0 LINE SMOOTH",
"63 0 OFFCURVE",
"86 12 OFFCURVE",
"95 40 CURVE",
"101 40 LINE",
"115 12 OFFCURVE",
"145 0 OFFCURVE",
"203 0 CURVE SMOOTH",
"701 0 LINE SMOOTH",
"726 0 OFFCURVE",
"741 7 OFFCURVE",
"741 38 CURVE SMOOTH",
"741 120 LINE",
"291 120 LINE SMOOTH",
"250 120 OFFCURVE",
"241 136 OFFCURVE",
"241 178 CURVE SMOOTH",
"241 563 LINE",
"263 587 OFFCURVE",
"306 604 OFFCURVE",
"364 604 CURVE SMOOTH",
"447 604 OFFCURVE",
"500 565 OFFCURVE",
"500 477 CURVE SMOOTH",
"500 391 OFFCURVE",
"453 361 OFFCURVE",
"392 361 CURVE SMOOTH",
"363 361 OFFCURVE",
"342 367 OFFCURVE",
"329 378 CURVE",
"284 263 LINE",
"297 252 OFFCURVE",
"338 236 OFFCURVE",
"394 236 CURVE SMOOTH",
"522 236 OFFCURVE",
"656 291 OFFCURVE",
"656 482 CURVE SMOOTH",
"656 670 OFFCURVE",
"531 729 OFFCURVE",
"369 729 CURVE SMOOTH",
"205 729 OFFCURVE",
"120 669 OFFCURVE",
"90 634 CURVE",
"90 178 LINE SMOOTH",
"90 136 OFFCURVE",
"81 120 OFFCURVE",
"40 120 CURVE SMOOTH",
"-40 120 LINE",
"-40 38 LINE SMOOTH",
"-40 7 OFFCURVE",
"-25 0 OFFCURVE",
"0 0 CURVE SMOOTH"
);
}
);
vertWidth = 0;
width = 701;
}
);
},
{
glyphname = "Laam-adlam";
production = u1E902;
layers = (
{
anchors = (
{
name = top;
position = "{373, 663}";
}
);
layerId = "B0FCDF77-85CD-41D2-A2A0-D0893F1A1A59";
paths = (
{
closed = 1;
nodes = (
"353 0 LINE SMOOTH",
"447 0 OFFCURVE",
"465 32 OFFCURVE",
"465 118 CURVE SMOOTH",
"465 233 LINE SMOOTH",
"465 285 OFFCURVE",
"476 300 OFFCURVE",
"535 347 CURVE SMOOTH",
"575 380 OFFCURVE",
"600 399 OFFCURVE",
"614 413 CURVE",
"616 412 LINE",
"616 0 LINE",
"706 0 LINE",
"706 714 LINE",
"616 714 LINE",
"616 563 LINE SMOOTH",
"616 512 OFFCURVE",
"600 500 OFFCURVE",
"541 450 CURVE SMOOTH",
"493 409 OFFCURVE",
"481 398 OFFCURVE",
"468 384 CURVE",
"465 384 LINE",
"465 550 LINE SMOOTH",
"465 675 OFFCURVE",
"411 726 OFFCURVE",
"283 726 CURVE SMOOTH",
"124 726 OFFCURVE",
"65 625 OFFCURVE",
"50 595 CURVE",
"50 374 LINE",
"140 374 LINE",
"140 575 LINE",
"153 597 OFFCURVE",
"195 647 OFFCURVE",
"277 647 CURVE SMOOTH",
"350 647 OFFCURVE",
"375 614 OFFCURVE",
"375 550 CURVE SMOOTH",
"375 137 LINE SMOOTH",
"375 95 OFFCURVE",
"366 79 OFFCURVE",
"326 79 CURVE SMOOTH",
"50 79 LINE",
"50 0 LINE"
);
}
);
vertWidth = 0;
width = 816;
},
{
anchors = (
{
name = top;
position = "{408, 663}";
}
);
layerId = "6CB8ADAF-854D-4ED0-880B-EED1FC4797A7";
paths = (
{
closed = 1;
nodes = (
"403 0 LINE SMOOTH",
"497 0 OFFCURVE",
"515 32 OFFCURVE",
"515 118 CURVE SMOOTH",
"515 244 LINE SMOOTH",
"515 297 OFFCURVE",
"521 304 OFFCURVE",
"569 339 CURVE SMOOTH",
"614 372 OFFCURVE",
"623 379 OFFCURVE",
"629 385 CURVE",
"631 384 LINE",
"631 0 LINE",
"782 0 LINE",
"782 714 LINE",
"631 714 LINE",
"631 536 LINE SMOOTH",
"631 499 OFFCURVE",
"624 493 OFFCURVE",
"579 462 CURVE SMOOTH",
"543 437 OFFCURVE",
"528 426 OFFCURVE",
"518 416 CURVE",
"515 416 LINE",
"515 522 LINE SMOOTH",
"515 681 OFFCURVE",
"445 726 OFFCURVE",
"312 726 CURVE SMOOTH",
"132 726 OFFCURVE",
"58 614 OFFCURVE",
"40 571 CURVE",
"40 374 LINE",
"191 374 LINE",
"191 543 LINE",
"202 566 OFFCURVE",
"231 600 OFFCURVE",
"293 600 CURVE SMOOTH",
"347 600 OFFCURVE",
"364 573 OFFCURVE",
"364 522 CURVE SMOOTH",
"364 183 LINE SMOOTH",
"364 141 OFFCURVE",
"355 125 OFFCURVE",
"315 125 CURVE SMOOTH",
"51 125 LINE",
"51 0 LINE"
);
}
);
vertWidth = 0;
width = 872;
}
);
unicode = 1E902;
},
{
glyphname = "Laam-adlam.fina";
production = u1E902.fina;
layers = (
{
anchors = (
{
name = top;
position = "{373, 663}";
}
);
layerId = "B0FCDF77-85CD-41D2-A2A0-D0893F1A1A59";
paths = (
{
closed = 1;
nodes = (
"353 0 LINE SMOOTH",
"447 0 OFFCURVE",
"465 32 OFFCURVE",
"465 118 CURVE SMOOTH",
"465 233 LINE SMOOTH",
"465 285 OFFCURVE",
"476 300 OFFCURVE",
"535 347 CURVE SMOOTH",
"575 380 OFFCURVE",
"600 399 OFFCURVE",
"614 413 CURVE",
"616 412 LINE",
"616 118 LINE SMOOTH",
"616 32 OFFCURVE",
"634 0 OFFCURVE",
"729 0 CURVE SMOOTH",
"816 0 LINE SMOOTH",
"846 0 OFFCURVE",
"856 12 OFFCURVE",
"856 48 CURVE SMOOTH",
"856 74 LINE",
"756 74 LINE SMOOTH",
"715 74 OFFCURVE",
"706 90 OFFCURVE",
"706 132 CURVE SMOOTH",
"706 714 LINE",
"616 714 LINE",
"616 563 LINE SMOOTH",
"616 512 OFFCURVE",
"600 500 OFFCURVE",
"541 450 CURVE SMOOTH",
"493 409 OFFCURVE",
"481 398 OFFCURVE",
"468 384 CURVE",
"465 384 LINE",
"465 550 LINE SMOOTH",
"465 675 OFFCURVE",
"411 726 OFFCURVE",
"283 726 CURVE SMOOTH",
"124 726 OFFCURVE",
"65 625 OFFCURVE",
"50 595 CURVE",
"50 374 LINE",
"140 374 LINE",
"140 575 LINE",
"153 597 OFFCURVE",
"195 647 OFFCURVE",
"277 647 CURVE SMOOTH",
"350 647 OFFCURVE",
"375 614 OFFCURVE",
"375 550 CURVE SMOOTH",
"375 132 LINE SMOOTH",
"375 90 OFFCURVE",
"366 74 OFFCURVE",
"326 74 CURVE SMOOTH",
"51 74 LINE",
"51 0 LINE"
);
}
);
vertWidth = 0;
width = 816;
},
{
anchors = (
{
name = top;
position = "{408, 663}";
}
);
layerId = "6CB8ADAF-854D-4ED0-880B-EED1FC4797A7";
paths = (
{
closed = 1;
nodes = (
"403 0 LINE SMOOTH",
"497 0 OFFCURVE",
"515 32 OFFCURVE",
"515 118 CURVE SMOOTH",
"515 244 LINE SMOOTH",
"515 297 OFFCURVE",
"521 304 OFFCURVE",
"569 339 CURVE SMOOTH",
"614 372 OFFCURVE",
"623 379 OFFCURVE",
"629 385 CURVE",
"631 384 LINE",
"631 118 LINE SMOOTH",
"631 32 OFFCURVE",
"650 0 OFFCURVE",
"745 0 CURVE SMOOTH",
"872 0 LINE SMOOTH",
"897 0 OFFCURVE",
"912 7 OFFCURVE",
"912 38 CURVE SMOOTH",
"912 120 LINE",
"832 120 LINE SMOOTH",
"791 120 OFFCURVE",
"782 136 OFFCURVE",
"782 178 CURVE SMOOTH",
"782 714 LINE",
"631 714 LINE",
"631 536 LINE SMOOTH",
"631 499 OFFCURVE",
"624 493 OFFCURVE",
"579 462 CURVE SMOOTH",
"543 437 OFFCURVE",
"528 426 OFFCURVE",
"518 416 CURVE",
"515 416 LINE",
"515 522 LINE SMOOTH",
"515 681 OFFCURVE",
"445 726 OFFCURVE",
"312 726 CURVE SMOOTH",
"132 726 OFFCURVE",
"58 614 OFFCURVE",
"40 571 CURVE",
"40 374 LINE",
"191 374 LINE",
"191 543 LINE",
"202 566 OFFCURVE",
"231 600 OFFCURVE",
"293 600 CURVE SMOOTH",
"347 600 OFFCURVE",
"364 573 OFFCURVE",
"364 522 CURVE SMOOTH",
"364 178 LINE SMOOTH",
"364 136 OFFCURVE",
"355 120 OFFCURVE",
"315 120 CURVE SMOOTH",
"51 120 LINE",
"51 0 LINE"
);
}
);
vertWidth = 0;
width = 872;
}
);
},
{
glyphname = "Laam-adlam.init";
production = u1E902.init;
layers = (
{
anchors = (
{
name = top;
position = "{373, 663}";
}
);
layerId = "B0FCDF77-85CD-41D2-A2A0-D0893F1A1A59";
paths = (
{
closed = 1;
nodes = (
"353 0 LINE SMOOTH",
"447 0 OFFCURVE",
"465 32 OFFCURVE",
"465 118 CURVE SMOOTH",
"465 233 LINE SMOOTH",
"465 285 OFFCURVE",
"476 300 OFFCURVE",
"535 347 CURVE SMOOTH",
"575 380 OFFCURVE",
"600 399 OFFCURVE",
"614 413 CURVE",
"616 412 LINE",
"616 0 LINE",
"706 0 LINE",
"706 714 LINE",
"616 714 LINE",
"616 563 LINE SMOOTH",
"616 512 OFFCURVE",
"600 500 OFFCURVE",
"541 450 CURVE SMOOTH",
"493 409 OFFCURVE",
"481 398 OFFCURVE",
"468 384 CURVE",
"465 384 LINE",
"465 550 LINE SMOOTH",
"465 675 OFFCURVE",
"411 726 OFFCURVE",
"283 726 CURVE SMOOTH",
"124 726 OFFCURVE",
"65 625 OFFCURVE",
"50 595 CURVE",
"50 374 LINE",
"140 374 LINE",
"140 575 LINE",
"153 597 OFFCURVE",
"195 647 OFFCURVE",
"277 647 CURVE SMOOTH",
"350 647 OFFCURVE",
"375 614 OFFCURVE",
"375 550 CURVE SMOOTH",
"375 132 LINE SMOOTH",
"375 90 OFFCURVE",
"366 74 OFFCURVE",
"326 74 CURVE SMOOTH",
"-40 74 LINE",
"-40 48 LINE SMOOTH",
"-40 12 OFFCURVE",
"-30 0 OFFCURVE",
"0 0 CURVE SMOOTH"
);
}
);
vertWidth = 0;
width = 816;
},
{
anchors = (
{
name = top;
position = "{408, 663}";
}
);
layerId = "6CB8ADAF-854D-4ED0-880B-EED1FC4797A7";
paths = (
{
closed = 1;
nodes = (
"403 0 LINE SMOOTH",
"497 0 OFFCURVE",
"515 32 OFFCURVE",
"515 118 CURVE SMOOTH",
"515 244 LINE SMOOTH",
"515 297 OFFCURVE",
"521 304 OFFCURVE",
"569 339 CURVE SMOOTH",
"614 372 OFFCURVE",
"623 379 OFFCURVE",
"629 385 CURVE",
"631 384 LINE",
"631 0 LINE",
"782 0 LINE",
"782 714 LINE",
"631 714 LINE",
"631 536 LINE SMOOTH",
"631 499 OFFCURVE",
"624 493 OFFCURVE",
"579 462 CURVE SMOOTH",
"543 437 OFFCURVE",
"528 426 OFFCURVE",
"518 416 CURVE",
"515 416 LINE",
"515 522 LINE SMOOTH",
"515 681 OFFCURVE",
"445 726 OFFCURVE",
"312 726 CURVE SMOOTH",
"132 726 OFFCURVE",
"58 614 OFFCURVE",
"40 571 CURVE",
"40 374 LINE",
"191 374 LINE",
"191 543 LINE",
"202 566 OFFCURVE",
"231 600 OFFCURVE",
"293 600 CURVE SMOOTH",
"347 600 OFFCURVE",
"364 573 OFFCURVE",
"364 522 CURVE SMOOTH",
"364 178 LINE SMOOTH",
"364 136 OFFCURVE",
"355 120 OFFCURVE",
"315 120 CURVE SMOOTH",
"-40 120 LINE",
"-40 38 LINE SMOOTH",
"-40 7 OFFCURVE",
"-25 0 OFFCURVE",
"0 0 CURVE SMOOTH"
);
}
);
vertWidth = 0;
width = 872;
}
);
},
{
export = 0;
glyphname = "Laam-adlam.isol";
production = u1E902.isol;
layers = (
{
anchors = (
{
name = top;
position = "{373, 663}";
}
);
layerId = "B0FCDF77-85CD-41D2-A2A0-D0893F1A1A59";
paths = (
{
closed = 1;
nodes = (
"353 0 LINE SMOOTH",
"447 0 OFFCURVE",
"465 32 OFFCURVE",
"465 118 CURVE SMOOTH",
"465 233 LINE SMOOTH",
"465 285 OFFCURVE",
"476 300 OFFCURVE",
"535 347 CURVE SMOOTH",
"575 380 OFFCURVE",
"600 399 OFFCURVE",
"614 413 CURVE",
"616 412 LINE",
"616 0 LINE",
"706 0 LINE",
"706 714 LINE",
"616 714 LINE",
"616 563 LINE SMOOTH",
"616 512 OFFCURVE",
"600 500 OFFCURVE",
"541 450 CURVE SMOOTH",
"493 409 OFFCURVE",
"481 398 OFFCURVE",
"468 384 CURVE",
"465 384 LINE",
"465 550 LINE SMOOTH",
"465 675 OFFCURVE",
"411 726 OFFCURVE",
"283 726 CURVE SMOOTH",
"124 726 OFFCURVE",
"65 625 OFFCURVE",
"50 595 CURVE",
"50 374 LINE",
"140 374 LINE",
"140 575 LINE",
"153 597 OFFCURVE",
"195 647 OFFCURVE",
"277 647 CURVE SMOOTH",
"350 647 OFFCURVE",
"375 614 OFFCURVE",
"375 550 CURVE SMOOTH",
"375 137 LINE SMOOTH",
"375 95 OFFCURVE",
"366 79 OFFCURVE",
"326 79 CURVE SMOOTH",
"50 79 LINE",
"50 0 LINE"
);
}
);
vertWidth = 0;
width = 816;
},
{
anchors = (
{
name = top;
position = "{408, 663}";
}
);
layerId = "6CB8ADAF-854D-4ED0-880B-EED1FC4797A7";
paths = (
{
closed = 1;
nodes = (
"403 0 LINE SMOOTH",
"497 0 OFFCURVE",
"515 32 OFFCURVE",
"515 118 CURVE SMOOTH",
"515 244 LINE SMOOTH",
"515 297 OFFCURVE",
"521 304 OFFCURVE",
"569 339 CURVE SMOOTH",
"614 372 OFFCURVE",
"623 379 OFFCURVE",
"629 385 CURVE",
"631 384 LINE",
"631 0 LINE",
"782 0 LINE",
"782 714 LINE",
"631 714 LINE",
"631 536 LINE SMOOTH",
"631 499 OFFCURVE",
"624 493 OFFCURVE",
"579 462 CURVE SMOOTH",
"543 437 OFFCURVE",
"528 426 OFFCURVE",
"518 416 CURVE",
"515 416 LINE",
"515 522 LINE SMOOTH",
"515 681 OFFCURVE",
"445 726 OFFCURVE",
"312 726 CURVE SMOOTH",
"132 726 OFFCURVE",
"58 614 OFFCURVE",
"40 571 CURVE",
"40 374 LINE",
"191 374 LINE",
"191 543 LINE",
"202 566 OFFCURVE",
"231 600 OFFCURVE",
"293 600 CURVE SMOOTH",
"347 600 OFFCURVE",
"364 573 OFFCURVE",
"364 522 CURVE SMOOTH",
"364 183 LINE SMOOTH",
"364 141 OFFCURVE",
"355 125 OFFCURVE",
"315 125 CURVE SMOOTH",
"51 125 LINE",
"51 0 LINE"
);
}
);
vertWidth = 0;
width = 872;
}
);
},
{
glyphname = "Laam-adlam.medi";
production = u1E902.medi;
layers = (
{
anchors = (
{
name = top;
position = "{373, 663}";
}
);
layerId = "B0FCDF77-85CD-41D2-A2A0-D0893F1A1A59";
paths = (
{
closed = 1;
nodes = (
"353 0 LINE SMOOTH",
"447 0 OFFCURVE",
"465 32 OFFCURVE",
"465 118 CURVE SMOOTH",
"465 233 LINE SMOOTH",
"465 285 OFFCURVE",
"476 300 OFFCURVE",
"535 347 CURVE SMOOTH",
"575 380 OFFCURVE",
"600 399 OFFCURVE",
"614 413 CURVE",
"616 412 LINE",
"616 118 LINE SMOOTH",
"616 32 OFFCURVE",
"634 0 OFFCURVE",
"729 0 CURVE SMOOTH",
"816 0 LINE SMOOTH",
"846 0 OFFCURVE",
"856 12 OFFCURVE",
"856 48 CURVE SMOOTH",
"856 74 LINE",
"756 74 LINE SMOOTH",
"715 74 OFFCURVE",
"706 90 OFFCURVE",
"706 132 CURVE SMOOTH",
"706 714 LINE",
"616 714 LINE",
"616 563 LINE SMOOTH",
"616 512 OFFCURVE",
"600 500 OFFCURVE",
"541 450 CURVE SMOOTH",
"493 409 OFFCURVE",
"481 398 OFFCURVE",
"468 384 CURVE",
"465 384 LINE",
"465 550 LINE SMOOTH",
"465 675 OFFCURVE",
"411 726 OFFCURVE",
"283 726 CURVE SMOOTH",
"124 726 OFFCURVE",
"65 625 OFFCURVE",
"50 595 CURVE",
"50 374 LINE",
"140 374 LINE",
"140 575 LINE",
"153 597 OFFCURVE",
"195 647 OFFCURVE",
"277 647 CURVE SMOOTH",
"350 647 OFFCURVE",
"375 614 OFFCURVE",
"375 550 CURVE SMOOTH",
"375 132 LINE SMOOTH",
"375 90 OFFCURVE",
"366 74 OFFCURVE",
"326 74 CURVE SMOOTH",
"-40 74 LINE",
"-40 48 LINE SMOOTH",
"-40 12 OFFCURVE",
"-30 0 OFFCURVE",
"0 0 CURVE SMOOTH"
);
}
);
vertWidth = 0;
width = 816;
},
{
anchors = (
{
name = top;
position = "{408, 663}";
}
);
layerId = "6CB8ADAF-854D-4ED0-880B-EED1FC4797A7";
paths = (
{
closed = 1;
nodes = (
"403 0 LINE SMOOTH",
"497 0 OFFCURVE",
"515 32 OFFCURVE",
"515 118 CURVE SMOOTH",
"515 244 LINE SMOOTH",
"515 297 OFFCURVE",
"521 304 OFFCURVE",
"569 339 CURVE SMOOTH",
"614 372 OFFCURVE",
"623 379 OFFCURVE",
"629 385 CURVE",
"631 384 LINE",
"631 118 LINE SMOOTH",
"631 32 OFFCURVE",
"650 0 OFFCURVE",
"745 0 CURVE SMOOTH",
"872 0 LINE SMOOTH",
"897 0 OFFCURVE",
"912 7 OFFCURVE",
"912 38 CURVE SMOOTH",
"912 120 LINE",
"832 120 LINE SMOOTH",
"791 120 OFFCURVE",
"782 136 OFFCURVE",
"782 178 CURVE SMOOTH",
"782 714 LINE",
"631 714 LINE",
"631 536 LINE SMOOTH",
"631 499 OFFCURVE",
"624 493 OFFCURVE",
"579 462 CURVE SMOOTH",
"543 437 OFFCURVE",
"528 426 OFFCURVE",
"518 416 CURVE",
"515 416 LINE",
"515 522 LINE SMOOTH",
"515 681 OFFCURVE",
"445 726 OFFCURVE",
"312 726 CURVE SMOOTH",
"132 726 OFFCURVE",
"58 614 OFFCURVE",
"40 571 CURVE",
"40 374 LINE",
"191 374 LINE",
"191 543 LINE",
"202 566 OFFCURVE",
"231 600 OFFCURVE",
"293 600 CURVE SMOOTH",
"347 600 OFFCURVE",
"364 573 OFFCURVE",
"364 522 CURVE SMOOTH",
"364 178 LINE SMOOTH",
"364 136 OFFCURVE",
"355 120 OFFCURVE",
"315 120 CURVE SMOOTH",
"-40 120 LINE",
"-40 38 LINE SMOOTH",
"-40 7 OFFCURVE",
"-25 0 OFFCURVE",
"0 0 CURVE SMOOTH"
);
}
);
vertWidth = 0;
width = 872;
}
);
},
{
export = 0;
glyphname = Left_connector;
layers = (
{
layerId = "B0FCDF77-85CD-41D2-A2A0-D0893F1A1A59";
paths = (
{
closed = 1;
nodes = (
"369 0 LINE SMOOTH",
"464 0 OFFCURVE",
"482 32 OFFCURVE",
"482 118 CURVE SMOOTH",
"482 714 LINE",
"392 714 LINE",
"392 132 LINE SMOOTH",
"392 90 OFFCURVE",
"383 74 OFFCURVE",
"342 74 CURVE SMOOTH",
"100 74 LINE",
"100 0 LINE"
);
}
);
vertWidth = 0;
width = 582;
},
{
layerId = "6CB8ADAF-854D-4ED0-880B-EED1FC4797A7";
paths = (
{
closed = 1;
nodes = (
"399 0 LINE SMOOTH",
"494 0 OFFCURVE",
"513 32 OFFCURVE",
"513 118 CURVE SMOOTH",
"513 714 LINE",
"362 714 LINE",
"362 178 LINE SMOOTH",
"362 136 OFFCURVE",
"353 120 OFFCURVE",
"312 120 CURVE SMOOTH",
"100 120 LINE",
"100 0 LINE"
);
}
);
vertWidth = 0;
width = 613;
}
);
},
